{"glyphs":{"0":{"ha":669,"x_min":32,"x_max":638,"o":"m 32 485 q 74 683 44 597 q 145 827 104 768 q 235 921 186 886 q 335 967 283 956 q 459 899 406 946 q 550 786 513 851 q 609 642 588 721 q 638 483 631 564 q 595 285 625 371 q 524 141 565 200 q 435 47 483 82 q 335 1 386 13 q 210 69 264 22 q 119 182 157 117 q 60 325 82 247 q 32 485 39 403 m 458 431 q 465 542 468 485 q 447 649 461 600 q 412 731 433 697 q 364 772 390 764 q 318 759 340 775 q 275 712 296 743 q 238 635 254 681 q 210 535 221 590 q 203 423 199 481 q 221 317 207 365 q 256 236 235 269 q 304 194 278 203 q 349 208 326 192 q 393 256 372 224 q 431 333 414 288 q 458 433 447 378 l 458 431 z "},"1":{"ha":329,"x_min":13,"x_max":276,"o":"m 231 968 q 263 951 250 965 q 276 922 276 938 l 276 43 q 262 10 275 24 q 231 -3 249 -3 l 176 -3 q 142 18 157 -4 q 126 68 128 40 q 120 219 121 154 q 122 338 119 285 q 128 434 124 390 q 138 520 133 478 q 144 607 142 563 q 147 707 147 651 q 143 738 147 725 q 132 750 139 751 q 110 765 125 750 q 81 797 96 779 q 32 839 58 821 q 15 872 13 851 q 35 903 17 892 q 56 919 46 911 q 75 936 65 926 q 110 958 89 947 q 151 971 132 969 l 226 971 l 231 968 z "},"2":{"ha":597,"x_min":26,"x_max":565,"o":"m 193 236 l 189 236 q 191 199 182 215 q 217 179 200 182 q 275 167 246 175 q 335 151 304 160 q 402 133 367 142 q 479 122 438 125 q 522 107 503 119 q 542 75 540 94 q 542 58 542 67 q 543 42 542 50 q 532 9 544 22 q 501 -4 519 -4 l 81 -4 q 48 4 61 -3 q 35 21 35 11 l 35 46 q 60 225 33 138 q 125 378 86 313 q 206 478 164 443 q 281 504 249 514 q 375 544 339 511 q 418 647 411 576 q 399 721 421 688 q 346 763 378 754 q 321 769 333 765 q 296 778 308 774 q 253 780 272 786 q 222 758 233 774 q 199 738 214 746 q 163 733 185 731 q 131 737 147 736 q 94 736 114 738 q 47 743 67 733 q 33 774 26 753 q 269 967 104 949 l 328 967 q 422 932 379 957 q 497 874 465 907 q 546 801 528 840 q 565 728 564 763 q 542 601 565 664 q 485 490 519 539 q 411 410 450 440 q 342 382 372 381 q 296 369 318 376 q 254 346 274 361 q 219 305 235 331 q 192 238 203 279 l 193 236 z "},"3":{"ha":625,"x_min":18,"x_max":578,"o":"m 239 203 q 264 200 251 201 q 289 196 276 199 q 353 203 326 185 q 381 258 381 222 q 381 283 381 271 q 382 307 381 296 q 371 354 383 331 q 339 399 358 378 q 317 429 325 413 q 313 460 310 446 l 321 497 q 336 515 324 511 q 364 519 349 519 q 403 539 386 519 q 422 586 419 558 q 426 616 425 601 q 429 646 428 631 q 409 726 433 690 q 349 772 385 763 q 324 779 336 775 q 297 788 311 783 q 248 788 269 796 q 215 760 226 779 q 194 738 208 746 q 156 732 179 729 q 88 732 125 736 q 39 739 60 729 q 24 768 18 749 q 121 910 61 860 q 267 969 181 960 l 325 969 q 424 934 379 960 q 502 873 469 908 q 553 797 535 838 q 574 719 572 757 l 574 661 q 558 574 574 622 q 514 486 542 526 q 499 448 500 465 q 511 421 497 431 q 558 378 539 404 q 578 311 578 351 l 578 253 q 547 153 569 197 q 491 78 524 110 q 417 27 458 46 q 329 3 375 8 l 271 3 q 182 31 222 7 q 110 85 142 54 q 58 150 79 117 q 28 208 38 183 q 28 228 25 217 q 39 251 32 239 q 56 275 46 264 q 75 293 65 286 q 103 310 90 303 q 128 321 115 317 q 156 314 146 328 q 174 281 167 300 q 202 232 182 253 q 247 204 222 211 l 239 203 z "},"4":{"ha":588,"x_min":13,"x_max":531,"o":"m 13 326 l 13 331 q 21 350 15 339 q 29 370 25 358 q 40 394 33 382 q 104 515 74 468 q 163 594 135 561 q 215 653 190 628 q 260 712 239 679 q 297 790 281 744 q 326 907 314 835 q 349 951 332 932 q 385 971 365 971 l 485 971 q 517 956 504 969 q 531 925 531 943 l 531 46 q 516 13 529 26 q 485 0 503 0 l 431 0 q 394 17 411 0 q 371 56 376 33 q 359 109 364 83 q 351 158 354 135 q 334 193 349 176 q 303 217 319 210 q 242 241 271 229 q 185 258 214 253 q 126 256 157 263 q 61 226 96 250 q 27 215 42 215 q 13 235 13 215 l 13 331 l 13 326 m 390 622 q 388 643 393 642 q 374 629 382 644 q 332 563 353 589 q 290 518 311 538 q 247 480 268 499 q 203 435 225 461 q 199 411 194 424 q 217 392 203 399 q 260 366 239 381 q 307 339 282 351 q 336 336 322 331 q 351 357 350 342 q 369 480 358 418 q 388 621 381 542 l 390 622 z "},"5":{"ha":621,"x_min":32,"x_max":596,"o":"m 131 522 q 101 523 114 517 q 88 547 88 529 q 92 735 92 643 q 82 926 93 826 q 91 959 79 946 q 122 972 103 972 l 451 972 q 485 952 471 972 q 499 906 499 932 l 499 833 q 486 788 499 808 q 458 765 474 768 q 381 771 418 761 q 300 794 343 781 q 272 790 283 800 q 261 764 260 781 q 261 669 265 713 q 270 639 260 654 q 296 615 281 624 q 327 596 313 606 q 357 578 342 586 q 426 532 388 550 q 501 493 465 514 q 563 440 536 472 q 596 350 589 407 l 596 279 q 564 169 588 218 q 507 86 540 121 q 432 31 474 51 q 344 4 390 10 l 282 4 q 191 35 232 10 q 119 95 150 61 q 66 167 88 129 q 36 233 44 204 q 48 276 32 249 q 85 317 64 303 q 139 344 117 338 q 167 339 157 351 q 181 307 178 326 q 209 239 188 268 q 260 203 231 210 q 285 196 272 200 q 311 188 297 192 q 376 202 350 176 q 403 271 403 228 q 403 299 403 286 q 406 326 404 313 q 386 405 408 368 q 332 464 364 442 q 288 493 310 478 q 242 518 267 508 q 189 529 218 528 q 124 519 160 531 l 131 522 z "},"6":{"ha":650,"x_min":49,"x_max":614,"o":"m 363 0 l 363 -1 l 300 -1 q 199 38 244 10 q 122 106 154 67 q 70 188 89 144 q 49 274 51 232 l 49 669 q 49 716 49 689 q 56 763 50 743 q 151 903 92 853 q 297 964 211 954 l 356 964 q 444 936 403 960 q 516 881 485 913 q 568 813 547 849 q 597 750 589 778 q 585 708 600 735 q 550 669 569 682 q 499 644 522 653 q 472 653 482 639 q 456 686 461 667 q 427 736 447 715 q 382 764 407 757 q 357 771 369 767 q 331 779 344 775 q 267 772 293 790 q 242 717 240 753 l 242 674 q 254 644 242 658 q 282 624 267 631 q 331 598 308 613 q 375 572 353 583 q 444 527 406 544 q 519 489 483 510 q 581 435 554 468 q 614 346 607 403 l 614 275 q 582 165 606 214 q 524 82 558 117 q 449 27 490 47 q 361 1 407 7 l 363 0 m 265 515 q 237 513 250 522 q 221 489 224 504 q 210 424 215 457 q 201 353 206 390 q 203 301 199 326 q 219 256 208 276 q 246 220 231 235 q 281 201 261 206 q 306 194 293 199 q 332 186 318 190 q 397 201 371 175 q 424 269 424 226 q 424 298 424 285 q 426 325 425 311 q 407 403 429 367 q 353 461 385 440 q 309 489 331 475 q 264 513 288 503 l 265 515 z "},"7":{"ha":635,"x_min":68,"x_max":569,"o":"m 132 835 q 88 847 107 836 q 68 878 68 858 l 68 924 q 83 956 69 943 q 114 969 96 969 l 531 969 q 560 956 550 968 q 564 925 569 944 q 531 781 549 853 q 492 646 513 710 q 451 527 472 582 q 408 433 429 472 q 369 356 388 389 q 335 286 350 324 q 309 198 319 249 q 296 64 299 147 q 281 17 294 38 q 249 -3 268 -3 l 190 -3 q 160 16 171 -3 q 156 63 150 35 q 188 241 169 168 q 228 367 207 314 q 271 458 249 419 q 315 535 293 497 q 356 617 336 574 q 390 722 375 660 q 385 760 394 743 q 361 782 376 778 q 313 797 338 788 q 259 814 288 806 q 199 829 231 822 q 132 838 168 836 l 132 835 z "},"8":{"ha":665,"x_min":31,"x_max":636,"o":"m 510 453 q 554 426 532 440 q 594 393 576 413 q 624 349 613 374 q 636 290 636 324 q 601 178 626 228 q 538 93 575 129 q 454 33 500 57 q 360 -3 408 10 l 310 -3 q 197 49 247 17 q 112 121 147 82 q 56 203 76 160 q 32 289 36 247 q 41 357 31 319 q 69 431 51 394 q 110 500 86 468 q 163 551 135 532 q 171 603 199 579 q 122 660 143 628 q 100 732 101 692 q 172 894 111 828 q 333 972 233 960 q 438 937 390 967 q 518 865 485 907 q 569 776 551 824 q 583 685 586 728 q 562 591 581 640 q 511 506 543 542 q 494 476 496 490 q 508 453 493 461 l 510 453 m 178 365 q 182 307 174 336 q 207 254 190 278 q 247 213 224 231 q 299 188 271 196 q 351 185 326 181 q 395 201 376 189 q 426 234 414 214 q 439 279 438 254 q 402 374 438 328 q 322 451 367 419 q 276 469 300 468 q 233 458 253 469 q 199 422 213 446 q 181 367 185 399 l 178 365 m 360 772 q 292 764 319 783 q 265 708 265 744 q 292 637 267 672 q 350 581 317 601 q 413 578 383 560 q 446 642 442 597 q 424 724 450 686 q 358 774 399 763 l 360 772 z "},"9":{"ha":650,"x_min":38,"x_max":603,"o":"m 268 203 q 293 196 281 200 q 319 188 306 192 q 384 195 357 176 q 410 250 411 214 l 410 293 q 397 322 410 308 q 369 343 385 336 q 321 369 343 354 q 276 396 299 383 q 206 441 244 424 q 131 479 167 458 q 69 533 96 500 q 38 622 43 565 l 38 693 q 69 803 46 754 q 126 886 93 851 q 201 942 160 921 q 289 968 243 963 l 351 968 q 452 928 407 957 q 530 861 497 900 q 581 778 563 822 q 603 693 600 735 l 603 297 q 602 251 603 278 q 596 204 601 224 q 499 63 558 114 q 353 3 439 13 l 294 3 q 206 30 246 7 q 134 85 165 53 q 82 153 103 118 q 53 217 61 189 q 65 258 50 232 q 100 297 81 285 q 150 322 126 314 q 177 314 167 328 q 193 281 188 300 q 222 231 201 251 q 267 203 242 210 l 268 203 m 225 643 q 244 565 222 601 q 299 507 267 528 q 342 479 321 493 q 388 456 364 465 q 416 458 403 449 q 432 482 429 467 q 442 547 438 514 q 451 618 447 581 q 449 669 454 644 q 433 715 444 694 q 406 751 422 736 q 372 769 390 765 q 347 776 360 772 q 321 785 335 781 q 256 770 282 796 q 229 701 229 744 q 228 673 229 686 q 226 646 228 660 l 225 643 z "},"\u0000":{"ha":0,"x_min":0,"x_max":0,"o":""},"\r":{"ha":0,"x_min":0,"x_max":0,"o":""}," ":{"ha":342,"x_min":0,"x_max":0,"o":""},"\n":{"ha":0,"x_min":0,"x_max":0,"o":""},"!":{"ha":275,"x_min":42,"x_max":228,"o":"m 67 376 q 70 522 68 453 q 73 657 72 590 q 72 792 74 724 q 67 939 71 861 q 78 972 65 958 q 110 986 90 985 l 164 986 q 197 966 183 985 q 210 924 210 947 q 208 737 210 821 q 203 578 206 653 q 200 437 201 504 q 199 303 199 369 q 182 277 199 285 q 149 294 165 269 q 128 326 138 310 q 107 350 118 343 q 93 358 100 357 q 81 361 86 360 q 72 365 75 363 q 68 376 68 368 l 67 376 m 125 269 q 157 223 139 243 q 190 185 175 203 q 217 151 206 168 q 228 115 228 135 q 199 46 225 72 q 135 14 172 19 q 98 29 115 18 q 68 56 81 40 q 49 87 56 71 q 42 115 42 103 q 50 173 42 136 q 70 240 58 210 q 97 283 82 271 q 125 269 111 296 z "},"#":{"ha":950,"x_min":21,"x_max":932,"o":"m 872 597 q 914 603 896 607 q 932 579 932 599 l 932 525 q 911 485 932 506 q 863 457 890 464 q 753 435 806 442 q 710 421 731 432 q 682 394 690 410 l 678 390 q 678 365 669 375 q 710 354 688 354 l 746 354 q 787 346 769 356 q 804 319 804 336 l 804 274 q 786 244 804 257 q 744 233 768 232 q 700 236 721 235 q 660 240 679 238 q 622 235 639 243 q 603 210 606 226 q 598 144 597 179 q 606 68 599 110 q 601 29 610 46 q 572 13 592 13 l 514 13 q 478 32 494 13 q 460 78 463 51 q 457 167 456 126 q 465 240 458 207 q 460 272 468 258 q 438 290 453 286 q 376 306 406 299 q 317 315 347 313 q 287 305 301 318 q 265 269 272 292 q 245 182 254 229 q 229 82 236 135 q 211 33 226 54 q 176 13 196 13 l 118 13 q 89 29 99 14 q 85 68 79 44 q 107 158 96 113 q 132 246 118 203 q 130 280 139 269 q 101 282 121 290 l 72 269 q 37 265 53 260 q 21 289 21 269 l 21 343 q 40 385 21 363 q 82 417 58 407 q 163 446 126 436 q 203 466 183 451 q 231 497 222 481 q 235 503 232 500 q 235 530 243 519 q 207 538 228 540 q 190 535 201 538 q 153 540 169 532 q 139 565 138 549 l 143 611 q 163 642 144 628 q 204 657 181 656 q 271 657 239 658 q 310 663 292 656 q 335 685 328 671 q 367 790 357 733 q 364 928 378 846 q 369 969 360 951 q 397 986 378 986 l 456 986 q 490 966 475 986 q 508 918 506 946 q 502 760 515 822 q 465 649 489 697 q 464 622 458 635 q 485 604 469 610 q 542 583 514 593 q 599 565 569 572 q 630 572 614 563 q 654 597 646 581 q 706 738 683 658 q 740 917 728 817 q 758 965 743 944 q 793 985 774 985 l 851 985 q 881 969 871 983 q 885 932 890 954 q 841 767 865 850 q 788 614 817 685 q 788 585 779 594 q 817 582 796 575 q 842 591 829 586 q 868 601 854 596 l 872 597 m 544 419 q 549 444 553 432 q 531 461 544 456 q 474 483 501 472 q 417 506 446 494 q 387 506 403 511 q 363 486 371 500 l 358 482 q 354 456 350 468 q 372 440 358 444 q 429 421 401 432 q 486 399 457 410 q 517 398 501 393 q 542 415 533 403 l 546 419 l 544 419 z "},"$":{"ha":601,"x_min":35,"x_max":574,"o":"m 569 233 l 574 233 l 574 221 q 571 206 572 213 q 566 190 568 199 q 560 171 564 182 q 490 73 536 108 q 396 31 444 38 q 367 26 379 28 q 354 24 354 25 q 360 -10 357 7 q 365 -47 363 -28 q 360 -89 369 -71 q 332 -107 351 -107 l 278 -107 q 243 -85 258 -107 q 225 -33 228 -62 q 222 11 222 -10 q 219 51 221 32 q 207 59 219 53 q 179 75 194 65 q 94 131 131 106 q 43 199 57 157 q 44 217 40 204 q 53 242 47 229 q 69 269 60 256 q 89 290 79 282 q 142 324 119 314 q 169 317 158 331 q 186 286 179 304 l 190 278 q 206 265 197 261 q 217 289 215 269 q 224 383 219 340 q 236 467 229 426 q 232 501 239 482 q 211 532 225 521 q 161 569 190 557 q 104 599 132 582 q 56 642 76 615 q 35 724 36 669 q 53 801 36 765 q 97 865 71 838 q 154 910 122 893 q 217 926 186 926 q 247 928 235 929 q 260 929 260 928 q 243 1033 253 976 q 248 1075 239 1057 q 276 1093 257 1093 l 331 1093 q 365 1071 350 1093 q 383 1019 381 1049 q 392 894 389 953 q 403 888 392 893 q 431 874 415 882 q 475 847 454 858 q 513 822 496 835 q 544 795 531 810 q 564 760 557 781 q 563 741 567 753 q 553 716 560 729 q 535 690 546 703 q 515 668 525 676 q 461 638 488 646 q 433 644 443 631 q 415 674 422 657 l 411 682 q 395 695 404 699 q 385 674 386 692 q 377 595 382 632 q 367 524 372 558 q 371 488 364 508 q 390 456 378 468 q 433 418 408 433 q 483 386 458 403 q 528 346 507 369 q 560 282 549 322 q 563 266 561 274 q 564 251 564 258 l 564 239 l 564 235 l 569 233 m 272 664 l 272 672 q 274 706 274 689 q 275 743 275 724 q 265 769 275 758 q 243 772 254 781 q 228 738 228 761 q 242 671 228 700 q 259 651 250 654 q 269 664 268 649 l 272 664 m 371 200 q 386 232 383 213 q 369 314 385 278 q 355 333 363 331 q 346 321 347 336 q 342 228 342 276 q 352 200 342 211 q 372 199 363 189 l 371 200 z "},"%":{"ha":1100,"x_min":68,"x_max":1029,"o":"m 526 661 q 501 601 521 625 q 454 563 482 578 q 390 540 426 547 q 315 532 354 533 q 235 538 278 531 q 155 563 192 544 q 94 610 118 581 q 68 686 69 640 q 94 770 72 732 q 150 835 117 808 q 224 877 183 863 q 304 888 264 892 q 392 863 349 885 q 467 807 435 840 q 516 735 499 774 q 528 660 533 696 l 526 661 m 335 647 q 376 658 358 646 q 394 692 393 671 q 378 731 396 713 q 336 751 361 749 q 294 740 311 754 q 276 703 276 725 q 294 666 276 681 q 336 650 313 651 l 335 647 m 772 901 q 740 704 765 783 q 682 567 715 625 q 612 464 649 510 q 545 365 575 418 q 499 242 515 311 q 488 68 482 172 q 479 20 490 40 q 449 0 468 0 l 390 0 q 358 22 371 0 q 347 71 344 43 q 376 267 351 189 q 434 401 401 344 q 504 503 467 458 q 572 602 542 549 q 619 726 601 656 q 632 903 636 796 q 640 951 629 931 q 671 971 651 971 l 729 971 q 761 950 749 971 q 771 901 774 929 l 772 901 m 781 436 q 861 431 818 438 q 941 406 904 424 q 1003 358 978 388 q 1029 282 1028 328 q 1003 198 1025 236 q 949 132 982 160 q 876 90 917 104 q 797 79 836 76 q 710 103 753 81 q 634 158 667 125 q 583 231 601 192 q 571 307 565 271 q 596 367 576 343 q 643 406 615 392 q 707 428 671 421 q 782 436 743 435 l 781 436 m 760 214 q 802 226 785 211 q 819 263 819 240 q 800 299 818 285 q 758 317 782 314 q 717 308 735 319 q 700 275 700 296 q 718 236 700 254 q 761 215 736 218 l 760 214 z "},"&":{"ha":972,"x_min":10,"x_max":907,"o":"m 892 13 q 902 -12 907 -3 q 879 -22 897 -22 l 779 -22 q 739 -16 760 -22 q 707 0 718 -10 q 693 13 700 7 q 679 25 686 18 q 649 53 664 39 q 618 81 633 67 q 588 108 600 97 q 574 117 575 119 l 569 113 q 527 66 550 89 q 474 25 504 43 q 405 -4 443 7 q 319 -15 367 -15 q 186 18 240 -7 q 97 76 132 43 q 44 144 63 108 q 19 210 26 181 q 24 297 10 244 q 72 403 39 350 q 153 501 104 457 q 261 564 201 544 q 286 582 281 571 q 282 607 292 593 q 231 721 242 663 q 244 832 221 779 q 299 906 263 872 q 393 942 336 939 q 533 910 478 940 q 619 838 589 881 q 660 747 650 794 q 664 664 669 700 q 649 610 661 638 q 617 559 638 583 q 572 517 597 535 q 518 490 547 499 q 497 474 503 486 q 496 447 490 463 q 509 416 503 432 q 522 385 515 400 q 539 369 529 369 q 554 382 549 368 q 572 428 565 406 q 585 468 579 451 l 585 472 q 597 474 586 475 q 624 472 608 474 q 647 471 635 471 q 671 471 658 471 q 702 473 689 472 q 715 471 715 474 l 715 467 q 695 376 708 433 q 654 261 682 319 q 653 227 647 246 q 674 193 658 208 q 722 153 697 174 q 772 114 746 133 q 833 66 803 90 q 888 18 863 42 l 892 14 l 892 13 m 465 236 l 465 240 q 463 256 468 243 q 450 285 458 269 q 413 363 428 325 q 385 432 399 400 q 365 458 379 447 q 335 465 350 468 q 272 442 301 461 q 220 399 242 424 q 186 345 199 374 q 174 292 174 317 q 207 219 172 243 q 300 192 242 194 q 393 200 354 189 q 460 235 432 211 l 468 239 l 465 236 m 429 601 q 444 594 432 596 q 471 597 457 592 q 503 615 489 604 q 529 636 518 625 q 539 653 535 642 q 544 676 543 664 q 544 701 546 689 q 536 719 543 713 q 506 738 526 729 q 449 754 486 747 q 415 751 432 757 q 392 733 399 744 q 386 699 383 718 q 395 663 389 681 q 409 633 401 646 q 419 614 417 619 l 428 601 l 429 601 z "},"'":{"ha":235,"x_min":26,"x_max":215,"o":"m 122 951 q 188 913 164 943 q 215 850 213 882 q 196 793 215 821 q 160 760 181 771 q 132 736 139 749 q 121 715 125 726 q 97 689 114 696 q 64 697 79 682 q 42 728 49 713 q 38 763 35 744 q 40 799 42 782 q 33 826 39 815 q 26 853 26 838 q 60 924 33 899 q 118 954 86 949 l 122 951 z "},"(":{"ha":417,"x_min":42,"x_max":397,"o":"m 388 92 q 394 78 392 92 q 397 46 397 65 l 397 25 q 383 -8 396 6 q 351 -21 369 -21 l 289 -21 q 242 -12 269 -21 q 197 15 215 -3 q 132 99 160 64 q 85 163 104 133 q 56 222 67 193 q 42 289 44 251 l 42 635 q 64 735 46 693 q 108 809 82 776 q 165 868 133 842 q 226 922 196 894 q 266 944 242 936 q 310 953 290 953 l 335 953 q 367 935 354 951 q 381 900 381 919 l 381 863 q 367 815 381 843 q 336 774 353 788 q 285 733 307 750 q 247 699 263 715 q 221 663 231 682 q 210 617 211 644 q 197 489 206 549 q 181 354 188 429 q 188 277 178 321 q 223 193 199 233 q 285 125 247 153 q 376 96 324 97 l 389 96 l 388 92 z "},")":{"ha":415,"x_min":19,"x_max":372,"o":"m 194 928 q 269 842 238 879 q 322 772 300 804 q 356 708 344 739 q 372 639 368 676 l 372 293 q 353 199 369 239 q 313 128 336 160 q 261 69 289 96 q 207 17 233 43 q 167 -7 192 3 q 124 -17 143 -17 l 78 -17 q 45 1 58 -15 q 32 36 32 17 l 32 61 q 46 108 32 81 q 78 149 60 135 q 129 192 107 174 q 167 227 151 210 q 192 265 183 244 q 204 313 201 285 q 217 441 208 381 q 233 575 226 501 q 226 651 236 607 q 192 735 215 694 q 130 803 168 775 q 38 832 92 832 l 29 832 q 22 845 25 832 q 19 878 19 858 l 19 911 q 34 944 21 931 q 65 957 47 957 l 103 957 q 149 949 122 957 q 194 926 176 942 l 194 928 z "},"*":{"ha":531,"x_min":28,"x_max":510,"o":"m 476 610 q 506 582 501 601 q 493 547 510 563 q 460 504 471 524 q 435 485 451 489 q 394 494 418 481 q 328 538 358 515 q 274 583 297 560 q 242 602 258 599 q 213 593 225 606 q 179 553 196 576 q 144 503 163 531 q 113 485 132 482 q 81 507 93 488 q 65 530 72 519 q 49 549 57 540 q 38 579 36 560 q 57 619 39 599 q 90 653 74 638 q 121 681 106 668 q 141 710 138 696 q 129 732 144 724 q 63 757 101 746 q 33 781 39 763 q 47 817 28 799 q 71 840 60 829 q 92 861 82 850 q 128 877 106 876 q 169 865 150 878 q 182 857 176 861 q 193 849 188 853 q 221 838 211 836 q 228 860 231 840 q 225 874 226 867 q 221 889 224 882 q 218 926 214 908 q 242 946 222 944 l 296 946 q 333 924 315 946 q 353 876 351 901 l 353 861 q 362 831 354 838 q 383 840 369 825 l 392 853 q 422 869 404 869 q 450 856 439 869 q 481 822 465 833 q 492 794 494 814 q 469 754 489 774 q 390 692 428 714 q 371 668 374 681 q 385 644 368 656 q 472 607 419 624 l 476 610 z "},"+":{"ha":507,"x_min":19,"x_max":482,"o":"m 428 531 q 465 533 447 538 q 482 508 482 528 l 482 454 q 460 417 482 435 q 413 397 438 399 q 369 395 389 394 q 333 399 350 396 q 301 394 314 401 q 288 369 288 386 q 300 304 288 342 q 302 267 307 285 q 278 247 297 249 l 224 247 q 187 269 204 247 q 168 317 169 292 q 166 360 165 340 q 169 396 167 379 q 165 428 172 415 q 140 442 157 442 q 75 429 113 442 q 38 427 56 422 q 19 451 21 432 l 19 506 q 42 543 19 525 q 89 563 64 561 q 132 565 113 565 q 168 561 151 564 q 201 566 188 558 q 214 590 214 574 q 201 656 214 618 q 199 692 194 675 q 224 711 204 710 l 278 711 q 315 689 297 711 q 335 642 333 667 q 337 599 338 618 q 333 563 336 579 q 338 530 331 543 q 363 517 346 517 q 428 529 390 517 l 428 531 z "},",":{"ha":240,"x_min":15,"x_max":217,"o":"m 124 215 q 190 176 167 207 q 217 114 214 146 q 197 57 217 83 q 176 37 188 47 q 156 16 165 26 q 140 -3 146 6 q 133 -17 133 -11 q 116 -31 131 -24 q 82 -37 101 -37 l 57 -37 q 26 -27 38 -35 q 18 -8 15 -19 q 24 14 19 -1 q 32 45 28 29 q 40 75 36 61 q 42 93 43 89 q 38 119 38 106 q 67 184 44 160 q 125 214 90 208 q 124 216 125 215 q 124 218 124 217 l 124 215 z "},"-":{"ha":581,"x_min":57,"x_max":524,"o":"m 478 -108 q 510 -123 497 -110 q 524 -154 522 -136 l 524 -208 q 506 -241 521 -228 q 478 -254 492 -254 l 103 -254 q 71 -240 83 -253 q 57 -210 58 -228 l 57 -156 q 74 -123 60 -136 q 103 -110 89 -110 l 478 -110 l 478 -108 z "},".":{"ha":229,"x_min":21,"x_max":206,"o":"m 114 185 q 179 147 157 176 q 206 83 201 117 q 170 12 197 36 q 113 -18 143 -12 q 47 20 69 -10 q 21 83 25 50 q 56 155 29 131 q 114 185 83 179 z "},":":{"ha":254,"x_min":32,"x_max":219,"o":"m 117 254 q 147 215 129 231 q 180 184 164 199 q 208 154 196 169 q 219 119 219 139 q 189 49 215 75 q 126 18 163 24 q 90 33 107 22 q 61 59 74 44 q 41 90 49 74 q 33 119 33 107 q 42 175 33 142 q 63 235 50 208 q 90 271 75 261 q 117 256 104 281 l 117 254 m 135 486 q 105 525 122 508 q 72 556 88 542 q 44 586 56 571 q 32 621 32 601 q 63 691 36 665 q 125 722 89 717 q 161 707 144 718 q 190 681 178 696 q 210 650 203 667 q 218 621 218 633 q 210 565 218 599 q 189 506 201 532 q 162 469 176 479 q 135 485 147 460 l 135 486 z "},";":{"ha":263,"x_min":28,"x_max":229,"o":"m 222 596 q 214 542 222 574 q 194 485 206 510 q 167 450 182 460 q 139 464 153 440 q 109 503 126 485 q 77 538 92 521 q 51 571 63 554 q 40 607 40 588 q 68 674 43 647 q 131 707 93 701 q 167 692 150 704 q 197 665 185 681 q 217 631 210 649 q 224 599 224 614 l 222 596 m 126 238 q 156 197 139 213 q 190 169 174 182 q 217 144 206 157 q 229 111 229 132 q 211 58 229 81 q 194 41 204 51 q 175 19 185 31 q 158 -2 165 8 q 150 -18 151 -12 q 130 -32 146 -25 q 94 -39 114 -39 l 69 -39 q 39 -28 50 -36 q 31 -10 28 -21 q 35 13 32 -4 q 42 50 39 31 q 47 86 44 69 q 47 108 49 103 q 43 136 43 118 q 51 190 43 161 q 71 238 60 219 q 97 260 82 257 q 124 236 111 263 l 124 240 l 126 238 z "},"<":{"ha":749,"x_min":69,"x_max":696,"o":"m 314 533 q 299 514 301 528 q 304 485 296 500 q 350 394 325 442 q 409 300 375 347 q 488 208 443 253 q 592 124 532 163 q 613 92 611 110 q 603 60 615 74 q 592 47 594 51 q 567 23 581 33 q 543 13 554 13 q 512 24 532 13 q 472 53 492 35 q 386 142 422 96 q 322 231 350 188 q 272 314 294 275 q 223 383 249 353 q 165 430 197 413 q 89 449 133 447 q 69 469 69 450 q 90 514 69 489 q 199 609 151 575 q 288 665 247 643 q 361 703 328 686 q 426 747 394 719 q 490 818 458 774 q 558 939 522 863 q 583 974 571 960 q 597 988 594 988 q 612 974 600 988 q 638 946 624 961 q 667 918 654 928 q 665 849 696 899 q 569 699 614 757 q 481 608 524 642 q 398 558 439 574 q 314 535 357 542 l 314 533 z "},">":{"ha":749,"x_min":53,"x_max":678,"o":"m 657 532 q 677 511 676 531 q 657 468 678 492 q 551 377 597 410 q 465 324 504 344 q 394 285 426 303 q 331 242 361 268 q 269 175 300 217 q 206 61 239 133 q 178 24 194 39 q 151 10 163 10 q 124 23 140 10 q 94 49 108 36 l 82 61 q 83 131 53 83 q 178 278 133 219 q 265 374 224 338 q 348 427 307 410 q 432 450 389 444 q 447 469 444 456 q 442 499 450 483 q 397 589 421 542 q 339 683 372 636 q 262 774 306 729 q 158 857 218 819 q 137 889 139 871 q 149 919 135 907 q 174 949 163 933 q 193 974 185 963 q 204 985 201 985 q 222 974 207 985 q 257 944 238 963 q 348 854 310 901 q 415 762 386 807 q 467 676 443 717 q 519 603 492 635 q 578 552 546 571 q 658 532 611 533 l 657 532 z "},"?":{"ha":574,"x_min":71,"x_max":553,"o":"m 256 265 q 311 213 286 253 q 343 126 336 172 q 344 82 347 104 q 333 42 342 60 q 309 12 324 24 q 275 -1 294 0 q 238 12 256 -1 q 206 46 219 25 q 185 93 193 67 q 178 147 178 119 q 185 199 178 175 q 203 240 192 224 q 228 264 214 257 q 257 265 242 271 l 256 265 m 533 828 q 548 794 543 813 q 553 751 553 776 q 535 650 553 700 q 513 599 525 624 q 489 556 501 575 q 436 494 464 515 q 389 468 413 476 q 369 463 378 465 q 354 458 361 461 q 333 442 339 454 l 321 413 q 304 398 317 400 q 278 406 292 396 l 265 414 q 242 438 251 422 q 233 468 232 453 q 235 493 235 481 q 238 517 236 506 q 250 554 238 542 q 282 569 263 567 q 301 572 292 572 q 321 572 310 572 q 342 574 332 572 q 361 579 351 575 q 394 610 381 588 q 413 671 411 635 q 408 718 414 696 q 389 758 403 740 q 357 789 375 776 q 315 808 336 803 q 258 819 279 819 q 217 815 235 819 q 201 810 210 813 q 185 806 193 808 q 158 800 172 800 q 113 818 126 803 l 83 847 q 72 876 71 860 q 86 899 74 892 l 115 915 q 144 928 131 922 q 174 942 158 935 q 235 964 200 953 q 310 975 271 975 q 364 968 338 975 q 414 950 390 961 q 457 924 438 939 q 492 893 476 908 q 540 836 521 863 l 532 832 l 533 828 z "},"@":{"ha":1006,"x_min":21,"x_max":988,"o":"m 979 557 q 983 541 982 549 q 985 528 983 533 q 988 515 986 521 l 988 503 l 983 503 l 983 499 l 983 485 q 982 469 983 478 q 979 451 981 461 q 917 316 963 371 q 817 229 872 261 q 707 186 763 197 q 614 182 651 175 l 606 182 q 496 258 533 196 q 485 258 496 260 q 458 257 474 257 q 421 260 442 256 q 354 294 385 268 q 290 391 307 333 q 292 507 272 449 q 364 626 318 581 q 465 685 410 671 q 560 682 513 697 q 585 674 575 678 q 597 674 596 671 q 609 672 599 676 q 635 660 619 667 q 653 649 644 654 q 672 640 663 644 q 692 617 688 633 q 689 582 696 600 q 622 438 650 494 q 592 344 593 382 q 596 319 590 329 q 603 308 601 308 l 607 308 q 650 307 621 304 q 710 325 679 310 q 766 369 740 340 q 799 449 792 399 q 783 556 801 503 q 731 653 765 610 q 647 727 697 697 q 536 765 597 757 q 426 753 481 769 q 328 701 372 736 q 254 617 285 667 q 215 506 224 568 q 226 395 210 450 q 277 295 243 340 q 361 219 311 250 q 474 179 411 188 q 536 179 504 175 q 572 172 553 182 q 601 143 590 163 q 639 89 618 115 q 656 49 654 69 q 643 21 658 28 q 592 -1 619 8 q 533 -12 565 -10 l 504 -12 q 313 51 396 4 q 172 161 231 97 q 75 299 113 225 q 21 444 38 372 q 73 643 28 556 q 183 794 118 731 q 326 898 249 858 q 476 954 404 938 q 661 912 579 953 q 805 810 743 871 q 910 681 867 750 q 976 557 953 613 l 979 557 m 533 518 l 532 518 q 538 547 539 532 q 525 564 536 561 q 501 565 515 568 q 451 538 475 561 q 408 478 426 515 q 404 437 400 458 q 424 400 408 415 q 450 388 436 389 q 474 399 463 386 q 490 426 485 413 q 510 473 499 450 q 533 519 522 496 l 533 518 z "},"A":{"ha":611,"x_min":1,"x_max":617,"o":"m 219 296 q 190 282 204 297 q 172 243 176 267 q 160 165 165 207 q 150 76 154 124 q 133 26 147 49 q 100 4 119 4 l 42 4 q 12 18 22 6 q 6 50 1 31 q 38 238 17 153 q 85 396 60 322 q 135 534 110 469 q 181 661 161 599 q 210 787 200 724 q 217 919 221 850 q 225 959 214 942 q 256 976 236 976 l 364 976 q 401 954 383 976 q 426 904 419 932 q 449 715 440 797 q 468 564 458 632 q 488 438 478 496 q 515 319 499 379 q 555 194 532 260 q 613 49 578 129 q 606 16 617 29 q 576 3 594 3 l 518 3 q 478 19 499 3 q 446 57 457 35 q 375 236 397 154 q 355 266 369 254 q 325 281 340 278 q 274 287 300 283 q 219 292 249 290 l 219 296 m 347 650 q 340 672 344 669 q 332 658 336 674 q 290 559 314 601 q 243 468 267 517 q 242 442 236 454 q 264 425 249 429 q 290 418 278 422 q 315 411 303 414 q 340 418 331 408 q 350 443 350 428 q 351 542 350 492 q 347 650 353 592 z "},"B":{"ha":649,"x_min":51,"x_max":628,"o":"m 438 14 l 438 13 q 397 2 422 6 q 351 -1 371 -1 l 97 -1 q 65 13 78 0 q 51 44 51 26 l 51 924 q 66 956 53 943 q 97 969 79 969 l 343 969 q 435 938 393 965 q 508 870 478 910 q 554 784 539 831 q 567 696 569 738 l 567 675 q 551 602 564 639 q 519 535 539 565 q 506 500 507 515 q 519 476 506 485 q 558 454 539 467 q 593 425 578 442 q 618 386 608 408 q 628 335 628 364 l 628 272 q 606 183 624 224 q 560 112 588 143 q 501 58 533 81 q 439 18 469 35 l 438 14 m 386 424 q 356 447 375 438 q 322 460 336 457 q 289 467 306 464 q 254 471 272 471 q 225 459 239 472 q 208 429 211 446 q 199 348 203 390 q 192 256 194 306 q 202 218 190 233 q 229 201 214 203 q 275 196 253 200 q 321 185 297 192 q 400 197 367 172 q 433 264 433 221 q 433 290 433 278 q 435 315 433 303 q 423 372 438 344 q 388 422 408 399 l 386 424 m 275 801 q 244 797 257 807 q 235 771 232 788 q 238 695 239 731 q 235 625 238 660 q 245 600 233 610 q 274 588 257 590 q 331 578 303 581 q 380 580 358 575 q 415 601 401 585 q 433 647 429 617 l 433 668 q 417 736 436 704 q 368 776 397 768 q 325 790 347 783 q 279 804 303 797 l 275 801 z "},"C":{"ha":579,"x_min":36,"x_max":575,"o":"m 328 6 l 332 1 l 274 1 q 178 36 221 11 q 105 95 136 61 q 56 167 74 129 q 36 242 38 206 l 36 729 q 66 824 44 782 q 119 896 88 865 q 191 944 151 926 q 275 968 231 963 l 333 968 q 411 946 375 965 q 476 901 447 926 q 527 847 506 875 q 561 801 549 819 q 563 786 565 796 q 556 765 561 776 q 542 743 550 754 q 524 725 533 732 q 469 694 497 706 q 438 701 453 688 q 411 729 422 714 q 358 767 389 758 q 335 774 347 769 q 310 782 322 778 q 252 775 276 793 q 229 725 228 757 q 226 628 231 674 q 214 535 221 582 q 199 436 207 488 q 185 321 190 385 q 203 247 182 281 q 257 206 225 214 q 282 199 269 203 q 307 190 294 194 q 374 201 349 176 q 401 217 385 211 q 440 221 418 224 q 510 218 475 217 q 556 211 538 221 q 567 181 575 201 q 471 56 526 100 q 335 3 415 11 l 328 6 z "},"D":{"ha":640,"x_min":54,"x_max":601,"o":"m 451 24 l 447 24 q 410 6 433 13 q 367 0 386 0 l 100 0 q 67 15 81 1 q 54 46 54 28 l 54 925 q 69 958 56 944 q 100 971 82 971 l 338 971 q 444 923 396 954 q 526 854 492 892 q 579 774 560 817 q 601 692 599 732 l 601 263 q 584 183 599 219 q 547 118 569 147 q 499 65 525 89 q 449 24 472 42 l 451 24 m 454 618 q 451 672 457 644 q 430 721 444 699 q 395 760 415 743 q 351 783 375 776 q 285 804 319 793 q 254 800 267 810 q 244 774 242 790 q 245 649 250 706 q 231 532 240 592 q 211 405 221 472 q 197 249 201 338 q 208 210 196 226 q 235 193 219 194 q 297 182 263 192 q 378 196 344 171 q 411 265 411 221 q 416 351 411 310 q 427 433 421 392 q 441 520 433 475 q 454 618 449 565 z "},"E":{"ha":451,"x_min":54,"x_max":422,"o":"m 421 42 q 406 9 419 22 q 375 -4 393 -4 l 100 -4 q 67 12 81 -1 q 54 42 54 25 l 54 921 q 69 953 56 940 q 100 967 82 967 l 375 967 q 408 951 394 964 q 421 921 421 938 l 421 871 q 407 824 421 853 q 375 782 393 794 q 316 763 343 761 q 261 775 289 764 q 235 774 246 782 q 225 747 224 765 q 226 668 228 704 q 221 599 224 632 q 228 565 219 585 q 251 532 238 546 q 276 511 264 521 q 301 497 288 501 q 329 493 314 492 q 363 506 344 494 q 402 525 383 518 q 421 514 421 532 l 421 460 q 415 437 421 450 q 399 411 408 424 q 378 390 390 399 q 356 378 367 381 q 288 385 315 367 q 236 426 260 403 q 211 440 222 442 q 197 422 200 438 q 190 340 193 383 q 188 242 188 296 q 199 201 188 221 q 228 174 211 181 q 288 147 256 161 q 361 129 321 133 q 403 115 385 126 q 422 83 422 103 l 422 42 l 421 42 z "},"F":{"ha":438,"x_min":56,"x_max":422,"o":"m 196 72 l 196 68 q 187 18 199 40 q 156 -4 175 -4 l 101 -4 q 69 12 82 -1 q 56 42 56 25 l 56 921 q 70 953 57 940 q 101 967 83 967 l 376 967 q 409 951 396 964 q 422 921 422 938 l 422 871 q 408 824 422 853 q 376 782 394 794 q 317 763 344 761 q 263 775 290 764 q 236 774 247 782 q 226 747 225 765 q 227 668 229 704 q 222 599 225 632 q 230 565 221 585 q 253 532 239 546 q 277 511 265 521 q 302 497 289 501 q 331 493 315 492 q 364 506 346 494 q 403 525 385 518 q 422 514 422 532 l 422 460 q 416 437 422 450 q 401 411 410 424 q 380 390 392 399 q 357 378 368 381 q 289 385 317 367 q 238 426 261 403 q 213 440 224 442 q 199 422 201 438 q 188 276 192 357 q 193 75 185 194 l 196 72 z "},"G":{"ha":603,"x_min":40,"x_max":575,"o":"m 336 3 l 336 0 l 278 0 q 183 35 225 10 q 109 93 140 60 q 60 165 78 126 q 40 239 42 203 l 40 726 q 70 821 49 779 q 124 893 92 863 q 195 942 156 924 q 279 964 235 960 l 338 964 q 415 943 379 963 q 481 897 451 924 q 531 841 510 869 q 565 792 553 813 q 560 756 572 781 q 528 717 547 731 q 499 699 513 706 q 474 689 486 693 q 442 695 457 682 q 415 724 426 708 q 361 763 393 754 q 336 769 349 765 q 311 778 324 774 q 252 771 276 789 q 229 721 228 753 q 226 624 231 669 q 214 530 221 578 q 199 430 207 482 q 185 314 190 378 q 203 240 182 274 q 257 199 225 207 q 281 192 268 196 q 306 183 293 188 q 365 190 340 172 q 388 240 389 208 l 388 288 q 375 317 388 303 q 347 340 363 332 l 322 353 q 299 379 307 363 q 294 411 292 396 l 303 449 q 317 465 306 463 q 343 460 329 468 q 414 433 375 440 q 510 449 453 425 q 554 459 533 460 q 575 439 575 458 l 575 239 q 545 144 567 186 q 492 72 524 103 q 419 24 460 42 q 335 1 379 6 l 336 3 z "},"H":{"ha":706,"x_min":51,"x_max":650,"o":"m 193 78 q 183 28 194 50 q 151 6 171 6 l 97 6 q 65 20 78 7 q 51 51 51 33 l 51 931 q 66 963 53 950 q 97 976 79 976 l 151 976 q 189 960 171 976 q 214 924 207 944 q 236 818 229 867 q 244 726 243 769 q 242 643 246 683 q 232 563 238 603 q 240 536 229 547 q 267 522 251 525 q 314 508 292 517 q 358 492 336 500 q 400 481 379 485 q 442 481 421 476 q 470 499 457 483 q 486 532 483 515 q 506 693 497 604 q 508 906 514 782 q 519 956 507 933 q 550 978 531 978 l 604 978 q 637 963 624 976 q 650 932 650 950 l 650 53 q 635 20 649 33 q 603 7 622 7 l 549 7 q 511 23 529 7 q 488 60 493 39 q 460 205 465 142 q 458 326 454 268 q 448 350 460 342 q 419 360 436 358 q 374 367 396 361 q 330 380 351 374 q 288 392 308 386 q 244 399 267 397 q 217 386 229 400 q 201 353 204 372 q 192 226 194 294 q 194 72 190 158 l 193 78 z "},"I":{"ha":254,"x_min":51,"x_max":199,"o":"m 199 46 q 184 14 197 26 q 151 0 171 1 l 97 0 q 65 17 78 3 q 51 46 51 32 l 51 925 q 66 957 53 944 q 99 971 79 969 l 153 971 q 185 953 172 968 q 199 925 199 939 l 199 46 l 199 46 z "},"J":{"ha":575,"x_min":-8,"x_max":526,"o":"m 136 917 q 140 953 131 938 q 168 969 149 969 l 481 969 q 513 955 500 968 q 526 924 526 942 l 526 240 q 497 146 518 188 q 443 74 475 104 q 372 25 411 43 q 288 3 332 7 l 229 3 q 144 29 183 7 q 74 81 104 51 q 24 141 44 110 q -6 196 3 172 q -6 214 -8 203 q 4 238 -3 225 q 20 262 11 250 q 39 281 29 274 q 90 310 67 301 q 118 303 107 317 q 136 271 129 290 q 162 228 144 247 q 203 204 179 210 l 207 204 q 232 197 219 201 q 257 189 244 193 q 316 196 292 178 q 339 246 340 214 q 344 363 336 308 q 360 476 351 417 q 378 603 369 535 q 389 764 388 672 q 299 775 343 760 q 201 806 254 790 q 166 827 182 811 q 147 863 150 843 q 142 890 144 876 q 136 918 139 903 l 136 917 z "},"K":{"ha":586,"x_min":53,"x_max":589,"o":"m 197 79 l 193 75 q 184 25 196 47 q 153 3 172 3 l 99 3 q 66 17 79 4 q 53 49 53 31 l 53 928 q 67 960 54 947 q 100 974 81 974 l 154 974 q 191 957 174 974 q 214 918 208 940 q 240 747 238 819 q 236 610 243 675 q 238 592 233 594 q 251 601 243 590 q 292 653 274 626 q 327 713 311 679 q 356 794 343 747 q 379 907 368 840 q 398 954 382 933 q 433 975 414 975 l 500 975 q 527 957 519 974 q 528 917 535 940 q 453 681 492 785 q 372 529 414 576 q 360 499 364 518 q 360 464 357 481 q 387 360 365 411 q 438 256 408 308 q 505 151 468 204 q 579 40 542 97 q 581 10 589 22 q 554 -3 572 -3 l 488 -3 q 445 13 468 -3 q 408 50 422 28 q 326 215 356 136 q 281 365 296 294 q 268 389 276 385 q 253 381 260 393 q 211 293 232 344 q 199 242 204 274 q 193 186 193 211 q 194 132 193 160 q 196 74 194 104 l 197 79 z "},"L":{"ha":468,"x_min":51,"x_max":481,"o":"m 476 43 q 462 10 475 24 q 431 -3 449 -3 l 97 -3 q 65 12 78 -1 q 51 42 51 25 l 51 921 q 66 953 53 940 q 97 967 79 967 l 151 967 q 188 951 171 968 q 210 910 206 933 q 228 772 224 832 q 230 663 232 713 q 222 567 228 613 q 208 471 215 521 q 194 363 200 421 q 188 232 189 306 q 199 192 188 210 q 228 169 211 174 q 313 141 268 158 q 418 119 358 124 q 461 105 442 117 q 479 74 481 93 l 479 44 l 476 43 z "},"M":{"ha":772,"x_min":47,"x_max":713,"o":"m 186 69 q 176 19 188 40 q 144 -3 164 -3 l 94 -3 q 61 12 75 -1 q 47 44 47 25 l 47 924 q 62 956 49 943 q 94 969 75 969 l 149 969 q 192 955 168 969 q 228 919 215 940 q 334 700 304 799 q 368 513 364 601 q 376 493 369 497 q 390 500 382 489 q 435 565 414 529 q 476 648 457 600 q 510 758 494 696 q 538 901 526 819 q 558 949 542 929 q 592 969 574 969 l 667 969 q 699 955 686 968 q 713 924 713 942 l 713 44 q 698 11 711 25 q 667 -3 685 -3 l 613 -3 q 576 13 593 -3 q 551 51 558 29 q 524 174 532 118 q 518 281 517 231 q 526 378 519 331 q 542 479 533 426 q 541 495 544 494 q 529 481 538 496 q 470 389 499 428 q 418 306 442 350 q 397 288 411 293 q 368 290 383 283 q 342 301 354 296 q 317 310 329 306 q 290 329 301 315 q 276 363 279 343 q 275 364 276 364 q 264 456 268 413 q 250 539 260 499 q 242 553 247 554 q 235 538 238 553 q 219 445 228 493 q 204 341 211 397 q 194 218 197 285 q 194 71 192 151 l 186 69 z "},"N":{"ha":633,"x_min":53,"x_max":578,"o":"m 194 79 l 194 83 q 184 33 196 56 q 153 11 172 11 l 99 11 q 66 25 79 13 q 53 56 53 38 l 53 935 q 67 967 54 954 q 99 981 81 981 l 153 981 q 194 965 172 981 q 229 926 217 949 q 299 778 275 849 q 338 643 324 707 q 362 522 353 579 q 383 410 371 464 q 392 393 388 394 q 400 407 397 392 q 415 502 407 453 q 430 610 424 551 q 439 742 436 669 q 438 906 442 814 q 447 956 435 933 q 478 978 458 978 l 532 978 q 565 963 551 976 q 578 932 578 950 l 578 53 q 556 18 575 32 q 509 3 536 4 q 451 15 482 1 q 396 64 421 29 q 350 142 371 93 q 313 247 329 190 q 284 362 296 304 q 264 467 272 419 q 251 546 256 515 q 244 579 246 576 q 235 596 240 594 q 228 582 231 597 q 213 485 221 535 q 199 376 206 436 q 190 244 193 317 q 192 79 188 172 l 194 79 z "},"O":{"ha":619,"x_min":43,"x_max":578,"o":"m 281 0 q 185 35 228 10 q 112 93 143 60 q 63 165 81 126 q 43 239 44 203 l 43 726 q 73 821 51 779 q 126 893 94 863 q 198 942 158 924 q 282 964 238 960 l 340 964 q 435 929 392 954 q 509 871 478 904 q 558 799 540 838 q 578 725 576 760 l 578 238 q 548 143 569 185 q 494 71 526 101 q 423 22 463 40 q 339 0 383 4 l 281 0 m 229 724 q 226 626 231 672 q 214 533 221 581 q 199 433 207 485 q 185 317 190 381 q 203 243 182 276 q 257 201 225 210 q 281 194 268 199 q 306 186 293 190 q 365 193 340 175 q 388 243 389 211 q 391 340 386 294 q 403 434 396 386 q 419 534 411 482 q 433 650 428 586 q 415 724 436 690 q 361 765 393 757 q 336 772 349 768 q 311 781 324 776 q 252 774 276 792 q 229 724 228 756 z "},"P":{"ha":574,"x_min":56,"x_max":560,"o":"m 196 74 q 187 24 199 46 q 156 1 175 1 l 101 1 q 69 16 82 3 q 56 47 56 29 l 56 926 q 70 959 57 946 q 101 972 83 972 l 331 972 q 422 934 381 960 q 494 875 464 908 q 541 805 524 842 q 560 733 558 768 l 560 633 q 517 481 554 540 q 429 394 479 421 q 327 369 379 367 q 240 404 275 372 q 213 395 225 407 q 199 364 201 383 q 190 235 192 306 q 193 74 188 165 l 196 74 m 278 799 l 278 800 q 248 798 260 807 q 238 772 236 789 q 240 665 243 714 q 229 567 236 615 q 237 540 226 551 q 263 522 247 528 q 310 504 286 511 q 356 499 335 497 q 391 515 376 501 q 410 560 406 529 q 415 607 413 583 q 421 657 418 631 q 402 731 424 697 q 347 775 381 765 q 314 786 331 781 q 279 799 297 792 l 278 799 z "},"Q":{"ha":618,"x_min":38,"x_max":575,"o":"m 575 724 l 575 728 l 575 240 q 565 182 575 211 q 537 128 554 153 q 498 83 519 103 q 454 53 476 63 q 429 36 438 44 q 426 21 421 28 q 435 8 431 13 l 439 4 q 456 -17 447 -7 q 472 -39 464 -28 q 485 -75 488 -57 q 468 -104 483 -93 q 429 -133 450 -115 q 394 -140 415 -146 q 358 -110 374 -133 q 310 -28 332 -69 q 271 53 289 13 l 271 54 q 263 60 271 57 l 254 60 q 176 94 214 79 q 109 127 139 108 q 60 172 79 146 q 38 239 42 197 l 38 726 q 120 896 53 832 q 278 971 188 960 l 336 971 q 431 935 388 961 q 506 874 475 908 q 556 799 538 839 q 575 725 574 760 l 575 724 m 256 214 q 300 189 279 201 q 358 181 332 169 q 386 222 383 192 q 395 315 389 269 q 408 410 401 361 q 422 516 415 460 q 432 639 428 572 q 413 718 435 681 q 358 764 392 756 q 333 771 346 767 q 308 779 321 775 q 249 769 274 790 q 228 715 225 749 q 228 615 231 663 q 221 522 226 568 q 208 427 215 475 q 194 324 200 379 q 210 258 190 288 q 258 214 229 229 l 256 214 z "},"R":{"ha":586,"x_min":57,"x_max":563,"o":"m 197 74 q 188 24 200 46 q 157 1 176 1 l 103 1 q 70 16 83 3 q 57 47 57 29 l 57 926 q 72 959 58 946 q 103 972 85 972 l 332 972 q 424 934 382 960 q 495 875 465 908 q 542 805 525 842 q 561 733 560 768 l 561 633 q 550 558 563 597 q 517 483 538 518 q 472 421 497 447 q 419 385 446 394 q 394 365 403 378 q 392 336 386 351 q 453 197 413 268 q 535 46 494 125 q 535 15 543 28 q 507 3 526 3 l 444 3 q 403 19 425 3 q 371 58 382 35 q 308 215 331 142 q 275 354 286 289 q 261 387 272 372 q 236 404 250 401 q 213 395 224 407 q 199 364 201 383 q 190 235 192 306 q 193 74 188 165 l 197 74 m 279 799 l 279 800 q 249 798 261 807 q 239 772 238 789 q 241 665 244 714 q 231 567 238 615 q 238 540 228 551 q 264 522 249 528 q 312 504 288 511 q 357 499 336 497 q 392 515 378 501 q 411 560 407 529 q 417 607 414 583 q 422 657 419 631 q 403 731 425 697 q 349 775 382 765 q 315 786 332 781 q 281 799 299 792 l 279 799 z "},"S":{"ha":578,"x_min":21,"x_max":560,"o":"m 239 204 q 264 197 251 201 q 290 189 276 193 q 347 194 324 178 q 371 243 371 211 q 357 310 368 281 q 330 367 346 340 q 294 419 314 393 q 251 476 274 444 q 221 517 240 501 q 177 547 201 533 q 128 575 153 561 q 81 609 103 589 q 43 658 58 629 q 24 732 28 688 q 53 827 32 785 q 107 899 75 869 q 178 948 139 929 q 263 971 218 967 l 321 971 q 406 944 367 967 q 476 892 446 922 q 526 829 506 861 q 554 772 546 797 q 544 730 560 757 q 510 689 529 703 q 458 663 483 671 q 431 669 442 656 q 413 703 419 683 q 387 746 404 728 q 346 769 369 764 q 321 776 333 772 q 296 785 308 781 q 237 778 261 796 q 214 728 213 760 q 222 679 214 700 q 244 638 231 658 q 277 593 258 617 q 318 539 296 569 q 367 478 336 501 q 431 431 397 454 q 498 375 465 407 q 553 288 531 343 q 556 271 554 278 q 557 257 557 264 l 557 243 l 557 226 q 554 213 556 219 q 550 197 553 206 q 544 178 547 188 q 453 53 507 99 q 318 0 399 8 l 260 0 q 174 26 214 4 q 105 79 135 49 q 55 142 75 110 q 26 200 35 175 q 36 242 21 215 q 71 283 51 269 q 122 310 97 301 q 150 303 139 317 q 168 269 161 289 q 194 226 176 244 q 235 203 211 208 l 239 204 z "},"T":{"ha":519,"x_min":-10,"x_max":528,"o":"m -10 926 q 5 959 -8 946 q 36 972 18 972 l 482 972 q 515 958 501 971 q 528 926 528 944 l 528 872 q 514 829 528 854 q 481 793 500 804 q 431 772 454 778 q 386 764 408 765 q 360 747 371 763 q 349 711 349 732 q 338 590 346 643 q 322 490 331 536 q 305 399 313 443 q 294 306 297 356 q 297 197 292 256 q 318 61 301 138 q 315 19 324 38 q 288 1 307 1 l 233 1 q 199 24 214 1 q 181 74 183 46 q 173 236 172 165 q 180 363 174 307 q 196 466 186 419 q 214 558 206 513 q 226 649 222 603 q 226 754 231 696 q 210 790 225 772 q 176 813 196 807 q 119 824 149 819 q 56 831 90 829 q 10 842 31 831 q -10 872 -10 853 l -10 926 l -10 926 z "},"U":{"ha":628,"x_min":44,"x_max":579,"o":"m 336 1 l 282 1 q 187 36 229 11 q 113 94 144 61 q 64 166 82 128 q 44 240 46 204 l 44 924 q 59 956 46 943 q 90 969 72 969 l 144 969 q 182 953 164 969 q 206 914 200 936 q 233 744 229 817 q 228 607 236 672 q 208 474 221 542 q 189 315 196 406 q 208 242 186 275 q 261 200 229 208 q 286 193 274 197 q 311 185 299 189 q 370 192 346 174 q 393 242 394 210 q 400 377 390 314 q 420 513 410 440 q 438 676 431 585 q 439 896 446 767 q 448 946 436 924 q 479 968 460 968 l 533 968 q 566 953 553 967 q 579 922 579 940 l 579 239 q 549 144 571 186 q 496 72 528 103 q 424 24 464 42 q 340 1 385 6 l 336 1 z "},"V":{"ha":589,"x_min":-10,"x_max":589,"o":"m 369 58 q 361 19 372 36 q 331 1 350 1 l 239 1 q 201 24 219 1 q 176 74 183 46 q 153 263 163 181 q 135 414 144 346 q 116 540 126 482 q 90 658 106 599 q 51 783 74 718 q -6 929 28 847 q 1 962 -10 949 q 31 975 13 975 l 89 975 q 129 959 108 975 q 161 921 150 943 q 225 756 206 829 q 251 617 244 683 q 256 488 257 551 q 257 354 254 425 q 263 334 258 336 q 272 346 267 332 q 319 447 293 400 q 368 555 344 494 q 412 697 392 615 q 440 901 432 778 q 457 951 443 929 q 490 974 471 974 l 549 974 q 578 960 568 972 q 585 928 589 947 q 531 657 568 774 q 457 442 493 540 q 396 253 421 344 q 378 57 371 161 l 369 58 z "},"W":{"ha":908,"x_min":-10,"x_max":903,"o":"m 867 972 l 863 972 q 892 958 882 971 q 899 926 903 946 q 844 672 885 789 q 764 449 804 554 q 697 247 724 344 q 686 50 671 149 q 681 15 689 31 q 653 -1 672 -1 l 561 -1 q 518 18 542 -1 q 482 63 494 38 q 428 205 444 142 q 408 321 411 268 q 403 339 407 338 q 394 325 400 340 q 370 215 378 276 q 369 68 363 153 q 362 19 372 40 q 332 -3 351 -3 l 240 -3 q 203 18 221 -3 q 179 67 185 39 q 163 249 171 168 q 146 397 156 329 q 124 526 136 465 q 94 649 111 588 q 52 777 76 710 q -6 925 28 844 q 1 958 -10 944 q 31 971 13 971 l 89 971 q 131 956 108 971 q 165 922 153 942 q 244 770 217 839 q 281 638 271 701 q 288 513 290 575 q 281 379 286 450 q 285 361 281 361 q 297 378 290 361 q 325 437 311 410 q 354 489 339 464 q 364 506 356 492 q 383 538 372 519 q 405 576 394 557 q 422 611 415 596 q 437 624 428 621 q 457 624 446 628 q 492 611 475 617 q 525 600 508 606 q 546 567 549 593 q 538 481 543 522 q 529 400 532 440 q 529 353 528 376 q 535 306 531 331 q 542 289 538 290 q 553 303 547 288 q 606 415 575 357 q 668 542 638 472 q 724 701 699 613 q 761 904 750 789 q 779 952 764 932 q 814 972 794 972 l 872 972 l 867 972 z "},"X":{"ha":651,"x_min":-4,"x_max":653,"o":"m 50 3 q 24 17 31 4 q 25 49 17 29 q 76 180 50 114 q 130 304 103 246 q 185 409 157 363 q 240 482 213 456 q 254 510 250 493 q 254 543 258 528 q 220 637 246 590 q 160 731 194 683 q 86 829 126 779 q 7 932 46 879 q 3 960 -4 949 q 29 972 11 972 l 100 972 q 144 958 119 972 q 183 925 168 944 q 281 772 243 846 q 339 632 319 699 q 353 610 344 615 q 371 617 363 606 q 433 731 404 660 q 488 907 461 803 q 512 952 494 933 q 549 971 529 971 l 619 971 q 646 959 639 969 q 644 929 653 949 q 588 788 617 860 q 528 653 558 717 q 467 540 499 589 q 404 465 435 490 q 390 437 394 454 q 390 404 386 419 q 424 317 400 361 q 479 228 447 274 q 548 137 511 183 q 621 42 585 90 q 626 13 632 25 q 601 1 619 1 l 531 1 q 487 16 511 1 q 447 51 463 31 q 362 186 396 121 q 308 311 328 251 q 294 333 303 329 q 276 325 285 338 q 182 65 224 244 q 158 19 175 39 q 121 0 140 0 l 50 0 l 50 3 z "},"Y":{"ha":626,"x_min":-18,"x_max":644,"o":"m 325 649 q 341 626 332 631 q 360 633 350 622 q 419 744 392 675 q 474 908 447 813 q 499 953 481 935 q 536 972 517 972 l 611 972 q 638 960 631 971 q 635 931 644 950 q 577 792 607 863 q 517 660 547 722 q 454 550 486 599 q 392 478 422 501 q 372 451 381 467 q 360 421 363 435 q 346 347 351 385 q 340 267 340 310 q 345 174 339 225 q 368 60 351 122 q 367 17 375 36 q 340 -1 360 -1 l 286 -1 q 250 21 267 -1 q 231 71 233 43 q 221 199 222 142 q 223 303 219 256 q 233 390 226 350 q 249 465 240 429 q 251 501 251 481 q 246 538 251 522 q 212 633 238 585 q 151 729 186 681 q 74 828 115 778 q -7 931 33 878 q -10 959 -18 947 q 15 971 -3 971 l 86 971 q 131 957 106 971 q 171 924 156 943 q 322 650 282 779 l 325 649 z "},"Z":{"ha":685,"x_min":-8,"x_max":692,"o":"m 107 926 q 110 960 101 946 q 139 974 119 974 l 660 974 q 685 962 679 972 q 682 932 692 951 q 627 803 656 867 q 569 683 599 740 q 509 578 539 625 q 449 500 479 531 q 389 441 418 464 q 332 395 360 418 q 278 340 304 372 q 231 254 253 308 q 228 222 222 236 q 249 204 233 207 q 372 178 308 196 q 517 149 435 160 q 558 132 539 146 q 579 100 576 118 q 585 75 582 88 q 590 49 588 63 q 585 15 594 29 q 557 1 576 1 l 24 1 q -2 13 4 3 q 1 43 -8 24 q 56 172 28 108 q 115 293 85 236 q 175 397 144 350 q 236 475 206 444 q 296 534 267 511 q 353 581 325 557 q 406 637 381 604 q 454 726 432 669 q 457 760 463 746 q 436 778 451 775 q 319 801 379 785 q 183 829 258 818 q 144 846 163 832 q 121 879 125 860 q 115 902 118 890 q 110 925 113 914 l 107 926 z "},"[":{"ha":443,"x_min":56,"x_max":428,"o":"m 382 781 q 322 761 350 760 q 264 774 293 763 l 264 769 q 236 767 247 776 q 226 740 225 758 q 224 603 231 663 q 210 485 218 543 q 194 359 201 426 q 188 197 188 292 q 200 156 188 175 q 229 131 213 136 q 293 107 260 119 q 367 90 326 94 q 409 76 390 88 q 426 44 428 64 l 426 28 q 412 -5 425 8 q 381 -18 399 -18 l 101 -18 q 69 -2 82 -15 q 56 28 56 11 l 56 907 q 70 940 57 926 q 101 953 83 953 l 381 953 q 413 937 400 950 q 426 907 426 924 l 426 869 q 413 823 426 851 q 381 782 399 794 l 382 781 z "},"]":{"ha":444,"x_min":13,"x_max":383,"o":"m 338 961 q 370 945 357 958 q 383 915 383 932 l 383 36 q 369 3 382 17 q 338 -10 356 -10 l 58 -10 q 26 6 39 -7 q 13 36 13 19 l 13 53 q 26 97 13 71 q 58 135 40 124 q 119 153 90 154 q 179 143 149 153 q 207 147 196 138 q 217 176 218 157 q 216 319 211 258 q 228 438 221 379 q 244 560 236 496 q 253 715 253 625 q 241 756 253 736 q 213 782 229 775 q 150 809 183 794 q 75 828 117 824 q 33 842 51 831 q 14 872 14 853 l 14 910 q 28 942 15 929 q 61 956 42 956 q 201 954 132 956 q 342 954 271 953 l 342 958 l 338 961 z "},"a":{"ha":611,"x_min":1,"x_max":617,"o":"m 219 296 q 190 282 204 297 q 172 243 176 267 q 160 165 165 207 q 150 76 154 124 q 133 26 147 49 q 100 4 119 4 l 42 4 q 12 18 22 6 q 6 50 1 31 q 38 238 17 153 q 85 396 60 322 q 135 534 110 469 q 181 661 161 599 q 210 787 200 724 q 217 919 221 850 q 225 959 214 942 q 256 976 236 976 l 364 976 q 401 954 383 976 q 426 904 419 932 q 449 715 440 797 q 468 564 458 632 q 488 438 478 496 q 515 319 499 379 q 555 194 532 260 q 613 49 578 129 q 606 16 617 29 q 576 3 594 3 l 518 3 q 478 19 499 3 q 446 57 457 35 q 375 236 397 154 q 355 266 369 254 q 325 281 340 278 q 274 287 300 283 q 219 292 249 290 l 219 296 m 347 650 q 340 672 344 669 q 332 658 336 674 q 290 559 314 601 q 243 468 267 517 q 242 442 236 454 q 264 425 249 429 q 290 418 278 422 q 315 411 303 414 q 340 418 331 408 q 350 443 350 428 q 351 542 350 492 q 347 650 353 592 z "},"b":{"ha":649,"x_min":51,"x_max":628,"o":"m 438 14 l 438 13 q 397 2 422 6 q 351 -1 371 -1 l 97 -1 q 65 13 78 0 q 51 44 51 26 l 51 924 q 66 956 53 943 q 97 969 79 969 l 343 969 q 435 938 393 965 q 508 870 478 910 q 554 784 539 831 q 567 696 569 738 l 567 675 q 551 602 564 639 q 519 535 539 565 q 506 500 507 515 q 519 476 506 485 q 558 454 539 467 q 593 425 578 442 q 618 386 608 408 q 628 335 628 364 l 628 272 q 606 183 624 224 q 560 112 588 143 q 501 58 533 81 q 439 18 469 35 l 438 14 m 386 424 q 356 447 375 438 q 322 460 336 457 q 289 467 306 464 q 254 471 272 471 q 225 459 239 472 q 208 429 211 446 q 199 348 203 390 q 192 256 194 306 q 202 218 190 233 q 229 201 214 203 q 275 196 253 200 q 321 185 297 192 q 400 197 367 172 q 433 264 433 221 q 433 290 433 278 q 435 315 433 303 q 423 372 438 344 q 388 422 408 399 l 386 424 m 275 801 q 244 797 257 807 q 235 771 232 788 q 238 695 239 731 q 235 625 238 660 q 245 600 233 610 q 274 588 257 590 q 331 578 303 581 q 380 580 358 575 q 415 601 401 585 q 433 647 429 617 l 433 668 q 417 736 436 704 q 368 776 397 768 q 325 790 347 783 q 279 804 303 797 l 275 801 z "},"c":{"ha":579,"x_min":36,"x_max":575,"o":"m 328 6 l 332 1 l 274 1 q 178 36 221 11 q 105 95 136 61 q 56 167 74 129 q 36 242 38 206 l 36 729 q 66 824 44 782 q 119 896 88 865 q 191 944 151 926 q 275 968 231 963 l 333 968 q 411 946 375 965 q 476 901 447 926 q 527 847 506 875 q 561 801 549 819 q 563 786 565 796 q 556 765 561 776 q 542 743 550 754 q 524 725 533 732 q 469 694 497 706 q 438 701 453 688 q 411 729 422 714 q 358 767 389 758 q 335 774 347 769 q 310 782 322 778 q 252 775 276 793 q 229 725 228 757 q 226 628 231 674 q 214 535 221 582 q 199 436 207 488 q 185 321 190 385 q 203 247 182 281 q 257 206 225 214 q 282 199 269 203 q 307 190 294 194 q 374 201 349 176 q 401 217 385 211 q 440 221 418 224 q 510 218 475 217 q 556 211 538 221 q 567 181 575 201 q 471 56 526 100 q 335 3 415 11 l 328 6 z "},"d":{"ha":640,"x_min":54,"x_max":601,"o":"m 451 24 l 447 24 q 410 6 433 13 q 367 0 386 0 l 100 0 q 67 15 81 1 q 54 46 54 28 l 54 925 q 69 958 56 944 q 100 971 82 971 l 338 971 q 444 923 396 954 q 526 854 492 892 q 579 774 560 817 q 601 692 599 732 l 601 263 q 584 183 599 219 q 547 118 569 147 q 499 65 525 89 q 449 24 472 42 l 451 24 m 454 618 q 451 672 457 644 q 430 721 444 699 q 395 760 415 743 q 351 783 375 776 q 285 804 319 793 q 254 800 267 810 q 244 774 242 790 q 245 649 250 706 q 231 532 240 592 q 211 405 221 472 q 197 249 201 338 q 208 210 196 226 q 235 193 219 194 q 297 182 263 192 q 378 196 344 171 q 411 265 411 221 q 416 351 411 310 q 427 433 421 392 q 441 520 433 475 q 454 618 449 565 z "},"e":{"ha":454,"x_min":56,"x_max":424,"o":"m 422 42 q 408 9 421 22 q 376 -4 394 -4 l 101 -4 q 69 12 82 -1 q 56 42 56 25 l 56 921 q 70 953 57 940 q 101 967 83 967 l 376 967 q 409 951 396 964 q 422 921 422 938 l 422 871 q 408 824 422 853 q 376 782 394 794 q 317 763 344 761 q 263 775 290 764 q 236 774 247 782 q 226 747 225 765 q 227 668 229 704 q 222 599 225 632 q 230 565 221 585 q 253 532 239 546 q 277 511 265 521 q 302 497 289 501 q 331 493 315 492 q 364 506 346 494 q 403 525 385 518 q 422 514 422 532 l 422 460 q 416 437 422 450 q 401 411 410 424 q 380 390 392 399 q 357 378 368 381 q 289 385 317 367 q 238 426 261 403 q 213 440 224 442 q 199 422 201 438 q 192 340 194 383 q 189 242 189 296 q 201 201 189 221 q 229 174 213 181 q 290 147 257 161 q 363 129 322 133 q 405 115 386 126 q 424 83 424 103 l 424 42 l 422 42 z "},"f":{"ha":439,"x_min":57,"x_max":424,"o":"m 197 72 l 197 68 q 188 18 200 40 q 157 -4 176 -4 l 103 -4 q 70 12 83 -1 q 57 42 57 25 l 57 921 q 72 953 58 940 q 103 967 85 967 l 378 967 q 410 951 397 964 q 424 921 424 938 l 424 871 q 410 824 424 853 q 378 782 396 794 q 319 763 346 761 q 264 775 292 764 q 238 774 249 782 q 228 747 226 765 q 228 668 231 704 q 224 599 226 632 q 231 565 222 585 q 254 532 240 546 q 278 511 267 521 q 303 497 290 501 q 332 493 317 492 q 365 506 347 494 q 405 525 386 518 q 424 514 424 532 l 424 460 q 417 437 424 450 q 402 411 411 424 q 381 390 393 399 q 358 378 369 381 q 290 385 318 367 q 239 426 263 403 q 214 440 225 442 q 200 422 203 438 q 190 276 193 357 q 194 75 186 194 l 197 72 z "},"g":{"ha":606,"x_min":42,"x_max":576,"o":"m 338 3 l 338 0 l 279 0 q 184 35 226 10 q 110 93 142 60 q 61 165 79 126 q 42 239 43 203 l 42 726 q 72 821 50 779 q 125 893 93 863 q 197 942 157 924 q 281 964 236 960 l 339 964 q 417 943 381 963 q 482 897 453 924 q 533 841 511 869 q 567 792 554 813 q 561 756 574 781 q 529 717 549 731 q 501 699 514 706 q 475 689 488 693 q 443 695 458 682 q 417 724 428 708 q 363 763 394 754 q 338 769 350 765 q 313 778 325 774 q 253 771 278 789 q 231 721 229 753 q 227 624 232 669 q 215 530 222 578 q 200 430 208 482 q 186 314 192 378 q 205 240 183 274 q 258 199 226 207 q 282 192 269 196 q 307 183 294 188 q 366 190 342 172 q 389 240 390 208 l 389 288 q 376 317 389 303 q 349 340 364 332 l 324 353 q 301 379 308 363 q 296 411 293 396 l 304 449 q 319 465 307 463 q 344 460 331 468 q 415 433 376 440 q 511 449 454 425 q 556 459 535 460 q 576 439 576 458 l 576 239 q 547 144 568 186 q 493 72 525 103 q 421 24 461 42 q 336 1 381 6 l 338 3 z "},"h":{"ha":706,"x_min":51,"x_max":650,"o":"m 193 78 q 183 28 194 50 q 151 6 171 6 l 97 6 q 65 20 78 7 q 51 51 51 33 l 51 931 q 66 963 53 950 q 97 976 79 976 l 151 976 q 189 960 171 976 q 214 924 207 944 q 236 818 229 867 q 244 726 243 769 q 242 643 246 683 q 232 563 238 603 q 240 536 229 547 q 267 522 251 525 q 314 508 292 517 q 358 492 336 500 q 400 481 379 485 q 442 481 421 476 q 470 499 457 483 q 486 532 483 515 q 506 693 497 604 q 508 906 514 782 q 519 956 507 933 q 550 978 531 978 l 604 978 q 637 963 624 976 q 650 932 650 950 l 650 53 q 635 20 649 33 q 603 7 622 7 l 549 7 q 511 23 529 7 q 488 60 493 39 q 460 205 465 142 q 458 326 454 268 q 448 350 460 342 q 419 360 436 358 q 374 367 396 361 q 330 380 351 374 q 288 392 308 386 q 244 399 267 397 q 217 386 229 400 q 201 353 204 372 q 192 226 194 294 q 194 72 190 158 l 193 78 z "},"i":{"ha":254,"x_min":51,"x_max":199,"o":"m 199 46 q 184 14 197 26 q 151 0 171 1 l 97 0 q 65 17 78 3 q 51 46 51 32 l 51 925 q 66 957 53 944 q 99 971 79 969 l 153 971 q 185 953 172 968 q 199 925 199 939 l 199 46 l 199 46 z "},"j":{"ha":576,"x_min":-8,"x_max":526,"o":"m 136 917 q 140 953 131 938 q 168 969 149 969 l 481 969 q 513 955 500 968 q 526 924 526 942 l 526 240 q 497 146 518 188 q 443 74 475 104 q 372 25 411 43 q 288 3 332 7 l 229 3 q 144 29 183 7 q 74 81 104 51 q 24 141 44 110 q -6 196 3 172 q -6 214 -8 203 q 4 238 -3 225 q 20 262 11 250 q 39 281 29 274 q 90 310 67 301 q 118 303 107 317 q 136 271 129 290 q 162 228 144 247 q 203 204 179 210 l 207 204 q 232 197 219 201 q 257 189 244 193 q 316 196 292 178 q 339 246 340 214 q 344 363 336 308 q 360 476 351 417 q 378 603 369 535 q 389 764 388 672 q 299 775 343 760 q 201 806 254 790 q 166 827 182 811 q 147 863 150 843 q 142 890 144 876 q 136 918 139 903 l 136 917 z "},"k":{"ha":588,"x_min":54,"x_max":590,"o":"m 199 79 l 194 75 q 185 25 197 47 q 154 3 174 3 l 100 3 q 67 17 81 4 q 54 49 54 31 l 54 928 q 69 960 56 947 q 101 974 82 974 l 156 974 q 192 957 175 974 q 215 918 210 940 q 242 747 239 819 q 238 610 244 675 q 240 592 235 594 q 253 601 244 590 q 294 653 275 626 q 328 713 313 679 q 357 794 344 747 q 381 907 369 840 q 399 954 383 933 q 435 975 415 975 l 501 975 q 528 957 521 974 q 529 917 536 940 q 454 681 493 785 q 374 529 415 576 q 362 499 365 518 q 361 464 358 481 q 388 360 367 411 q 440 256 410 308 q 506 151 469 204 q 581 40 543 97 q 582 10 590 22 q 556 -3 574 -3 l 489 -3 q 447 13 469 -3 q 410 50 424 28 q 327 215 357 136 q 282 365 297 294 q 269 389 278 385 q 254 381 261 393 q 213 293 233 344 q 200 242 206 274 q 194 186 194 211 q 195 132 194 160 q 197 74 196 104 l 199 79 z "},"l":{"ha":469,"x_min":53,"x_max":482,"o":"m 478 43 q 463 10 476 24 q 432 -3 450 -3 l 99 -3 q 66 12 79 -1 q 53 42 53 25 l 53 921 q 67 953 54 940 q 99 967 81 967 l 153 967 q 190 951 172 968 q 211 910 207 933 q 229 772 225 832 q 231 663 233 713 q 223 567 229 613 q 209 471 217 521 q 196 363 201 421 q 189 232 190 306 q 201 192 189 210 q 229 169 213 174 q 315 141 269 158 q 419 119 360 124 q 463 105 443 117 q 481 74 482 93 l 481 44 l 478 43 z "},"m":{"ha":775,"x_min":49,"x_max":714,"o":"m 188 69 q 177 19 189 40 q 146 -3 165 -3 l 96 -3 q 63 12 76 -1 q 49 44 49 25 l 49 924 q 63 956 50 943 q 96 969 76 969 l 150 969 q 193 955 169 969 q 229 919 217 940 q 335 700 306 799 q 369 513 365 601 q 377 493 371 497 q 392 500 383 489 q 437 565 415 529 q 477 648 458 600 q 512 758 496 696 q 539 901 528 819 q 559 949 543 929 q 593 969 575 969 l 668 969 q 701 955 688 968 q 714 924 714 942 l 714 44 q 699 11 713 25 q 668 -3 686 -3 l 614 -3 q 577 13 594 -3 q 553 51 560 29 q 526 174 533 118 q 519 281 518 231 q 528 378 521 331 q 543 479 535 426 q 542 495 546 494 q 531 481 539 496 q 472 389 500 428 q 419 306 443 350 q 399 288 413 293 q 369 290 385 283 q 343 301 356 296 q 318 310 331 306 q 292 329 303 315 q 278 363 281 343 q 276 364 278 364 q 265 456 269 413 q 251 539 261 499 q 244 553 249 554 q 236 538 239 553 q 221 445 229 493 q 206 341 213 397 q 196 218 199 285 q 196 71 193 151 l 188 69 z "},"n":{"ha":633,"x_min":53,"x_max":578,"o":"m 194 79 l 194 83 q 184 33 196 56 q 153 11 172 11 l 99 11 q 66 25 79 13 q 53 56 53 38 l 53 935 q 67 967 54 954 q 99 981 81 981 l 153 981 q 194 965 172 981 q 229 926 217 949 q 299 778 275 849 q 338 643 324 707 q 362 522 353 579 q 383 410 371 464 q 392 393 388 394 q 400 407 397 392 q 415 502 407 453 q 430 610 424 551 q 439 742 436 669 q 438 906 442 814 q 447 956 435 933 q 478 978 458 978 l 532 978 q 565 963 551 976 q 578 932 578 950 l 578 53 q 556 18 575 32 q 509 3 536 4 q 451 15 482 1 q 396 64 421 29 q 350 142 371 93 q 313 247 329 190 q 284 362 296 304 q 264 467 272 419 q 251 546 256 515 q 244 579 246 576 q 235 596 240 594 q 228 582 231 597 q 213 485 221 535 q 199 376 206 436 q 190 244 193 317 q 192 79 188 172 l 194 79 z "},"o":{"ha":619,"x_min":43,"x_max":578,"o":"m 281 0 q 185 35 228 10 q 112 93 143 60 q 63 165 81 126 q 43 239 44 203 l 43 726 q 73 821 51 779 q 126 893 94 863 q 198 942 158 924 q 282 964 238 960 l 340 964 q 435 929 392 954 q 509 871 478 904 q 558 799 540 838 q 578 725 576 760 l 578 238 q 548 143 569 185 q 494 71 526 101 q 423 22 463 40 q 339 0 383 4 l 281 0 m 229 724 q 226 626 231 672 q 214 533 221 581 q 199 433 207 485 q 185 317 190 381 q 203 243 182 276 q 257 201 225 210 q 281 194 268 199 q 306 186 293 190 q 365 193 340 175 q 388 243 389 211 q 391 340 386 294 q 403 434 396 386 q 419 534 411 482 q 433 650 428 586 q 415 724 436 690 q 361 765 393 757 q 336 772 349 768 q 311 781 324 776 q 252 774 276 792 q 229 724 228 756 z "},"p":{"ha":574,"x_min":56,"x_max":560,"o":"m 196 74 q 187 24 199 46 q 156 1 175 1 l 101 1 q 69 16 82 3 q 56 47 56 29 l 56 926 q 70 959 57 946 q 101 972 83 972 l 331 972 q 422 934 381 960 q 494 875 464 908 q 541 805 524 842 q 560 733 558 768 l 560 633 q 517 481 554 540 q 429 394 479 421 q 327 369 379 367 q 240 404 275 372 q 213 395 225 407 q 199 364 201 383 q 190 235 192 306 q 193 74 188 165 l 196 74 m 278 799 l 278 800 q 248 798 260 807 q 238 772 236 789 q 240 665 243 714 q 229 567 236 615 q 237 540 226 551 q 263 522 247 528 q 310 504 286 511 q 356 499 335 497 q 391 515 376 501 q 410 560 406 529 q 415 607 413 583 q 421 657 418 631 q 402 731 424 697 q 347 775 381 765 q 314 786 331 781 q 279 799 297 792 l 278 799 z "},"q":{"ha":619,"x_min":38,"x_max":575,"o":"m 575 724 l 575 728 l 575 240 q 565 182 575 211 q 537 128 554 153 q 498 83 519 103 q 454 53 476 63 q 429 36 438 44 q 426 21 421 28 q 435 8 431 13 l 439 4 q 456 -17 447 -7 q 472 -39 464 -28 q 485 -75 488 -57 q 468 -104 483 -93 q 429 -133 450 -115 q 394 -140 415 -146 q 358 -110 374 -133 q 310 -28 332 -69 q 271 53 289 13 l 271 54 q 263 60 271 57 l 254 60 q 176 94 214 79 q 109 127 139 108 q 60 172 79 146 q 38 239 42 197 l 38 726 q 120 896 53 832 q 278 971 188 960 l 336 971 q 431 935 388 961 q 506 874 475 908 q 556 799 538 839 q 575 725 574 760 l 575 724 m 256 214 q 300 189 279 201 q 358 181 332 169 q 386 222 383 192 q 395 315 389 269 q 408 410 401 361 q 422 516 415 460 q 432 639 428 572 q 413 718 435 681 q 358 764 392 756 q 333 771 346 767 q 308 779 321 775 q 249 769 274 790 q 228 715 225 749 q 228 615 231 663 q 221 522 226 568 q 208 427 215 475 q 194 324 200 379 q 210 258 190 288 q 258 214 229 229 l 256 214 z "},"r":{"ha":586,"x_min":57,"x_max":563,"o":"m 197 74 q 188 24 200 46 q 157 1 176 1 l 103 1 q 70 16 83 3 q 57 47 57 29 l 57 926 q 72 959 58 946 q 103 972 85 972 l 332 972 q 424 934 382 960 q 495 875 465 908 q 542 805 525 842 q 561 733 560 768 l 561 633 q 550 558 563 597 q 517 483 538 518 q 472 421 497 447 q 419 385 446 394 q 394 365 403 378 q 392 336 386 351 q 453 197 413 268 q 535 46 494 125 q 535 15 543 28 q 507 3 526 3 l 444 3 q 403 19 425 3 q 371 58 382 35 q 308 215 331 142 q 275 354 286 289 q 261 387 272 372 q 236 404 250 401 q 213 395 224 407 q 199 364 201 383 q 190 235 192 306 q 193 74 188 165 l 197 74 m 279 799 l 279 800 q 249 798 261 807 q 239 772 238 789 q 241 665 244 714 q 231 567 238 615 q 238 540 228 551 q 264 522 249 528 q 312 504 288 511 q 357 499 336 497 q 392 515 378 501 q 411 560 407 529 q 417 607 414 583 q 422 657 419 631 q 403 731 425 697 q 349 775 382 765 q 315 786 332 781 q 281 799 299 792 l 279 799 z "},"s":{"ha":578,"x_min":21,"x_max":560,"o":"m 239 204 q 264 197 251 201 q 290 189 276 193 q 347 194 324 178 q 371 243 371 211 q 357 310 368 281 q 330 367 346 340 q 294 419 314 393 q 251 476 274 444 q 221 517 240 501 q 177 547 201 533 q 128 575 153 561 q 81 609 103 589 q 43 658 58 629 q 24 732 28 688 q 53 827 32 785 q 107 899 75 869 q 178 948 139 929 q 263 971 218 967 l 321 971 q 406 944 367 967 q 476 892 446 922 q 526 829 506 861 q 554 772 546 797 q 544 730 560 757 q 510 689 529 703 q 458 663 483 671 q 431 669 442 656 q 413 703 419 683 q 387 746 404 728 q 346 769 369 764 q 321 776 333 772 q 296 785 308 781 q 237 778 261 796 q 214 728 213 760 q 222 679 214 700 q 244 638 231 658 q 277 593 258 617 q 318 539 296 569 q 367 478 336 501 q 431 431 397 454 q 498 375 465 407 q 553 288 531 343 q 556 271 554 278 q 557 257 557 264 l 557 243 l 557 226 q 554 213 556 219 q 550 197 553 206 q 544 178 547 188 q 453 53 507 99 q 318 0 399 8 l 260 0 q 174 26 214 4 q 105 79 135 49 q 55 142 75 110 q 26 200 35 175 q 36 242 21 215 q 71 283 51 269 q 122 310 97 301 q 150 303 139 317 q 168 269 161 289 q 194 226 176 244 q 235 203 211 208 l 239 204 z "},"t":{"ha":519,"x_min":-10,"x_max":528,"o":"m -10 926 q 5 959 -8 946 q 36 972 18 972 l 482 972 q 515 958 501 971 q 528 926 528 944 l 528 872 q 514 829 528 854 q 481 793 500 804 q 431 772 454 778 q 386 764 408 765 q 360 747 371 763 q 349 711 349 732 q 338 590 346 643 q 322 490 331 536 q 305 399 313 443 q 294 306 297 356 q 297 197 292 256 q 318 61 301 138 q 315 19 324 38 q 288 1 307 1 l 233 1 q 199 24 214 1 q 181 74 183 46 q 173 236 172 165 q 180 363 174 307 q 196 466 186 419 q 214 558 206 513 q 226 649 222 603 q 226 754 231 696 q 210 790 225 772 q 176 813 196 807 q 119 824 149 819 q 56 831 90 829 q 10 842 31 831 q -10 872 -10 853 l -10 926 l -10 926 z "},"u":{"ha":629,"x_min":44,"x_max":579,"o":"m 336 1 l 282 1 q 187 36 229 11 q 113 94 144 61 q 64 166 82 128 q 44 240 46 204 l 44 924 q 59 956 46 943 q 90 969 72 969 l 144 969 q 182 953 164 969 q 206 914 200 936 q 233 744 229 817 q 228 607 236 672 q 208 474 221 542 q 189 315 196 406 q 208 242 186 275 q 261 200 229 208 q 286 193 274 197 q 311 185 299 189 q 370 192 346 174 q 393 242 394 210 q 400 377 390 314 q 420 513 410 440 q 438 676 431 585 q 439 896 446 767 q 448 946 436 924 q 479 968 460 968 l 533 968 q 566 953 553 967 q 579 922 579 940 l 579 239 q 549 144 571 186 q 496 72 528 103 q 424 24 464 42 q 340 1 385 6 l 336 1 z "},"v":{"ha":589,"x_min":-10,"x_max":589,"o":"m 369 58 q 361 19 372 36 q 331 1 350 1 l 239 1 q 201 24 219 1 q 176 74 183 46 q 153 263 163 181 q 135 414 144 346 q 116 540 126 482 q 90 658 106 599 q 51 783 74 718 q -6 929 28 847 q 1 962 -10 949 q 31 975 13 975 l 89 975 q 129 959 108 975 q 161 921 150 943 q 225 756 206 829 q 251 617 244 683 q 256 488 257 551 q 257 354 254 425 q 263 334 258 336 q 272 346 267 332 q 319 447 293 400 q 368 555 344 494 q 412 697 392 615 q 440 901 432 778 q 457 951 443 929 q 490 974 471 974 l 549 974 q 578 960 568 972 q 585 928 589 947 q 531 657 568 774 q 457 442 493 540 q 396 253 421 344 q 378 57 371 161 l 369 58 z "},"w":{"ha":908,"x_min":-10,"x_max":903,"o":"m 867 972 l 863 972 q 892 958 882 971 q 899 926 903 946 q 844 672 885 789 q 764 449 804 554 q 697 247 724 344 q 686 50 671 149 q 681 15 689 31 q 653 -1 672 -1 l 561 -1 q 518 18 542 -1 q 482 63 494 38 q 428 205 444 142 q 408 321 411 268 q 403 339 407 338 q 394 325 400 340 q 370 215 378 276 q 369 68 363 153 q 362 19 372 40 q 332 -3 351 -3 l 240 -3 q 203 18 221 -3 q 179 67 185 39 q 163 249 171 168 q 146 397 156 329 q 124 526 136 465 q 94 649 111 588 q 52 777 76 710 q -6 925 28 844 q 1 958 -10 944 q 31 971 13 971 l 89 971 q 131 956 108 971 q 165 922 153 942 q 244 770 217 839 q 281 638 271 701 q 288 513 290 575 q 281 379 286 450 q 285 361 281 361 q 297 378 290 361 q 325 437 311 410 q 354 489 339 464 q 364 506 356 492 q 383 538 372 519 q 405 576 394 557 q 422 611 415 596 q 437 624 428 621 q 457 624 446 628 q 492 611 475 617 q 525 600 508 606 q 546 567 549 593 q 538 481 543 522 q 529 400 532 440 q 529 353 528 376 q 535 306 531 331 q 542 289 538 290 q 553 303 547 288 q 606 415 575 357 q 668 542 638 472 q 724 701 699 613 q 761 904 750 789 q 779 952 764 932 q 814 972 794 972 l 872 972 l 867 972 z "},"x":{"ha":651,"x_min":-4,"x_max":653,"o":"m 50 3 q 24 17 31 4 q 25 49 17 29 q 76 180 50 114 q 130 304 103 246 q 185 409 157 363 q 240 482 213 456 q 254 510 250 493 q 254 543 258 528 q 220 637 246 590 q 160 731 194 683 q 86 829 126 779 q 7 932 46 879 q 3 960 -4 949 q 29 972 11 972 l 100 972 q 144 958 119 972 q 183 925 168 944 q 281 772 243 846 q 339 632 319 699 q 353 610 344 615 q 371 617 363 606 q 433 731 404 660 q 488 907 461 803 q 512 952 494 933 q 549 971 529 971 l 619 971 q 646 959 639 969 q 644 929 653 949 q 588 788 617 860 q 528 653 558 717 q 467 540 499 589 q 404 465 435 490 q 390 437 394 454 q 390 404 386 419 q 424 317 400 361 q 479 228 447 274 q 548 137 511 183 q 621 42 585 90 q 626 13 632 25 q 601 1 619 1 l 531 1 q 487 16 511 1 q 447 51 463 31 q 362 186 396 121 q 308 311 328 251 q 294 333 303 329 q 276 325 285 338 q 182 65 224 244 q 158 19 175 39 q 121 0 140 0 l 50 0 l 50 3 z "},"y":{"ha":626,"x_min":-18,"x_max":644,"o":"m 325 649 q 341 626 332 631 q 360 633 350 622 q 419 744 392 675 q 474 908 447 813 q 499 953 481 935 q 536 972 517 972 l 611 972 q 638 960 631 971 q 635 931 644 950 q 577 792 607 863 q 517 660 547 722 q 454 550 486 599 q 392 478 422 501 q 372 451 381 467 q 360 421 363 435 q 346 347 351 385 q 340 267 340 310 q 345 174 339 225 q 368 60 351 122 q 367 17 375 36 q 340 -1 360 -1 l 286 -1 q 250 21 267 -1 q 231 71 233 43 q 221 199 222 142 q 223 303 219 256 q 233 390 226 350 q 249 465 240 429 q 251 501 251 481 q 246 538 251 522 q 212 633 238 585 q 151 729 186 681 q 74 828 115 778 q -7 931 33 878 q -10 959 -18 947 q 15 971 -3 971 l 86 971 q 131 957 106 971 q 171 924 156 943 q 322 650 282 779 l 325 649 z "},"z":{"ha":685,"x_min":-8,"x_max":692,"o":"m 107 926 q 110 960 101 946 q 139 974 119 974 l 660 974 q 685 962 679 972 q 682 932 692 951 q 627 803 656 867 q 569 683 599 740 q 509 578 539 625 q 449 500 479 531 q 389 441 418 464 q 332 395 360 418 q 278 340 304 372 q 231 254 253 308 q 228 222 222 236 q 249 204 233 207 q 372 178 308 196 q 517 149 435 160 q 558 132 539 146 q 579 100 576 118 q 585 75 582 88 q 590 49 588 63 q 585 15 594 29 q 557 1 576 1 l 24 1 q -2 13 4 3 q 1 43 -8 24 q 56 172 28 108 q 115 293 85 236 q 175 397 144 350 q 236 475 206 444 q 296 534 267 511 q 353 581 325 557 q 406 637 381 604 q 454 726 432 669 q 457 760 463 746 q 436 778 451 775 q 319 801 379 785 q 183 829 258 818 q 144 846 163 832 q 121 879 125 860 q 115 902 118 890 q 110 925 113 914 l 107 926 z "},"{":{"ha":372,"x_min":26,"x_max":347,"o":"m 210 474 q 193 477 203 467 q 172 506 183 488 q 182 485 178 494 q 190 464 186 475 q 215 351 213 400 q 217 264 218 303 q 231 158 219 197 q 286 101 242 118 q 328 83 310 94 q 346 51 346 71 l 346 31 q 331 -2 344 11 q 300 -15 318 -15 l 250 -15 q 205 -4 231 -15 q 164 29 179 7 q 123 114 136 71 q 104 197 110 157 q 99 271 99 236 q 101 331 100 306 q 103 421 106 397 q 83 444 100 444 q 65 437 75 444 q 46 419 54 429 q 26 396 36 408 l 26 492 q 32 513 26 500 q 46 538 38 525 q 65 559 54 550 q 86 571 75 568 q 65 564 75 569 q 46 553 54 558 q 32 543 38 547 q 26 539 26 539 q 33 544 26 539 q 49 557 39 550 q 69 571 58 564 q 90 583 81 578 q 106 596 100 589 q 116 614 113 603 q 122 643 119 625 q 124 689 124 661 q 124 739 124 713 q 130 794 125 765 q 146 854 135 824 q 179 917 157 885 q 216 944 192 932 q 260 956 240 956 l 301 956 q 334 940 321 953 q 347 910 347 926 l 347 885 q 333 838 347 867 q 301 792 319 808 q 275 762 285 778 q 260 724 265 746 q 252 674 254 703 q 247 604 250 644 q 238 529 244 568 q 214 471 232 490 l 210 471 l 210 474 z "},"|":{"ha":254,"x_min":51,"x_max":199,"o":"m 153 988 q 185 970 172 985 q 199 942 199 956 l 199 88 q 184 56 197 68 q 151 42 171 43 l 97 42 q 65 59 78 44 q 51 88 51 74 l 51 942 q 66 974 53 961 q 99 988 79 986 l 153 988 l 153 988 z "},"}":{"ha":372,"x_min":22,"x_max":346,"o":"m 296 486 q 324 499 311 496 q 336 488 336 503 l 336 392 q 330 387 336 392 q 314 376 324 382 q 293 363 304 369 q 272 351 282 356 q 248 322 254 342 q 242 247 242 303 q 242 199 242 225 q 238 144 242 172 q 224 85 233 115 q 194 24 214 54 q 160 -6 183 6 q 118 -18 138 -18 l 68 -18 q 35 -2 49 -15 q 22 28 22 11 l 22 49 q 36 95 22 67 q 68 140 50 124 q 96 170 86 154 q 111 208 106 186 q 119 260 117 231 q 124 331 121 290 q 128 376 125 351 q 136 423 131 401 q 152 459 142 444 q 178 475 163 474 q 188 475 182 476 q 200 472 193 474 q 179 492 189 479 q 167 519 169 504 q 155 601 156 564 q 156 669 154 639 q 143 775 154 736 q 88 831 132 814 q 45 851 64 839 q 26 882 26 863 l 26 907 q 41 940 28 926 q 72 953 54 953 l 114 953 q 160 942 133 953 q 203 911 188 932 q 247 824 232 868 q 268 740 263 781 q 273 665 274 700 q 271 603 272 629 q 269 514 267 538 q 289 490 272 490 q 307 497 297 490 q 325 514 317 504 q 346 538 335 524 q 332 519 346 536 q 303 488 318 501 l 296 486 z "},"":{"ha":342,"x_min":0,"x_max":0,"o":""},"":{"ha":696,"x_min":18,"x_max":672,"o":"m 644 239 q 670 212 668 231 q 650 178 672 193 q 555 129 599 144 q 468 107 511 114 q 440 91 450 104 q 438 58 431 78 q 436 25 444 39 q 408 11 428 11 l 354 11 q 317 30 335 11 q 296 74 300 49 q 277 121 292 99 q 247 154 263 143 q 163 226 201 194 q 93 292 124 258 q 43 367 63 326 q 18 465 24 407 q 49 596 19 536 q 121 699 78 656 q 214 768 164 743 q 306 796 264 793 q 331 815 321 799 q 336 856 340 832 l 328 897 q 328 942 321 922 q 356 963 336 963 l 410 963 q 445 940 429 963 q 464 890 461 918 l 468 853 q 483 804 471 825 q 510 778 494 783 q 581 753 546 765 q 651 738 615 742 q 667 717 668 736 q 649 674 667 699 q 603 611 625 640 q 565 584 585 590 q 532 586 544 578 q 463 624 501 606 q 442 633 451 629 q 421 639 432 636 q 350 651 385 651 q 253 619 297 654 q 197 521 208 583 q 212 405 188 460 q 285 306 236 350 q 358 261 317 275 q 407 250 383 251 q 501 264 454 243 q 544 272 519 271 q 590 264 569 274 q 621 251 606 257 q 651 239 636 246 l 647 243 l 644 239 z "},"":{"ha":890,"x_min":26,"x_max":821,"o":"m 804 904 q 820 880 819 897 q 806 842 821 863 l 764 783 q 728 752 749 761 q 693 749 708 743 q 647 759 672 754 q 592 765 621 764 q 533 764 563 767 q 475 751 503 761 q 382 692 415 732 q 332 582 349 651 q 328 572 331 578 q 337 562 326 568 q 363 550 347 556 q 438 516 403 535 q 513 485 472 497 q 536 468 528 481 q 542 440 544 456 q 538 419 539 429 q 533 400 536 410 q 516 378 531 385 q 486 376 501 371 q 407 409 443 392 q 333 439 371 426 q 306 434 319 443 q 290 408 293 425 q 279 347 283 379 q 272 276 275 314 q 283 239 271 256 q 310 219 294 222 q 388 207 349 215 q 472 189 428 199 q 565 172 515 179 q 671 160 614 164 q 714 146 694 158 q 736 115 733 133 q 741 90 739 103 q 746 64 743 78 q 739 31 749 44 q 710 18 729 18 l 72 18 q 40 33 53 19 q 26 64 26 46 l 26 118 q 40 158 26 138 q 74 188 54 179 q 86 192 81 190 q 99 197 92 194 q 131 224 118 204 q 147 267 144 244 q 154 339 150 304 q 163 406 158 374 q 153 432 165 424 q 118 432 140 440 l 89 419 q 47 412 65 408 q 29 435 29 415 l 29 489 q 50 530 29 508 q 97 558 71 551 l 131 567 q 172 579 156 574 q 190 590 189 585 l 190 603 q 227 734 203 681 q 281 825 251 788 q 342 888 311 863 q 399 933 374 913 q 494 976 440 967 q 606 980 549 986 q 715 956 663 974 q 804 915 767 938 l 804 911 l 804 904 z "},"":{"ha":725,"x_min":64,"x_max":724,"o":"m 711 940 q 654 801 683 872 q 594 669 625 731 q 532 558 564 607 q 469 486 500 510 q 451 467 458 476 q 442 454 443 458 q 451 442 440 450 q 476 429 461 435 q 528 419 500 422 q 589 422 556 417 q 628 419 611 425 q 646 394 646 413 l 646 344 q 626 312 646 326 q 583 297 607 297 q 517 303 547 297 q 460 318 486 308 q 430 324 442 325 q 417 314 418 322 q 419 208 414 265 q 444 75 425 150 q 444 33 451 51 q 417 14 436 14 l 363 14 q 326 36 343 14 q 307 86 310 58 q 296 241 296 174 q 303 363 296 308 q 295 381 304 372 q 271 393 286 390 q 223 394 247 396 q 171 381 199 392 q 138 378 151 374 q 125 403 124 383 l 129 453 q 149 490 131 471 q 188 514 167 510 q 246 520 219 521 q 296 513 272 519 q 322 506 311 508 q 335 506 333 503 q 334 521 336 508 q 328 549 332 533 q 294 644 319 596 q 233 740 268 692 q 156 839 197 789 q 75 942 115 889 q 72 970 64 958 q 97 982 79 982 l 168 982 q 213 968 188 982 q 253 935 238 954 q 404 661 364 790 q 420 639 411 643 q 439 646 429 635 q 499 756 471 688 q 553 921 526 825 q 578 966 560 947 q 615 985 596 985 l 690 985 q 717 973 710 983 q 714 943 724 963 l 711 940 z "},"":{"ha":568,"x_min":31,"x_max":540,"o":"m 536 438 l 540 446 l 540 438 q 538 422 540 431 q 532 406 535 415 q 524 385 529 396 q 488 330 510 354 q 443 290 467 306 q 413 267 424 279 q 406 242 403 256 q 408 229 407 235 q 410 219 408 224 q 411 211 411 214 l 411 199 q 410 186 410 192 q 408 174 408 181 q 406 158 408 167 q 387 112 399 135 q 357 70 375 89 q 314 38 339 51 q 258 24 289 25 l 217 24 q 154 41 183 25 q 102 79 125 57 q 63 126 79 101 q 39 169 47 150 q 47 209 33 183 q 81 247 61 235 q 118 267 101 261 q 147 262 135 274 q 169 235 158 250 q 203 215 182 218 q 219 213 211 214 q 236 208 228 211 q 267 215 254 204 q 276 250 276 225 q 272 294 276 275 q 246 356 264 328 q 197 413 228 385 q 156 442 182 435 q 103 460 129 450 q 56 490 76 469 q 31 561 35 511 q 38 606 31 582 q 59 650 46 629 q 89 688 72 671 q 125 717 106 706 q 154 740 144 728 q 161 767 164 753 q 154 799 156 785 q 163 862 153 831 q 192 918 172 893 q 240 960 211 943 q 306 982 268 978 l 347 982 q 410 963 381 979 q 462 925 439 947 q 501 878 485 903 q 525 832 517 853 q 517 791 531 817 q 483 753 503 765 q 447 733 463 739 q 419 740 431 726 q 396 768 407 753 q 363 789 383 786 q 346 792 354 790 q 329 796 338 793 q 298 788 310 800 q 288 753 286 775 q 304 690 289 715 q 357 624 319 664 q 395 588 372 600 q 442 563 418 575 q 490 533 467 550 q 528 482 513 515 q 531 467 531 474 q 532 453 531 460 q 533 440 532 446 l 533 436 l 536 438 m 364 388 q 376 411 374 393 q 376 444 379 429 q 352 494 369 472 q 307 554 335 517 l 282 588 q 265 610 272 601 q 257 619 258 619 l 253 619 q 219 624 235 631 q 201 600 204 617 q 202 574 199 585 q 213 551 206 563 q 233 524 221 539 q 263 486 246 508 q 285 456 274 472 q 308 422 296 440 q 335 394 319 407 q 361 386 351 381 l 364 388 z "},"":{"ha":649,"x_min":28,"x_max":622,"o":"m 367 657 q 442 615 408 649 q 449 586 453 604 q 432 558 446 568 q 405 551 418 549 q 382 563 392 554 q 357 578 371 574 q 303 575 329 588 q 268 535 278 563 q 272 481 258 507 q 313 446 285 456 q 342 443 329 442 l 342 439 q 369 435 354 440 q 394 419 383 431 q 405 394 406 408 q 389 372 404 379 q 301 367 344 357 q 246 393 269 375 q 207 436 222 411 q 187 490 192 461 q 189 547 182 518 q 215 601 197 578 q 256 640 232 625 q 308 660 281 654 q 365 661 336 667 l 367 657 m 325 806 q 446 763 393 793 q 535 693 499 733 q 594 605 572 653 q 622 508 615 557 q 580 387 610 439 q 510 298 550 335 q 422 240 469 261 q 325 211 374 218 q 203 253 256 224 q 115 324 151 283 q 56 412 78 364 q 28 508 35 460 q 70 629 40 576 q 140 719 100 682 q 228 777 181 756 q 325 806 276 799 m 506 479 q 501 548 510 514 q 473 610 493 582 q 423 660 453 639 q 354 689 393 681 q 285 685 319 693 q 223 656 251 676 q 174 606 194 636 q 144 538 153 576 q 149 469 140 503 q 177 406 157 435 q 227 357 197 378 q 296 328 257 336 q 365 332 331 324 q 427 360 399 340 q 476 410 456 381 q 506 479 497 440 z "},"":{"ha":0,"x_min":0,"x_max":0,"o":""},"":{"ha":649,"x_min":31,"x_max":625,"o":"m 375 646 q 414 613 400 639 q 419 560 428 588 q 415 547 417 553 q 411 533 414 540 q 392 501 406 515 q 369 478 381 490 q 360 450 358 465 q 362 433 361 442 q 365 417 363 425 q 364 392 368 401 q 349 385 360 382 q 327 402 338 388 q 314 432 317 417 l 314 447 q 311 474 313 463 q 307 485 310 485 q 290 450 300 485 l 286 442 q 276 415 283 426 q 258 407 268 404 q 244 424 249 410 q 244 454 240 438 q 274 547 257 506 q 294 639 292 589 q 306 654 294 650 q 333 654 318 658 l 371 646 l 375 646 m 369 543 l 378 568 q 365 590 383 585 l 353 594 q 342 586 347 596 q 332 563 336 576 q 333 538 328 549 q 349 528 338 526 q 369 544 365 531 l 369 543 m 328 814 q 449 772 396 801 q 538 701 501 742 q 597 613 575 661 q 625 517 618 565 q 583 395 613 447 q 513 306 553 343 q 424 248 472 269 q 328 219 376 226 q 206 262 258 232 q 117 332 154 292 q 59 420 81 372 q 31 517 38 468 q 73 638 43 585 q 143 727 103 690 q 231 785 183 764 q 328 814 279 807 m 508 488 q 504 556 513 522 q 476 619 496 590 q 426 668 456 647 q 357 697 396 689 q 288 693 322 701 q 226 665 254 685 q 176 615 197 644 q 147 546 156 585 q 151 477 143 511 q 180 415 160 443 q 230 365 200 386 q 299 336 260 344 q 367 340 333 332 q 430 369 401 349 q 479 419 458 389 q 508 488 500 449 z "},"":{"ha":550,"x_min":58,"x_max":543,"o":"m 428 406 q 463 383 442 393 q 502 359 483 372 q 532 326 521 346 q 539 272 543 306 q 510 195 532 226 q 455 134 488 164 q 383 69 422 104 q 303 -21 344 33 q 289 -34 297 -31 q 272 -37 281 -37 q 226 -4 244 -37 q 212 57 211 24 q 228 107 213 90 q 304 177 274 153 q 354 216 335 201 q 383 240 374 231 q 393 267 392 250 q 380 308 396 286 q 343 367 364 331 q 317 422 329 392 q 301 481 306 451 q 301 538 296 511 q 329 581 307 564 q 372 664 363 610 q 360 774 381 718 q 304 868 343 822 q 207 938 265 914 q 220 799 218 861 q 219 680 222 738 q 208 565 215 622 q 193 442 200 508 q 181 297 186 376 q 176 115 175 217 q 175 55 176 85 q 169 2 174 25 q 159 -34 165 -21 q 144 -47 153 -47 l 99 -47 q 70 -12 82 -44 q 58 61 58 19 l 58 944 q 61 978 58 963 q 68 1008 64 994 q 67 1010 68 1010 q 82 1049 67 1033 q 119 1065 97 1065 q 221 1051 171 1071 q 314 997 271 1031 q 390 919 357 963 q 439 835 422 876 q 462 743 457 799 q 460 635 467 688 q 438 544 454 583 q 397 501 422 506 q 377 494 382 503 q 376 471 372 485 q 393 439 381 457 q 425 403 406 421 l 428 406 z "},"":{"ha":694,"x_min":68,"x_max":626,"o":"m 578 765 q 612 776 597 776 q 626 756 626 775 l 626 701 q 609 654 626 682 q 569 613 592 626 q 511 584 538 592 q 461 579 485 576 q 433 573 446 581 q 418 550 421 565 q 398 446 408 494 q 383 344 388 397 q 382 226 378 290 q 406 76 386 163 q 403 35 411 53 q 375 17 394 17 l 321 17 q 286 39 301 17 q 268 89 271 61 q 260 267 257 192 q 271 403 263 343 q 290 513 279 464 q 308 614 301 563 q 301 643 311 628 q 272 665 290 658 q 212 678 244 675 q 139 674 179 681 q 90 674 113 668 q 68 699 68 679 l 68 753 q 89 788 68 772 q 135 804 110 804 q 206 800 174 806 q 268 786 239 794 q 299 790 288 781 q 308 818 311 799 q 301 868 306 842 q 289 924 296 894 q 292 965 283 947 q 319 983 300 983 l 374 983 q 408 961 393 983 q 426 911 424 939 q 435 783 433 839 q 447 743 436 760 q 472 726 457 726 q 522 735 496 728 q 576 763 547 743 l 578 765 z "},"":{"ha":1046,"x_min":26,"x_max":1029,"o":"m 1003 189 q 1028 160 1026 178 q 1010 126 1029 142 q 922 71 961 94 q 844 31 882 47 q 768 6 807 15 q 682 -6 729 -4 q 540 22 610 -8 q 412 99 469 51 q 314 205 354 147 q 263 317 274 263 q 242 344 257 333 q 210 350 228 354 q 83 308 156 338 q 44 303 61 299 q 28 328 28 308 l 28 382 q 48 422 28 401 q 94 451 68 443 q 147 467 122 461 q 194 478 171 474 q 231 490 217 482 q 247 506 246 497 l 251 535 q 237 538 251 538 q 199 536 222 539 q 96 515 154 531 q 47 515 68 508 q 26 540 26 521 l 26 594 q 49 631 26 614 q 99 653 71 649 q 175 660 139 658 q 243 663 211 663 q 288 672 267 663 q 318 694 308 681 q 385 780 353 735 q 458 864 418 825 q 551 930 499 903 q 681 964 604 957 q 772 950 728 964 q 858 915 817 936 q 936 871 899 894 q 1006 831 974 847 q 1020 804 1021 824 q 1003 764 1019 785 q 980 735 992 749 q 957 707 968 721 q 920 681 940 688 q 888 683 900 674 q 801 732 847 711 q 703 756 754 753 q 575 731 631 758 q 475 663 519 703 q 468 641 464 651 q 488 626 472 631 q 579 597 535 611 q 601 579 594 593 q 603 550 608 565 q 597 529 600 539 q 589 510 593 519 q 570 490 583 496 q 543 489 557 483 q 487 510 515 500 q 426 529 458 521 q 400 535 411 533 q 388 533 389 536 q 386 531 386 532 q 385 528 386 529 l 381 507 q 388 491 378 499 q 413 479 397 483 q 471 463 443 472 q 526 442 499 453 q 547 423 540 436 q 549 396 553 410 q 543 376 546 386 q 538 356 540 367 q 522 333 535 340 q 494 329 510 325 q 458 340 475 335 q 421 349 440 344 q 400 343 406 351 q 403 319 394 335 q 485 223 431 265 q 611 169 540 181 q 843 219 729 151 q 888 233 861 231 q 936 224 914 235 l 999 194 l 999 190 l 1003 189 z "},"\"":{"ha":458,"x_min":15,"x_max":428,"o":"m 124 947 q 190 908 167 939 q 217 846 214 878 q 197 789 217 815 q 176 769 188 779 q 156 748 165 758 q 140 729 146 738 q 133 715 133 721 q 116 701 131 708 q 82 694 101 694 l 57 694 q 26 705 38 697 q 18 724 15 713 q 24 746 19 731 q 32 777 28 761 q 40 807 36 793 q 42 825 43 821 q 38 851 38 838 q 67 916 44 892 q 125 946 90 940 q 124 948 125 947 q 124 950 124 949 l 124 947 m 335 947 q 401 908 378 939 q 428 846 425 878 q 408 789 428 815 q 388 769 399 779 q 367 748 376 758 q 351 729 357 738 q 344 715 344 721 q 327 701 342 708 q 293 694 313 694 l 268 694 q 238 705 249 697 q 229 724 226 713 q 235 746 231 731 q 243 777 239 761 q 251 807 247 793 q 253 825 254 821 q 249 851 249 838 q 278 916 256 892 q 336 946 301 940 q 335 948 336 947 q 335 950 335 949 l 335 947 z "},"/":{"ha":431,"x_min":51,"x_max":396,"o":"m 350 960 q 383 942 369 957 q 396 914 396 928 q 365 700 396 807 q 297 487 335 593 q 229 274 260 381 q 199 60 199 167 q 184 28 197 40 q 151 14 171 15 l 97 14 q 65 31 78 17 q 51 60 51 46 q 82 274 51 167 q 150 487 113 381 q 218 700 188 593 q 249 914 249 807 q 263 946 250 933 q 296 960 276 958 l 350 960 l 350 960 z "},"\\":{"ha":451,"x_min":17,"x_max":418,"o":"m 90 960 q 127 960 108 967 q 153 943 146 954 q 233 742 207 850 q 281 524 260 635 q 329 305 303 413 q 408 104 356 197 q 413 70 418 88 q 390 42 407 53 q 367 28 379 35 q 344 14 356 21 q 308 13 326 7 q 282 31 289 19 q 201 231 228 124 q 153 450 175 339 q 106 669 132 561 q 25 869 79 776 q 22 904 17 886 q 43 933 28 922 q 67 947 56 940 q 90 960 79 953 z "},"=":{"ha":611,"x_min":64,"x_max":542,"o":"m 496 706 q 528 691 515 704 q 542 660 540 678 l 542 606 q 524 573 539 586 q 496 560 510 560 l 121 560 q 89 574 101 561 q 75 604 76 586 l 75 658 q 92 691 78 678 q 121 704 107 704 l 496 704 l 496 706 m 485 338 q 517 323 504 336 q 531 292 529 310 l 531 238 q 513 205 528 218 q 485 192 499 192 l 110 192 q 78 206 90 193 q 64 236 65 218 l 64 290 q 81 323 67 310 q 110 336 96 336 l 485 336 l 485 338 z "},"^":{"ha":756,"x_min":81,"x_max":708,"o":"m 404 815 q 390 824 400 822 q 372 819 381 826 q 317 785 346 804 q 258 743 288 767 q 203 688 229 719 q 154 618 176 657 q 135 603 147 604 q 114 608 124 601 q 106 614 111 611 q 89 628 96 621 q 81 643 82 636 q 87 664 81 650 q 104 690 93 678 q 184 774 142 742 q 261 831 226 806 q 318 885 296 857 q 339 956 340 913 q 351 968 339 967 q 381 957 364 969 q 447 892 422 921 q 487 838 471 863 q 515 792 503 813 q 547 753 528 772 q 594 715 565 733 q 675 678 624 697 q 699 664 689 671 q 708 654 708 657 q 701 644 708 651 q 683 626 693 636 q 674 617 678 622 q 667 607 669 611 q 622 604 656 586 q 522 660 561 633 q 460 712 483 686 q 424 763 436 738 q 404 815 411 788 z "},"_":{"ha":540,"x_min":35,"x_max":501,"o":"m 456 193 q 488 178 475 192 q 501 147 500 165 l 501 93 q 484 60 499 74 q 456 47 469 47 l 81 47 q 49 61 61 49 q 35 92 36 74 l 35 146 q 52 178 38 165 q 81 192 67 192 l 456 192 l 456 193 z "},"":{"ha":586,"x_min":57,"x_max":563,"o":"m 197 74 q 188 24 200 46 q 157 1 176 1 l 103 1 q 70 16 83 3 q 57 47 57 29 l 57 926 q 72 959 58 946 q 103 972 85 972 l 332 972 q 424 934 382 960 q 495 875 465 908 q 542 805 525 842 q 561 733 560 768 l 561 633 q 550 558 563 597 q 517 483 538 518 q 472 421 497 447 q 419 385 446 394 q 394 365 403 378 q 392 336 386 351 q 453 197 413 268 q 535 46 494 125 q 535 15 543 28 q 507 3 526 3 l 444 3 q 403 19 425 3 q 371 58 382 35 q 308 215 331 142 q 275 354 286 289 q 261 387 272 372 q 236 404 250 401 q 213 395 224 407 q 199 364 201 383 q 190 235 192 306 q 193 74 188 165 l 197 74 m 279 799 l 279 800 q 249 798 261 807 q 239 772 238 789 q 241 665 244 714 q 231 567 238 615 q 238 540 228 551 q 264 522 249 528 q 312 504 288 511 q 357 499 336 497 q 392 515 378 501 q 411 560 407 529 q 417 607 414 583 q 422 657 419 631 q 403 731 425 697 q 349 775 382 765 q 315 786 332 781 q 281 799 299 792 l 279 799 z "},"":{"ha":611,"x_min":1,"x_max":617,"o":"m 219 296 q 190 282 204 297 q 172 243 176 267 q 160 165 165 207 q 150 76 154 124 q 133 26 147 49 q 100 4 119 4 l 42 4 q 12 18 22 6 q 6 50 1 31 q 38 238 17 153 q 85 396 60 322 q 135 534 110 469 q 181 661 161 599 q 210 787 200 724 q 217 919 221 850 q 225 959 214 942 q 256 976 236 976 l 364 976 q 401 954 383 976 q 426 904 419 932 q 449 715 440 797 q 468 564 458 632 q 488 438 478 496 q 515 319 499 379 q 555 194 532 260 q 613 49 578 129 q 606 16 617 29 q 576 3 594 3 l 518 3 q 478 19 499 3 q 446 57 457 35 q 375 236 397 154 q 355 266 369 254 q 325 281 340 278 q 274 287 300 283 q 219 292 249 290 l 219 296 m 347 650 q 340 672 344 669 q 332 658 336 674 q 290 559 314 601 q 243 468 267 517 q 242 442 236 454 q 264 425 249 429 q 290 418 278 422 q 315 411 303 414 q 340 418 331 408 q 350 443 350 428 q 351 542 350 492 q 347 650 353 592 z "},"":{"ha":611,"x_min":1,"x_max":617,"o":"m 219 296 q 190 282 204 297 q 172 243 176 267 q 160 165 165 207 q 150 76 154 124 q 133 26 147 49 q 100 4 119 4 l 42 4 q 12 18 22 6 q 6 50 1 31 q 38 238 17 153 q 85 396 60 322 q 135 534 110 469 q 181 661 161 599 q 210 787 200 724 q 217 919 221 850 q 225 959 214 942 q 256 976 236 976 l 364 976 q 401 954 383 976 q 426 904 419 932 q 449 715 440 797 q 468 564 458 632 q 488 438 478 496 q 515 319 499 379 q 555 194 532 260 q 613 49 578 129 q 606 16 617 29 q 576 3 594 3 l 518 3 q 478 19 499 3 q 446 57 457 35 q 375 236 397 154 q 355 266 369 254 q 325 281 340 278 q 274 287 300 283 q 219 292 249 290 l 219 296 m 347 650 q 340 672 344 669 q 332 658 336 674 q 290 559 314 601 q 243 468 267 517 q 242 442 236 454 q 264 425 249 429 q 290 418 278 422 q 315 411 303 414 q 340 418 331 408 q 350 443 350 428 q 351 542 350 492 q 347 650 353 592 z "},"":{"ha":611,"x_min":1,"x_max":617,"o":"m 219 296 q 190 282 204 297 q 172 243 176 267 q 160 165 165 207 q 150 76 154 124 q 133 26 147 49 q 100 4 119 4 l 42 4 q 12 18 22 6 q 6 50 1 31 q 38 238 17 153 q 85 396 60 322 q 135 534 110 469 q 181 661 161 599 q 210 787 200 724 q 217 919 221 850 q 225 959 214 942 q 256 976 236 976 l 364 976 q 401 954 383 976 q 426 904 419 932 q 449 715 440 797 q 468 564 458 632 q 488 438 478 496 q 515 319 499 379 q 555 194 532 260 q 613 49 578 129 q 606 16 617 29 q 576 3 594 3 l 518 3 q 478 19 499 3 q 446 57 457 35 q 375 236 397 154 q 355 266 369 254 q 325 281 340 278 q 274 287 300 283 q 219 292 249 290 l 219 296 m 347 650 q 340 672 344 669 q 332 658 336 674 q 290 559 314 601 q 243 468 267 517 q 242 442 236 454 q 264 425 249 429 q 290 418 278 422 q 315 411 303 414 q 340 418 331 408 q 350 443 350 428 q 351 542 350 492 q 347 650 353 592 z "},"":{"ha":611,"x_min":1,"x_max":617,"o":"m 219 296 q 190 282 204 297 q 172 243 176 267 q 160 165 165 207 q 150 76 154 124 q 133 26 147 49 q 100 4 119 4 l 42 4 q 12 18 22 6 q 6 50 1 31 q 38 238 17 153 q 85 396 60 322 q 135 534 110 469 q 181 661 161 599 q 210 787 200 724 q 217 919 221 850 q 225 959 214 942 q 256 976 236 976 l 364 976 q 401 954 383 976 q 426 904 419 932 q 449 715 440 797 q 468 564 458 632 q 488 438 478 496 q 515 319 499 379 q 555 194 532 260 q 613 49 578 129 q 606 16 617 29 q 576 3 594 3 l 518 3 q 478 19 499 3 q 446 57 457 35 q 375 236 397 154 q 355 266 369 254 q 325 281 340 278 q 274 287 300 283 q 219 292 249 290 l 219 296 m 347 650 q 340 672 344 669 q 332 658 336 674 q 290 559 314 601 q 243 468 267 517 q 242 442 236 454 q 264 425 249 429 q 290 418 278 422 q 315 411 303 414 q 340 418 331 408 q 350 443 350 428 q 351 542 350 492 q 347 650 353 592 z "},"":{"ha":468,"x_min":51,"x_max":481,"o":"m 476 43 q 462 10 475 24 q 431 -3 449 -3 l 97 -3 q 65 12 78 -1 q 51 42 51 25 l 51 921 q 66 953 53 940 q 97 967 79 967 l 151 967 q 188 951 171 968 q 210 910 206 933 q 228 772 224 832 q 230 663 232 713 q 222 567 228 613 q 208 471 215 521 q 194 363 200 421 q 188 232 189 306 q 199 192 188 210 q 228 169 211 174 q 313 141 268 158 q 418 119 358 124 q 461 105 442 117 q 479 74 481 93 l 479 44 l 476 43 z "},"":{"ha":579,"x_min":36,"x_max":575,"o":"m 328 6 l 332 1 l 274 1 q 178 36 221 11 q 105 95 136 61 q 56 167 74 129 q 36 242 38 206 l 36 729 q 66 824 44 782 q 119 896 88 865 q 191 944 151 926 q 275 968 231 963 l 333 968 q 411 946 375 965 q 476 901 447 926 q 527 847 506 875 q 561 801 549 819 q 563 786 565 796 q 556 765 561 776 q 542 743 550 754 q 524 725 533 732 q 469 694 497 706 q 438 701 453 688 q 411 729 422 714 q 358 767 389 758 q 335 774 347 769 q 310 782 322 778 q 252 775 276 793 q 229 725 228 757 q 226 628 231 674 q 214 535 221 582 q 199 436 207 488 q 185 321 190 385 q 203 247 182 281 q 257 206 225 214 q 282 199 269 203 q 307 190 294 194 q 374 201 349 176 q 401 217 385 211 q 440 221 418 224 q 510 218 475 217 q 556 211 538 221 q 567 181 575 201 q 471 56 526 100 q 335 3 415 11 l 328 6 z "},"":{"ha":579,"x_min":36,"x_max":575,"o":"m 328 6 l 332 1 l 274 1 q 178 36 221 11 q 105 95 136 61 q 56 167 74 129 q 36 242 38 206 l 36 729 q 66 824 44 782 q 119 896 88 865 q 191 944 151 926 q 275 968 231 963 l 333 968 q 411 946 375 965 q 476 901 447 926 q 527 847 506 875 q 561 801 549 819 q 563 786 565 796 q 556 765 561 776 q 542 743 550 754 q 524 725 533 732 q 469 694 497 706 q 438 701 453 688 q 411 729 422 714 q 358 767 389 758 q 335 774 347 769 q 310 782 322 778 q 252 775 276 793 q 229 725 228 757 q 226 628 231 674 q 214 535 221 582 q 199 436 207 488 q 185 321 190 385 q 203 247 182 281 q 257 206 225 214 q 282 199 269 203 q 307 190 294 194 q 374 201 349 176 q 401 217 385 211 q 440 221 418 224 q 510 218 475 217 q 556 211 538 221 q 567 181 575 201 q 471 56 526 100 q 335 3 415 11 l 328 6 z "},"":{"ha":579,"x_min":36,"x_max":575,"o":"m 328 6 l 332 1 l 274 1 q 178 36 221 11 q 105 95 136 61 q 56 167 74 129 q 36 242 38 206 l 36 729 q 66 824 44 782 q 119 896 88 865 q 191 944 151 926 q 275 968 231 963 l 333 968 q 411 946 375 965 q 476 901 447 926 q 527 847 506 875 q 561 801 549 819 q 563 786 565 796 q 556 765 561 776 q 542 743 550 754 q 524 725 533 732 q 469 694 497 706 q 438 701 453 688 q 411 729 422 714 q 358 767 389 758 q 335 774 347 769 q 310 782 322 778 q 252 775 276 793 q 229 725 228 757 q 226 628 231 674 q 214 535 221 582 q 199 436 207 488 q 185 321 190 385 q 203 247 182 281 q 257 206 225 214 q 282 199 269 203 q 307 190 294 194 q 374 201 349 176 q 401 217 385 211 q 440 221 418 224 q 510 218 475 217 q 556 211 538 221 q 567 181 575 201 q 471 56 526 100 q 335 3 415 11 l 328 6 z "},"":{"ha":451,"x_min":54,"x_max":422,"o":"m 421 42 q 406 9 419 22 q 375 -4 393 -4 l 100 -4 q 67 12 81 -1 q 54 42 54 25 l 54 921 q 69 953 56 940 q 100 967 82 967 l 375 967 q 408 951 394 964 q 421 921 421 938 l 421 871 q 407 824 421 853 q 375 782 393 794 q 316 763 343 761 q 261 775 289 764 q 235 774 246 782 q 225 747 224 765 q 226 668 228 704 q 221 599 224 632 q 228 565 219 585 q 251 532 238 546 q 276 511 264 521 q 301 497 288 501 q 329 493 314 492 q 363 506 344 494 q 402 525 383 518 q 421 514 421 532 l 421 460 q 415 437 421 450 q 399 411 408 424 q 378 390 390 399 q 356 378 367 381 q 288 385 315 367 q 236 426 260 403 q 211 440 222 442 q 197 422 200 438 q 190 340 193 383 q 188 242 188 296 q 199 201 188 221 q 228 174 211 181 q 288 147 256 161 q 361 129 321 133 q 403 115 385 126 q 422 83 422 103 l 422 42 l 421 42 z "},"":{"ha":451,"x_min":54,"x_max":422,"o":"m 421 42 q 406 9 419 22 q 375 -4 393 -4 l 100 -4 q 67 12 81 -1 q 54 42 54 25 l 54 921 q 69 953 56 940 q 100 967 82 967 l 375 967 q 408 951 394 964 q 421 921 421 938 l 421 871 q 407 824 421 853 q 375 782 393 794 q 316 763 343 761 q 261 775 289 764 q 235 774 246 782 q 225 747 224 765 q 226 668 228 704 q 221 599 224 632 q 228 565 219 585 q 251 532 238 546 q 276 511 264 521 q 301 497 288 501 q 329 493 314 492 q 363 506 344 494 q 402 525 383 518 q 421 514 421 532 l 421 460 q 415 437 421 450 q 399 411 408 424 q 378 390 390 399 q 356 378 367 381 q 288 385 315 367 q 236 426 260 403 q 211 440 222 442 q 197 422 200 438 q 190 340 193 383 q 188 242 188 296 q 199 201 188 221 q 228 174 211 181 q 288 147 256 161 q 361 129 321 133 q 403 115 385 126 q 422 83 422 103 l 422 42 l 421 42 z "},"":{"ha":451,"x_min":54,"x_max":422,"o":"m 421 42 q 406 9 419 22 q 375 -4 393 -4 l 100 -4 q 67 12 81 -1 q 54 42 54 25 l 54 921 q 69 953 56 940 q 100 967 82 967 l 375 967 q 408 951 394 964 q 421 921 421 938 l 421 871 q 407 824 421 853 q 375 782 393 794 q 316 763 343 761 q 261 775 289 764 q 235 774 246 782 q 225 747 224 765 q 226 668 228 704 q 221 599 224 632 q 228 565 219 585 q 251 532 238 546 q 276 511 264 521 q 301 497 288 501 q 329 493 314 492 q 363 506 344 494 q 402 525 383 518 q 421 514 421 532 l 421 460 q 415 437 421 450 q 399 411 408 424 q 378 390 390 399 q 356 378 367 381 q 288 385 315 367 q 236 426 260 403 q 211 440 222 442 q 197 422 200 438 q 190 340 193 383 q 188 242 188 296 q 199 201 188 221 q 228 174 211 181 q 288 147 256 161 q 361 129 321 133 q 403 115 385 126 q 422 83 422 103 l 422 42 l 421 42 z "},"":{"ha":451,"x_min":54,"x_max":422,"o":"m 421 42 q 406 9 419 22 q 375 -4 393 -4 l 100 -4 q 67 12 81 -1 q 54 42 54 25 l 54 921 q 69 953 56 940 q 100 967 82 967 l 375 967 q 408 951 394 964 q 421 921 421 938 l 421 871 q 407 824 421 853 q 375 782 393 794 q 316 763 343 761 q 261 775 289 764 q 235 774 246 782 q 225 747 224 765 q 226 668 228 704 q 221 599 224 632 q 228 565 219 585 q 251 532 238 546 q 276 511 264 521 q 301 497 288 501 q 329 493 314 492 q 363 506 344 494 q 402 525 383 518 q 421 514 421 532 l 421 460 q 415 437 421 450 q 399 411 408 424 q 378 390 390 399 q 356 378 367 381 q 288 385 315 367 q 236 426 260 403 q 211 440 222 442 q 197 422 200 438 q 190 340 193 383 q 188 242 188 296 q 199 201 188 221 q 228 174 211 181 q 288 147 256 161 q 361 129 321 133 q 403 115 385 126 q 422 83 422 103 l 422 42 l 421 42 z "},"":{"ha":254,"x_min":51,"x_max":199,"o":"m 199 46 q 184 14 197 26 q 151 0 171 1 l 97 0 q 65 17 78 3 q 51 46 51 32 l 51 925 q 66 957 53 944 q 99 971 79 969 l 153 971 q 185 953 172 968 q 199 925 199 939 l 199 46 l 199 46 z "},"":{"ha":254,"x_min":51,"x_max":199,"o":"m 199 46 q 184 14 197 26 q 151 0 171 1 l 97 0 q 65 17 78 3 q 51 46 51 32 l 51 925 q 66 957 53 944 q 99 971 79 969 l 153 971 q 185 953 172 968 q 199 925 199 939 l 199 46 l 199 46 z "},"":{"ha":640,"x_min":54,"x_max":601,"o":"m 451 24 l 447 24 q 410 6 433 13 q 367 0 386 0 l 100 0 q 67 15 81 1 q 54 46 54 28 l 54 925 q 69 958 56 944 q 100 971 82 971 l 338 971 q 444 923 396 954 q 526 854 492 892 q 579 774 560 817 q 601 692 599 732 l 601 263 q 584 183 599 219 q 547 118 569 147 q 499 65 525 89 q 449 24 472 42 l 451 24 m 454 618 q 451 672 457 644 q 430 721 444 699 q 395 760 415 743 q 351 783 375 776 q 285 804 319 793 q 254 800 267 810 q 244 774 242 790 q 245 649 250 706 q 231 532 240 592 q 211 405 221 472 q 197 249 201 338 q 208 210 196 226 q 235 193 219 194 q 297 182 263 192 q 378 196 344 171 q 411 265 411 221 q 416 351 411 310 q 427 433 421 392 q 441 520 433 475 q 454 618 449 565 z "},"":{"ha":640,"x_min":54,"x_max":601,"o":"m 451 24 l 447 24 q 410 6 433 13 q 367 0 386 0 l 100 0 q 67 15 81 1 q 54 46 54 28 l 54 925 q 69 958 56 944 q 100 971 82 971 l 338 971 q 444 923 396 954 q 526 854 492 892 q 579 774 560 817 q 601 692 599 732 l 601 263 q 584 183 599 219 q 547 118 569 147 q 499 65 525 89 q 449 24 472 42 l 451 24 m 454 618 q 451 672 457 644 q 430 721 444 699 q 395 760 415 743 q 351 783 375 776 q 285 804 319 793 q 254 800 267 810 q 244 774 242 790 q 245 649 250 706 q 231 532 240 592 q 211 405 221 472 q 197 249 201 338 q 208 210 196 226 q 235 193 219 194 q 297 182 263 192 q 378 196 344 171 q 411 265 411 221 q 416 351 411 310 q 427 433 421 392 q 441 520 433 475 q 454 618 449 565 z "},"":{"ha":633,"x_min":53,"x_max":578,"o":"m 194 79 l 194 83 q 184 33 196 56 q 153 11 172 11 l 99 11 q 66 25 79 13 q 53 56 53 38 l 53 935 q 67 967 54 954 q 99 981 81 981 l 153 981 q 194 965 172 981 q 229 926 217 949 q 299 778 275 849 q 338 643 324 707 q 362 522 353 579 q 383 410 371 464 q 392 393 388 394 q 400 407 397 392 q 415 502 407 453 q 430 610 424 551 q 439 742 436 669 q 438 906 442 814 q 447 956 435 933 q 478 978 458 978 l 532 978 q 565 963 551 976 q 578 932 578 950 l 578 53 q 556 18 575 32 q 509 3 536 4 q 451 15 482 1 q 396 64 421 29 q 350 142 371 93 q 313 247 329 190 q 284 362 296 304 q 264 467 272 419 q 251 546 256 515 q 244 579 246 576 q 235 596 240 594 q 228 582 231 597 q 213 485 221 535 q 199 376 206 436 q 190 244 193 317 q 192 79 188 172 l 194 79 z "},"":{"ha":633,"x_min":53,"x_max":578,"o":"m 194 79 l 194 83 q 184 33 196 56 q 153 11 172 11 l 99 11 q 66 25 79 13 q 53 56 53 38 l 53 935 q 67 967 54 954 q 99 981 81 981 l 153 981 q 194 965 172 981 q 229 926 217 949 q 299 778 275 849 q 338 643 324 707 q 362 522 353 579 q 383 410 371 464 q 392 393 388 394 q 400 407 397 392 q 415 502 407 453 q 430 610 424 551 q 439 742 436 669 q 438 906 442 814 q 447 956 435 933 q 478 978 458 978 l 532 978 q 565 963 551 976 q 578 932 578 950 l 578 53 q 556 18 575 32 q 509 3 536 4 q 451 15 482 1 q 396 64 421 29 q 350 142 371 93 q 313 247 329 190 q 284 362 296 304 q 264 467 272 419 q 251 546 256 515 q 244 579 246 576 q 235 596 240 594 q 228 582 231 597 q 213 485 221 535 q 199 376 206 436 q 190 244 193 317 q 192 79 188 172 l 194 79 z "},"":{"ha":619,"x_min":43,"x_max":578,"o":"m 281 0 q 185 35 228 10 q 112 93 143 60 q 63 165 81 126 q 43 239 44 203 l 43 726 q 73 821 51 779 q 126 893 94 863 q 198 942 158 924 q 282 964 238 960 l 340 964 q 435 929 392 954 q 509 871 478 904 q 558 799 540 838 q 578 725 576 760 l 578 238 q 548 143 569 185 q 494 71 526 101 q 423 22 463 40 q 339 0 383 4 l 281 0 m 229 724 q 226 626 231 672 q 214 533 221 581 q 199 433 207 485 q 185 317 190 381 q 203 243 182 276 q 257 201 225 210 q 281 194 268 199 q 306 186 293 190 q 365 193 340 175 q 388 243 389 211 q 391 340 386 294 q 403 434 396 386 q 419 534 411 482 q 433 650 428 586 q 415 724 436 690 q 361 765 393 757 q 336 772 349 768 q 311 781 324 776 q 252 774 276 792 q 229 724 228 756 z "},"":{"ha":619,"x_min":43,"x_max":578,"o":"m 281 0 q 185 35 228 10 q 112 93 143 60 q 63 165 81 126 q 43 239 44 203 l 43 726 q 73 821 51 779 q 126 893 94 863 q 198 942 158 924 q 282 964 238 960 l 340 964 q 435 929 392 954 q 509 871 478 904 q 558 799 540 838 q 578 725 576 760 l 578 238 q 548 143 569 185 q 494 71 526 101 q 423 22 463 40 q 339 0 383 4 l 281 0 m 229 724 q 226 626 231 672 q 214 533 221 581 q 199 433 207 485 q 185 317 190 381 q 203 243 182 276 q 257 201 225 210 q 281 194 268 199 q 306 186 293 190 q 365 193 340 175 q 388 243 389 211 q 391 340 386 294 q 403 434 396 386 q 419 534 411 482 q 433 650 428 586 q 415 724 436 690 q 361 765 393 757 q 336 772 349 768 q 311 781 324 776 q 252 774 276 792 q 229 724 228 756 z "},"":{"ha":619,"x_min":43,"x_max":578,"o":"m 281 0 q 185 35 228 10 q 112 93 143 60 q 63 165 81 126 q 43 239 44 203 l 43 726 q 73 821 51 779 q 126 893 94 863 q 198 942 158 924 q 282 964 238 960 l 340 964 q 435 929 392 954 q 509 871 478 904 q 558 799 540 838 q 578 725 576 760 l 578 238 q 548 143 569 185 q 494 71 526 101 q 423 22 463 40 q 339 0 383 4 l 281 0 m 229 724 q 226 626 231 672 q 214 533 221 581 q 199 433 207 485 q 185 317 190 381 q 203 243 182 276 q 257 201 225 210 q 281 194 268 199 q 306 186 293 190 q 365 193 340 175 q 388 243 389 211 q 391 340 386 294 q 403 434 396 386 q 419 534 411 482 q 433 650 428 586 q 415 724 436 690 q 361 765 393 757 q 336 772 349 768 q 311 781 324 776 q 252 774 276 792 q 229 724 228 756 z "},"":{"ha":619,"x_min":43,"x_max":578,"o":"m 281 0 q 185 35 228 10 q 112 93 143 60 q 63 165 81 126 q 43 239 44 203 l 43 726 q 73 821 51 779 q 126 893 94 863 q 198 942 158 924 q 282 964 238 960 l 340 964 q 435 929 392 954 q 509 871 478 904 q 558 799 540 838 q 578 725 576 760 l 578 238 q 548 143 569 185 q 494 71 526 101 q 423 22 463 40 q 339 0 383 4 l 281 0 m 229 724 q 226 626 231 672 q 214 533 221 581 q 199 433 207 485 q 185 317 190 381 q 203 243 182 276 q 257 201 225 210 q 281 194 268 199 q 306 186 293 190 q 365 193 340 175 q 388 243 389 211 q 391 340 386 294 q 403 434 396 386 q 419 534 411 482 q 433 650 428 586 q 415 724 436 690 q 361 765 393 757 q 336 772 349 768 q 311 781 324 776 q 252 774 276 792 q 229 724 228 756 z "},"":{"ha":1157,"x_min":0,"x_max":0,"o":""},"":{"ha":586,"x_min":57,"x_max":563,"o":"m 197 74 q 188 24 200 46 q 157 1 176 1 l 103 1 q 70 16 83 3 q 57 47 57 29 l 57 926 q 72 959 58 946 q 103 972 85 972 l 332 972 q 424 934 382 960 q 495 875 465 908 q 542 805 525 842 q 561 733 560 768 l 561 633 q 550 558 563 597 q 517 483 538 518 q 472 421 497 447 q 419 385 446 394 q 394 365 403 378 q 392 336 386 351 q 453 197 413 268 q 535 46 494 125 q 535 15 543 28 q 507 3 526 3 l 444 3 q 403 19 425 3 q 371 58 382 35 q 308 215 331 142 q 275 354 286 289 q 261 387 272 372 q 236 404 250 401 q 213 395 224 407 q 199 364 201 383 q 190 235 192 306 q 193 74 188 165 l 197 74 m 279 799 l 279 800 q 249 798 261 807 q 239 772 238 789 q 241 665 244 714 q 231 567 238 615 q 238 540 228 551 q 264 522 249 528 q 312 504 288 511 q 357 499 336 497 q 392 515 378 501 q 411 560 407 529 q 417 607 414 583 q 422 657 419 631 q 403 731 425 697 q 349 775 382 765 q 315 786 332 781 q 281 799 299 792 l 279 799 z "},"":{"ha":628,"x_min":44,"x_max":579,"o":"m 336 1 l 282 1 q 187 36 229 11 q 113 94 144 61 q 64 166 82 128 q 44 240 46 204 l 44 924 q 59 956 46 943 q 90 969 72 969 l 144 969 q 182 953 164 969 q 206 914 200 936 q 233 744 229 817 q 228 607 236 672 q 208 474 221 542 q 189 315 196 406 q 208 242 186 275 q 261 200 229 208 q 286 193 274 197 q 311 185 299 189 q 370 192 346 174 q 393 242 394 210 q 400 377 390 314 q 420 513 410 440 q 438 676 431 585 q 439 896 446 767 q 448 946 436 924 q 479 968 460 968 l 533 968 q 566 953 553 967 q 579 922 579 940 l 579 239 q 549 144 571 186 q 496 72 528 103 q 424 24 464 42 q 340 1 385 6 l 336 1 z "},"":{"ha":628,"x_min":44,"x_max":579,"o":"m 336 1 l 282 1 q 187 36 229 11 q 113 94 144 61 q 64 166 82 128 q 44 240 46 204 l 44 924 q 59 956 46 943 q 90 969 72 969 l 144 969 q 182 953 164 969 q 206 914 200 936 q 233 744 229 817 q 228 607 236 672 q 208 474 221 542 q 189 315 196 406 q 208 242 186 275 q 261 200 229 208 q 286 193 274 197 q 311 185 299 189 q 370 192 346 174 q 393 242 394 210 q 400 377 390 314 q 420 513 410 440 q 438 676 431 585 q 439 896 446 767 q 448 946 436 924 q 479 968 460 968 l 533 968 q 566 953 553 967 q 579 922 579 940 l 579 239 q 549 144 571 186 q 496 72 528 103 q 424 24 464 42 q 340 1 385 6 l 336 1 z "},"":{"ha":628,"x_min":44,"x_max":579,"o":"m 336 1 l 282 1 q 187 36 229 11 q 113 94 144 61 q 64 166 82 128 q 44 240 46 204 l 44 924 q 59 956 46 943 q 90 969 72 969 l 144 969 q 182 953 164 969 q 206 914 200 936 q 233 744 229 817 q 228 607 236 672 q 208 474 221 542 q 189 315 196 406 q 208 242 186 275 q 261 200 229 208 q 286 193 274 197 q 311 185 299 189 q 370 192 346 174 q 393 242 394 210 q 400 377 390 314 q 420 513 410 440 q 438 676 431 585 q 439 896 446 767 q 448 946 436 924 q 479 968 460 968 l 533 968 q 566 953 553 967 q 579 922 579 940 l 579 239 q 549 144 571 186 q 496 72 528 103 q 424 24 464 42 q 340 1 385 6 l 336 1 z "},"":{"ha":628,"x_min":44,"x_max":579,"o":"m 336 1 l 282 1 q 187 36 229 11 q 113 94 144 61 q 64 166 82 128 q 44 240 46 204 l 44 924 q 59 956 46 943 q 90 969 72 969 l 144 969 q 182 953 164 969 q 206 914 200 936 q 233 744 229 817 q 228 607 236 672 q 208 474 221 542 q 189 315 196 406 q 208 242 186 275 q 261 200 229 208 q 286 193 274 197 q 311 185 299 189 q 370 192 346 174 q 393 242 394 210 q 400 377 390 314 q 420 513 410 440 q 438 676 431 585 q 439 896 446 767 q 448 946 436 924 q 479 968 460 968 l 533 968 q 566 953 553 967 q 579 922 579 940 l 579 239 q 549 144 571 186 q 496 72 528 103 q 424 24 464 42 q 340 1 385 6 l 336 1 z "},"":{"ha":626,"x_min":-18,"x_max":644,"o":"m 325 649 q 341 626 332 631 q 360 633 350 622 q 419 744 392 675 q 474 908 447 813 q 499 953 481 935 q 536 972 517 972 l 611 972 q 638 960 631 971 q 635 931 644 950 q 577 792 607 863 q 517 660 547 722 q 454 550 486 599 q 392 478 422 501 q 372 451 381 467 q 360 421 363 435 q 346 347 351 385 q 340 267 340 310 q 345 174 339 225 q 368 60 351 122 q 367 17 375 36 q 340 -1 360 -1 l 286 -1 q 250 21 267 -1 q 231 71 233 43 q 221 199 222 142 q 223 303 219 256 q 233 390 226 350 q 249 465 240 429 q 251 501 251 481 q 246 538 251 522 q 212 633 238 585 q 151 729 186 681 q 74 828 115 778 q -7 931 33 878 q -10 959 -18 947 q 15 971 -3 971 l 86 971 q 131 957 106 971 q 171 924 156 943 q 322 650 282 779 l 325 649 z "},"":{"ha":1157,"x_min":0,"x_max":0,"o":""},"":{"ha":586,"x_min":57,"x_max":563,"o":"m 197 74 q 188 24 200 46 q 157 1 176 1 l 103 1 q 70 16 83 3 q 57 47 57 29 l 57 926 q 72 959 58 946 q 103 972 85 972 l 332 972 q 424 934 382 960 q 495 875 465 908 q 542 805 525 842 q 561 733 560 768 l 561 633 q 550 558 563 597 q 517 483 538 518 q 472 421 497 447 q 419 385 446 394 q 394 365 403 378 q 392 336 386 351 q 453 197 413 268 q 535 46 494 125 q 535 15 543 28 q 507 3 526 3 l 444 3 q 403 19 425 3 q 371 58 382 35 q 308 215 331 142 q 275 354 286 289 q 261 387 272 372 q 236 404 250 401 q 213 395 224 407 q 199 364 201 383 q 190 235 192 306 q 193 74 188 165 l 197 74 m 279 799 l 279 800 q 249 798 261 807 q 239 772 238 789 q 241 665 244 714 q 231 567 238 615 q 238 540 228 551 q 264 522 249 528 q 312 504 288 511 q 357 499 336 497 q 392 515 378 501 q 411 560 407 529 q 417 607 414 583 q 422 657 419 631 q 403 731 425 697 q 349 775 382 765 q 315 786 332 781 q 281 799 299 792 l 279 799 z "},"":{"ha":611,"x_min":1,"x_max":617,"o":"m 219 296 q 190 282 204 297 q 172 243 176 267 q 160 165 165 207 q 150 76 154 124 q 133 26 147 49 q 100 4 119 4 l 42 4 q 12 18 22 6 q 6 50 1 31 q 38 238 17 153 q 85 396 60 322 q 135 534 110 469 q 181 661 161 599 q 210 787 200 724 q 217 919 221 850 q 225 959 214 942 q 256 976 236 976 l 364 976 q 401 954 383 976 q 426 904 419 932 q 449 715 440 797 q 468 564 458 632 q 488 438 478 496 q 515 319 499 379 q 555 194 532 260 q 613 49 578 129 q 606 16 617 29 q 576 3 594 3 l 518 3 q 478 19 499 3 q 446 57 457 35 q 375 236 397 154 q 355 266 369 254 q 325 281 340 278 q 274 287 300 283 q 219 292 249 290 l 219 296 m 347 650 q 340 672 344 669 q 332 658 336 674 q 290 559 314 601 q 243 468 267 517 q 242 442 236 454 q 264 425 249 429 q 290 418 278 422 q 315 411 303 414 q 340 418 331 408 q 350 443 350 428 q 351 542 350 492 q 347 650 353 592 z "},"":{"ha":611,"x_min":1,"x_max":617,"o":"m 219 296 q 190 282 204 297 q 172 243 176 267 q 160 165 165 207 q 150 76 154 124 q 133 26 147 49 q 100 4 119 4 l 42 4 q 12 18 22 6 q 6 50 1 31 q 38 238 17 153 q 85 396 60 322 q 135 534 110 469 q 181 661 161 599 q 210 787 200 724 q 217 919 221 850 q 225 959 214 942 q 256 976 236 976 l 364 976 q 401 954 383 976 q 426 904 419 932 q 449 715 440 797 q 468 564 458 632 q 488 438 478 496 q 515 319 499 379 q 555 194 532 260 q 613 49 578 129 q 606 16 617 29 q 576 3 594 3 l 518 3 q 478 19 499 3 q 446 57 457 35 q 375 236 397 154 q 355 266 369 254 q 325 281 340 278 q 274 287 300 283 q 219 292 249 290 l 219 296 m 347 650 q 340 672 344 669 q 332 658 336 674 q 290 559 314 601 q 243 468 267 517 q 242 442 236 454 q 264 425 249 429 q 290 418 278 422 q 315 411 303 414 q 340 418 331 408 q 350 443 350 428 q 351 542 350 492 q 347 650 353 592 z "},"":{"ha":611,"x_min":1,"x_max":617,"o":"m 219 296 q 190 282 204 297 q 172 243 176 267 q 160 165 165 207 q 150 76 154 124 q 133 26 147 49 q 100 4 119 4 l 42 4 q 12 18 22 6 q 6 50 1 31 q 38 238 17 153 q 85 396 60 322 q 135 534 110 469 q 181 661 161 599 q 210 787 200 724 q 217 919 221 850 q 225 959 214 942 q 256 976 236 976 l 364 976 q 401 954 383 976 q 426 904 419 932 q 449 715 440 797 q 468 564 458 632 q 488 438 478 496 q 515 319 499 379 q 555 194 532 260 q 613 49 578 129 q 606 16 617 29 q 576 3 594 3 l 518 3 q 478 19 499 3 q 446 57 457 35 q 375 236 397 154 q 355 266 369 254 q 325 281 340 278 q 274 287 300 283 q 219 292 249 290 l 219 296 m 347 650 q 340 672 344 669 q 332 658 336 674 q 290 559 314 601 q 243 468 267 517 q 242 442 236 454 q 264 425 249 429 q 290 418 278 422 q 315 411 303 414 q 340 418 331 408 q 350 443 350 428 q 351 542 350 492 q 347 650 353 592 z "},"":{"ha":611,"x_min":1,"x_max":617,"o":"m 219 296 q 190 282 204 297 q 172 243 176 267 q 160 165 165 207 q 150 76 154 124 q 133 26 147 49 q 100 4 119 4 l 42 4 q 12 18 22 6 q 6 50 1 31 q 38 238 17 153 q 85 396 60 322 q 135 534 110 469 q 181 661 161 599 q 210 787 200 724 q 217 919 221 850 q 225 959 214 942 q 256 976 236 976 l 364 976 q 401 954 383 976 q 426 904 419 932 q 449 715 440 797 q 468 564 458 632 q 488 438 478 496 q 515 319 499 379 q 555 194 532 260 q 613 49 578 129 q 606 16 617 29 q 576 3 594 3 l 518 3 q 478 19 499 3 q 446 57 457 35 q 375 236 397 154 q 355 266 369 254 q 325 281 340 278 q 274 287 300 283 q 219 292 249 290 l 219 296 m 347 650 q 340 672 344 669 q 332 658 336 674 q 290 559 314 601 q 243 468 267 517 q 242 442 236 454 q 264 425 249 429 q 290 418 278 422 q 315 411 303 414 q 340 418 331 408 q 350 443 350 428 q 351 542 350 492 q 347 650 353 592 z "},"":{"ha":469,"x_min":53,"x_max":482,"o":"m 478 43 q 463 10 476 24 q 432 -3 450 -3 l 99 -3 q 66 12 79 -1 q 53 42 53 25 l 53 921 q 67 953 54 940 q 99 967 81 967 l 153 967 q 190 951 172 968 q 211 910 207 933 q 229 772 225 832 q 231 663 233 713 q 223 567 229 613 q 209 471 217 521 q 196 363 201 421 q 189 232 190 306 q 201 192 189 210 q 229 169 213 174 q 315 141 269 158 q 419 119 360 124 q 463 105 443 117 q 481 74 482 93 l 481 44 l 478 43 z "},"":{"ha":579,"x_min":36,"x_max":575,"o":"m 328 6 l 332 1 l 274 1 q 178 36 221 11 q 105 95 136 61 q 56 167 74 129 q 36 242 38 206 l 36 729 q 66 824 44 782 q 119 896 88 865 q 191 944 151 926 q 275 968 231 963 l 333 968 q 411 946 375 965 q 476 901 447 926 q 527 847 506 875 q 561 801 549 819 q 563 786 565 796 q 556 765 561 776 q 542 743 550 754 q 524 725 533 732 q 469 694 497 706 q 438 701 453 688 q 411 729 422 714 q 358 767 389 758 q 335 774 347 769 q 310 782 322 778 q 252 775 276 793 q 229 725 228 757 q 226 628 231 674 q 214 535 221 582 q 199 436 207 488 q 185 321 190 385 q 203 247 182 281 q 257 206 225 214 q 282 199 269 203 q 307 190 294 194 q 374 201 349 176 q 401 217 385 211 q 440 221 418 224 q 510 218 475 217 q 556 211 538 221 q 567 181 575 201 q 471 56 526 100 q 335 3 415 11 l 328 6 z "},"":{"ha":579,"x_min":36,"x_max":575,"o":"m 328 6 l 332 1 l 274 1 q 178 36 221 11 q 105 95 136 61 q 56 167 74 129 q 36 242 38 206 l 36 729 q 66 824 44 782 q 119 896 88 865 q 191 944 151 926 q 275 968 231 963 l 333 968 q 411 946 375 965 q 476 901 447 926 q 527 847 506 875 q 561 801 549 819 q 563 786 565 796 q 556 765 561 776 q 542 743 550 754 q 524 725 533 732 q 469 694 497 706 q 438 701 453 688 q 411 729 422 714 q 358 767 389 758 q 335 774 347 769 q 310 782 322 778 q 252 775 276 793 q 229 725 228 757 q 226 628 231 674 q 214 535 221 582 q 199 436 207 488 q 185 321 190 385 q 203 247 182 281 q 257 206 225 214 q 282 199 269 203 q 307 190 294 194 q 374 201 349 176 q 401 217 385 211 q 440 221 418 224 q 510 218 475 217 q 556 211 538 221 q 567 181 575 201 q 471 56 526 100 q 335 3 415 11 l 328 6 z "},"":{"ha":579,"x_min":36,"x_max":575,"o":"m 328 6 l 332 1 l 274 1 q 178 36 221 11 q 105 95 136 61 q 56 167 74 129 q 36 242 38 206 l 36 729 q 66 824 44 782 q 119 896 88 865 q 191 944 151 926 q 275 968 231 963 l 333 968 q 411 946 375 965 q 476 901 447 926 q 527 847 506 875 q 561 801 549 819 q 563 786 565 796 q 556 765 561 776 q 542 743 550 754 q 524 725 533 732 q 469 694 497 706 q 438 701 453 688 q 411 729 422 714 q 358 767 389 758 q 335 774 347 769 q 310 782 322 778 q 252 775 276 793 q 229 725 228 757 q 226 628 231 674 q 214 535 221 582 q 199 436 207 488 q 185 321 190 385 q 203 247 182 281 q 257 206 225 214 q 282 199 269 203 q 307 190 294 194 q 374 201 349 176 q 401 217 385 211 q 440 221 418 224 q 510 218 475 217 q 556 211 538 221 q 567 181 575 201 q 471 56 526 100 q 335 3 415 11 l 328 6 z "},"":{"ha":454,"x_min":56,"x_max":424,"o":"m 422 42 q 408 9 421 22 q 376 -4 394 -4 l 101 -4 q 69 12 82 -1 q 56 42 56 25 l 56 921 q 70 953 57 940 q 101 967 83 967 l 376 967 q 409 951 396 964 q 422 921 422 938 l 422 871 q 408 824 422 853 q 376 782 394 794 q 317 763 344 761 q 263 775 290 764 q 236 774 247 782 q 226 747 225 765 q 227 668 229 704 q 222 599 225 632 q 230 565 221 585 q 253 532 239 546 q 277 511 265 521 q 302 497 289 501 q 331 493 315 492 q 364 506 346 494 q 403 525 385 518 q 422 514 422 532 l 422 460 q 416 437 422 450 q 401 411 410 424 q 380 390 392 399 q 357 378 368 381 q 289 385 317 367 q 238 426 261 403 q 213 440 224 442 q 199 422 201 438 q 192 340 194 383 q 189 242 189 296 q 201 201 189 221 q 229 174 213 181 q 290 147 257 161 q 363 129 322 133 q 405 115 386 126 q 424 83 424 103 l 424 42 l 422 42 z "},"":{"ha":454,"x_min":56,"x_max":424,"o":"m 422 42 q 408 9 421 22 q 376 -4 394 -4 l 101 -4 q 69 12 82 -1 q 56 42 56 25 l 56 921 q 70 953 57 940 q 101 967 83 967 l 376 967 q 409 951 396 964 q 422 921 422 938 l 422 871 q 408 824 422 853 q 376 782 394 794 q 317 763 344 761 q 263 775 290 764 q 236 774 247 782 q 226 747 225 765 q 227 668 229 704 q 222 599 225 632 q 230 565 221 585 q 253 532 239 546 q 277 511 265 521 q 302 497 289 501 q 331 493 315 492 q 364 506 346 494 q 403 525 385 518 q 422 514 422 532 l 422 460 q 416 437 422 450 q 401 411 410 424 q 380 390 392 399 q 357 378 368 381 q 289 385 317 367 q 238 426 261 403 q 213 440 224 442 q 199 422 201 438 q 192 340 194 383 q 189 242 189 296 q 201 201 189 221 q 229 174 213 181 q 290 147 257 161 q 363 129 322 133 q 405 115 386 126 q 424 83 424 103 l 424 42 l 422 42 z "},"":{"ha":454,"x_min":56,"x_max":424,"o":"m 422 42 q 408 9 421 22 q 376 -4 394 -4 l 101 -4 q 69 12 82 -1 q 56 42 56 25 l 56 921 q 70 953 57 940 q 101 967 83 967 l 376 967 q 409 951 396 964 q 422 921 422 938 l 422 871 q 408 824 422 853 q 376 782 394 794 q 317 763 344 761 q 263 775 290 764 q 236 774 247 782 q 226 747 225 765 q 227 668 229 704 q 222 599 225 632 q 230 565 221 585 q 253 532 239 546 q 277 511 265 521 q 302 497 289 501 q 331 493 315 492 q 364 506 346 494 q 403 525 385 518 q 422 514 422 532 l 422 460 q 416 437 422 450 q 401 411 410 424 q 380 390 392 399 q 357 378 368 381 q 289 385 317 367 q 238 426 261 403 q 213 440 224 442 q 199 422 201 438 q 192 340 194 383 q 189 242 189 296 q 201 201 189 221 q 229 174 213 181 q 290 147 257 161 q 363 129 322 133 q 405 115 386 126 q 424 83 424 103 l 424 42 l 422 42 z "},"":{"ha":454,"x_min":56,"x_max":424,"o":"m 422 42 q 408 9 421 22 q 376 -4 394 -4 l 101 -4 q 69 12 82 -1 q 56 42 56 25 l 56 921 q 70 953 57 940 q 101 967 83 967 l 376 967 q 409 951 396 964 q 422 921 422 938 l 422 871 q 408 824 422 853 q 376 782 394 794 q 317 763 344 761 q 263 775 290 764 q 236 774 247 782 q 226 747 225 765 q 227 668 229 704 q 222 599 225 632 q 230 565 221 585 q 253 532 239 546 q 277 511 265 521 q 302 497 289 501 q 331 493 315 492 q 364 506 346 494 q 403 525 385 518 q 422 514 422 532 l 422 460 q 416 437 422 450 q 401 411 410 424 q 380 390 392 399 q 357 378 368 381 q 289 385 317 367 q 238 426 261 403 q 213 440 224 442 q 199 422 201 438 q 192 340 194 383 q 189 242 189 296 q 201 201 189 221 q 229 174 213 181 q 290 147 257 161 q 363 129 322 133 q 405 115 386 126 q 424 83 424 103 l 424 42 l 422 42 z "},"":{"ha":640,"x_min":54,"x_max":601,"o":"m 451 24 l 447 24 q 410 6 433 13 q 367 0 386 0 l 100 0 q 67 15 81 1 q 54 46 54 28 l 54 925 q 69 958 56 944 q 100 971 82 971 l 338 971 q 444 923 396 954 q 526 854 492 892 q 579 774 560 817 q 601 692 599 732 l 601 263 q 584 183 599 219 q 547 118 569 147 q 499 65 525 89 q 449 24 472 42 l 451 24 m 454 618 q 451 672 457 644 q 430 721 444 699 q 395 760 415 743 q 351 783 375 776 q 285 804 319 793 q 254 800 267 810 q 244 774 242 790 q 245 649 250 706 q 231 532 240 592 q 211 405 221 472 q 197 249 201 338 q 208 210 196 226 q 235 193 219 194 q 297 182 263 192 q 378 196 344 171 q 411 265 411 221 q 416 351 411 310 q 427 433 421 392 q 441 520 433 475 q 454 618 449 565 z "},"":{"ha":640,"x_min":54,"x_max":601,"o":"m 451 24 l 447 24 q 410 6 433 13 q 367 0 386 0 l 100 0 q 67 15 81 1 q 54 46 54 28 l 54 925 q 69 958 56 944 q 100 971 82 971 l 338 971 q 444 923 396 954 q 526 854 492 892 q 579 774 560 817 q 601 692 599 732 l 601 263 q 584 183 599 219 q 547 118 569 147 q 499 65 525 89 q 449 24 472 42 l 451 24 m 454 618 q 451 672 457 644 q 430 721 444 699 q 395 760 415 743 q 351 783 375 776 q 285 804 319 793 q 254 800 267 810 q 244 774 242 790 q 245 649 250 706 q 231 532 240 592 q 211 405 221 472 q 197 249 201 338 q 208 210 196 226 q 235 193 219 194 q 297 182 263 192 q 378 196 344 171 q 411 265 411 221 q 416 351 411 310 q 427 433 421 392 q 441 520 433 475 q 454 618 449 565 m 507 -108 q 539 -123 526 -110 q 553 -154 551 -136 l 553 -208 q 535 -241 550 -228 q 507 -254 521 -254 l 132 -254 q 100 -240 113 -253 q 86 -210 88 -228 l 86 -156 q 103 -123 89 -136 q 132 -110 118 -110 l 507 -110 l 507 -108 z "},"":{"ha":633,"x_min":53,"x_max":578,"o":"m 194 79 l 194 83 q 184 33 196 56 q 153 11 172 11 l 99 11 q 66 25 79 13 q 53 56 53 38 l 53 935 q 67 967 54 954 q 99 981 81 981 l 153 981 q 194 965 172 981 q 229 926 217 949 q 299 778 275 849 q 338 643 324 707 q 362 522 353 579 q 383 410 371 464 q 392 393 388 394 q 400 407 397 392 q 415 502 407 453 q 430 610 424 551 q 439 742 436 669 q 438 906 442 814 q 447 956 435 933 q 478 978 458 978 l 532 978 q 565 963 551 976 q 578 932 578 950 l 578 53 q 556 18 575 32 q 509 3 536 4 q 451 15 482 1 q 396 64 421 29 q 350 142 371 93 q 313 247 329 190 q 284 362 296 304 q 264 467 272 419 q 251 546 256 515 q 244 579 246 576 q 235 596 240 594 q 228 582 231 597 q 213 485 221 535 q 199 376 206 436 q 190 244 193 317 q 192 79 188 172 l 194 79 z "},"":{"ha":633,"x_min":53,"x_max":578,"o":"m 194 79 l 194 83 q 184 33 196 56 q 153 11 172 11 l 99 11 q 66 25 79 13 q 53 56 53 38 l 53 935 q 67 967 54 954 q 99 981 81 981 l 153 981 q 194 965 172 981 q 229 926 217 949 q 299 778 275 849 q 338 643 324 707 q 362 522 353 579 q 383 410 371 464 q 392 393 388 394 q 400 407 397 392 q 415 502 407 453 q 430 610 424 551 q 439 742 436 669 q 438 906 442 814 q 447 956 435 933 q 478 978 458 978 l 532 978 q 565 963 551 976 q 578 932 578 950 l 578 53 q 556 18 575 32 q 509 3 536 4 q 451 15 482 1 q 396 64 421 29 q 350 142 371 93 q 313 247 329 190 q 284 362 296 304 q 264 467 272 419 q 251 546 256 515 q 244 579 246 576 q 235 596 240 594 q 228 582 231 597 q 213 485 221 535 q 199 376 206 436 q 190 244 193 317 q 192 79 188 172 l 194 79 z "},"":{"ha":619,"x_min":43,"x_max":578,"o":"m 281 0 q 185 35 228 10 q 112 93 143 60 q 63 165 81 126 q 43 239 44 203 l 43 726 q 73 821 51 779 q 126 893 94 863 q 198 942 158 924 q 282 964 238 960 l 340 964 q 435 929 392 954 q 509 871 478 904 q 558 799 540 838 q 578 725 576 760 l 578 238 q 548 143 569 185 q 494 71 526 101 q 423 22 463 40 q 339 0 383 4 l 281 0 m 229 724 q 226 626 231 672 q 214 533 221 581 q 199 433 207 485 q 185 317 190 381 q 203 243 182 276 q 257 201 225 210 q 281 194 268 199 q 306 186 293 190 q 365 193 340 175 q 388 243 389 211 q 391 340 386 294 q 403 434 396 386 q 419 534 411 482 q 433 650 428 586 q 415 724 436 690 q 361 765 393 757 q 336 772 349 768 q 311 781 324 776 q 252 774 276 792 q 229 724 228 756 z "},"":{"ha":619,"x_min":43,"x_max":578,"o":"m 281 0 q 185 35 228 10 q 112 93 143 60 q 63 165 81 126 q 43 239 44 203 l 43 726 q 73 821 51 779 q 126 893 94 863 q 198 942 158 924 q 282 964 238 960 l 340 964 q 435 929 392 954 q 509 871 478 904 q 558 799 540 838 q 578 725 576 760 l 578 238 q 548 143 569 185 q 494 71 526 101 q 423 22 463 40 q 339 0 383 4 l 281 0 m 229 724 q 226 626 231 672 q 214 533 221 581 q 199 433 207 485 q 185 317 190 381 q 203 243 182 276 q 257 201 225 210 q 281 194 268 199 q 306 186 293 190 q 365 193 340 175 q 388 243 389 211 q 391 340 386 294 q 403 434 396 386 q 419 534 411 482 q 433 650 428 586 q 415 724 436 690 q 361 765 393 757 q 336 772 349 768 q 311 781 324 776 q 252 774 276 792 q 229 724 228 756 z "},"":{"ha":619,"x_min":43,"x_max":578,"o":"m 281 0 q 185 35 228 10 q 112 93 143 60 q 63 165 81 126 q 43 239 44 203 l 43 726 q 73 821 51 779 q 126 893 94 863 q 198 942 158 924 q 282 964 238 960 l 340 964 q 435 929 392 954 q 509 871 478 904 q 558 799 540 838 q 578 725 576 760 l 578 238 q 548 143 569 185 q 494 71 526 101 q 423 22 463 40 q 339 0 383 4 l 281 0 m 229 724 q 226 626 231 672 q 214 533 221 581 q 199 433 207 485 q 185 317 190 381 q 203 243 182 276 q 257 201 225 210 q 281 194 268 199 q 306 186 293 190 q 365 193 340 175 q 388 243 389 211 q 391 340 386 294 q 403 434 396 386 q 419 534 411 482 q 433 650 428 586 q 415 724 436 690 q 361 765 393 757 q 336 772 349 768 q 311 781 324 776 q 252 774 276 792 q 229 724 228 756 z "},"":{"ha":619,"x_min":43,"x_max":578,"o":"m 281 0 q 185 35 228 10 q 112 93 143 60 q 63 165 81 126 q 43 239 44 203 l 43 726 q 73 821 51 779 q 126 893 94 863 q 198 942 158 924 q 282 964 238 960 l 340 964 q 435 929 392 954 q 509 871 478 904 q 558 799 540 838 q 578 725 576 760 l 578 238 q 548 143 569 185 q 494 71 526 101 q 423 22 463 40 q 339 0 383 4 l 281 0 m 229 724 q 226 626 231 672 q 214 533 221 581 q 199 433 207 485 q 185 317 190 381 q 203 243 182 276 q 257 201 225 210 q 281 194 268 199 q 306 186 293 190 q 365 193 340 175 q 388 243 389 211 q 391 340 386 294 q 403 434 396 386 q 419 534 411 482 q 433 650 428 586 q 415 724 436 690 q 361 765 393 757 q 336 772 349 768 q 311 781 324 776 q 252 774 276 792 q 229 724 228 756 z "},"":{"ha":254,"x_min":32,"x_max":219,"o":"m 117 254 q 147 215 129 231 q 180 184 164 199 q 208 154 196 169 q 219 119 219 139 q 189 49 215 75 q 126 18 163 24 q 90 33 107 22 q 61 59 74 44 q 41 90 49 74 q 33 119 33 107 q 42 175 33 142 q 63 235 50 208 q 90 271 75 261 q 117 256 104 281 l 117 254 m 135 486 q 105 525 122 508 q 72 556 88 542 q 44 586 56 571 q 32 621 32 601 q 63 691 36 665 q 125 722 89 717 q 161 707 144 718 q 190 681 178 696 q 210 650 203 667 q 218 621 218 633 q 210 565 218 599 q 189 506 201 532 q 162 469 176 479 q 135 485 147 460 l 135 486 z "},"":{"ha":586,"x_min":57,"x_max":563,"o":"m 197 74 q 188 24 200 46 q 157 1 176 1 l 103 1 q 70 16 83 3 q 57 47 57 29 l 57 926 q 72 959 58 946 q 103 972 85 972 l 332 972 q 424 934 382 960 q 495 875 465 908 q 542 805 525 842 q 561 733 560 768 l 561 633 q 550 558 563 597 q 517 483 538 518 q 472 421 497 447 q 419 385 446 394 q 394 365 403 378 q 392 336 386 351 q 453 197 413 268 q 535 46 494 125 q 535 15 543 28 q 507 3 526 3 l 444 3 q 403 19 425 3 q 371 58 382 35 q 308 215 331 142 q 275 354 286 289 q 261 387 272 372 q 236 404 250 401 q 213 395 224 407 q 199 364 201 383 q 190 235 192 306 q 193 74 188 165 l 197 74 m 279 799 l 279 800 q 249 798 261 807 q 239 772 238 789 q 241 665 244 714 q 231 567 238 615 q 238 540 228 551 q 264 522 249 528 q 312 504 288 511 q 357 499 336 497 q 392 515 378 501 q 411 560 407 529 q 417 607 414 583 q 422 657 419 631 q 403 731 425 697 q 349 775 382 765 q 315 786 332 781 q 281 799 299 792 l 279 799 z "},"":{"ha":629,"x_min":44,"x_max":579,"o":"m 336 1 l 282 1 q 187 36 229 11 q 113 94 144 61 q 64 166 82 128 q 44 240 46 204 l 44 924 q 59 956 46 943 q 90 969 72 969 l 144 969 q 182 953 164 969 q 206 914 200 936 q 233 744 229 817 q 228 607 236 672 q 208 474 221 542 q 189 315 196 406 q 208 242 186 275 q 261 200 229 208 q 286 193 274 197 q 311 185 299 189 q 370 192 346 174 q 393 242 394 210 q 400 377 390 314 q 420 513 410 440 q 438 676 431 585 q 439 896 446 767 q 448 946 436 924 q 479 968 460 968 l 533 968 q 566 953 553 967 q 579 922 579 940 l 579 239 q 549 144 571 186 q 496 72 528 103 q 424 24 464 42 q 340 1 385 6 l 336 1 z "},"":{"ha":629,"x_min":44,"x_max":579,"o":"m 336 1 l 282 1 q 187 36 229 11 q 113 94 144 61 q 64 166 82 128 q 44 240 46 204 l 44 924 q 59 956 46 943 q 90 969 72 969 l 144 969 q 182 953 164 969 q 206 914 200 936 q 233 744 229 817 q 228 607 236 672 q 208 474 221 542 q 189 315 196 406 q 208 242 186 275 q 261 200 229 208 q 286 193 274 197 q 311 185 299 189 q 370 192 346 174 q 393 242 394 210 q 400 377 390 314 q 420 513 410 440 q 438 676 431 585 q 439 896 446 767 q 448 946 436 924 q 479 968 460 968 l 533 968 q 566 953 553 967 q 579 922 579 940 l 579 239 q 549 144 571 186 q 496 72 528 103 q 424 24 464 42 q 340 1 385 6 l 336 1 z "},"":{"ha":629,"x_min":44,"x_max":579,"o":"m 336 1 l 282 1 q 187 36 229 11 q 113 94 144 61 q 64 166 82 128 q 44 240 46 204 l 44 924 q 59 956 46 943 q 90 969 72 969 l 144 969 q 182 953 164 969 q 206 914 200 936 q 233 744 229 817 q 228 607 236 672 q 208 474 221 542 q 189 315 196 406 q 208 242 186 275 q 261 200 229 208 q 286 193 274 197 q 311 185 299 189 q 370 192 346 174 q 393 242 394 210 q 400 377 390 314 q 420 513 410 440 q 438 676 431 585 q 439 896 446 767 q 448 946 436 924 q 479 968 460 968 l 533 968 q 566 953 553 967 q 579 922 579 940 l 579 239 q 549 144 571 186 q 496 72 528 103 q 424 24 464 42 q 340 1 385 6 l 336 1 z "},"":{"ha":629,"x_min":44,"x_max":579,"o":"m 336 1 l 282 1 q 187 36 229 11 q 113 94 144 61 q 64 166 82 128 q 44 240 46 204 l 44 924 q 59 956 46 943 q 90 969 72 969 l 144 969 q 182 953 164 969 q 206 914 200 936 q 233 744 229 817 q 228 607 236 672 q 208 474 221 542 q 189 315 196 406 q 208 242 186 275 q 261 200 229 208 q 286 193 274 197 q 311 185 299 189 q 370 192 346 174 q 393 242 394 210 q 400 377 390 314 q 420 513 410 440 q 438 676 431 585 q 439 896 446 767 q 448 946 436 924 q 479 968 460 968 l 533 968 q 566 953 553 967 q 579 922 579 940 l 579 239 q 549 144 571 186 q 496 72 528 103 q 424 24 464 42 q 340 1 385 6 l 336 1 z "},"":{"ha":626,"x_min":-18,"x_max":644,"o":"m 325 649 q 341 626 332 631 q 360 633 350 622 q 419 744 392 675 q 474 908 447 813 q 499 953 481 935 q 536 972 517 972 l 611 972 q 638 960 631 971 q 635 931 644 950 q 577 792 607 863 q 517 660 547 722 q 454 550 486 599 q 392 478 422 501 q 372 451 381 467 q 360 421 363 435 q 346 347 351 385 q 340 267 340 310 q 345 174 339 225 q 368 60 351 122 q 367 17 375 36 q 340 -1 360 -1 l 286 -1 q 250 21 267 -1 q 231 71 233 43 q 221 199 222 142 q 223 303 219 256 q 233 390 226 350 q 249 465 240 429 q 251 501 251 481 q 246 538 251 522 q 212 633 238 585 q 151 729 186 681 q 74 828 115 778 q -7 931 33 878 q -10 959 -18 947 q 15 971 -3 971 l 86 971 q 131 957 106 971 q 171 924 156 943 q 322 650 282 779 l 325 649 z "},"":{"ha":1157,"x_min":0,"x_max":0,"o":""},"":{"ha":1157,"x_min":0,"x_max":0,"o":""},"":{"ha":611,"x_min":1,"x_max":617,"o":"m 219 296 q 190 282 204 297 q 172 243 176 267 q 160 165 165 207 q 150 76 154 124 q 133 26 147 49 q 100 4 119 4 l 42 4 q 12 18 22 6 q 6 50 1 31 q 38 238 17 153 q 85 396 60 322 q 135 534 110 469 q 181 661 161 599 q 210 787 200 724 q 217 919 221 850 q 225 959 214 942 q 256 976 236 976 l 364 976 q 401 954 383 976 q 426 904 419 932 q 449 715 440 797 q 468 564 458 632 q 488 438 478 496 q 515 319 499 379 q 555 194 532 260 q 613 49 578 129 q 606 16 617 29 q 576 3 594 3 l 518 3 q 478 19 499 3 q 446 57 457 35 q 375 236 397 154 q 355 266 369 254 q 325 281 340 278 q 274 287 300 283 q 219 292 249 290 l 219 296 m 347 650 q 340 672 344 669 q 332 658 336 674 q 290 559 314 601 q 243 468 267 517 q 242 442 236 454 q 264 425 249 429 q 290 418 278 422 q 315 411 303 414 q 340 418 331 408 q 350 443 350 428 q 351 542 350 492 q 347 650 353 592 z "},"":{"ha":611,"x_min":1,"x_max":617,"o":"m 219 296 q 190 282 204 297 q 172 243 176 267 q 160 165 165 207 q 150 76 154 124 q 133 26 147 49 q 100 4 119 4 l 42 4 q 12 18 22 6 q 6 50 1 31 q 38 238 17 153 q 85 396 60 322 q 135 534 110 469 q 181 661 161 599 q 210 787 200 724 q 217 919 221 850 q 225 959 214 942 q 256 976 236 976 l 364 976 q 401 954 383 976 q 426 904 419 932 q 449 715 440 797 q 468 564 458 632 q 488 438 478 496 q 515 319 499 379 q 555 194 532 260 q 613 49 578 129 q 606 16 617 29 q 576 3 594 3 l 518 3 q 478 19 499 3 q 446 57 457 35 q 375 236 397 154 q 355 266 369 254 q 325 281 340 278 q 274 287 300 283 q 219 292 249 290 l 219 296 m 347 650 q 340 672 344 669 q 332 658 336 674 q 290 559 314 601 q 243 468 267 517 q 242 442 236 454 q 264 425 249 429 q 290 418 278 422 q 315 411 303 414 q 340 418 331 408 q 350 443 350 428 q 351 542 350 492 q 347 650 353 592 z "},"":{"ha":611,"x_min":1,"x_max":617,"o":"m 219 296 q 190 282 204 297 q 172 243 176 267 q 160 165 165 207 q 150 76 154 124 q 133 26 147 49 q 100 4 119 4 l 42 4 q 12 18 22 6 q 6 50 1 31 q 38 238 17 153 q 85 396 60 322 q 135 534 110 469 q 181 661 161 599 q 210 787 200 724 q 217 919 221 850 q 225 959 214 942 q 256 976 236 976 l 364 976 q 401 954 383 976 q 426 904 419 932 q 449 715 440 797 q 468 564 458 632 q 488 438 478 496 q 515 319 499 379 q 555 194 532 260 q 613 49 578 129 q 606 16 617 29 q 576 3 594 3 l 518 3 q 478 19 499 3 q 446 57 457 35 q 375 236 397 154 q 355 266 369 254 q 325 281 340 278 q 274 287 300 283 q 219 292 249 290 l 219 296 m 347 650 q 340 672 344 669 q 332 658 336 674 q 290 559 314 601 q 243 468 267 517 q 242 442 236 454 q 264 425 249 429 q 290 418 278 422 q 315 411 303 414 q 340 418 331 408 q 350 443 350 428 q 351 542 350 492 q 347 650 353 592 z "},"":{"ha":1063,"x_min":1,"x_max":1033,"o":"m 219 296 q 190 282 204 297 q 172 243 176 267 q 160 165 165 207 q 150 76 154 124 q 133 26 147 49 q 100 4 119 4 l 42 4 q 12 18 22 6 q 6 50 1 31 q 38 238 17 153 q 85 396 60 322 q 135 534 110 469 q 181 661 161 599 q 210 787 200 724 q 217 919 221 850 q 225 959 214 942 q 256 976 236 976 l 364 976 q 401 954 383 976 q 426 904 419 932 q 449 715 440 797 q 468 564 458 632 q 488 438 478 496 q 515 319 499 379 q 555 194 532 260 q 613 49 578 129 q 606 16 617 29 q 576 3 594 3 l 518 3 q 478 19 499 3 q 446 57 457 35 q 375 236 397 154 q 355 266 369 254 q 325 281 340 278 q 274 287 300 283 q 219 292 249 290 l 219 296 m 347 650 q 340 672 344 669 q 332 658 336 674 q 290 559 314 601 q 243 468 267 517 q 242 442 236 454 q 264 425 249 429 q 290 418 278 422 q 315 411 303 414 q 340 418 331 408 q 350 443 350 428 q 351 542 350 492 q 347 650 353 592 m 1032 42 q 1017 9 1031 22 q 986 -4 1004 -4 l 711 -4 q 678 12 692 -1 q 665 42 665 25 l 665 921 q 680 953 667 940 q 711 967 693 967 l 986 967 q 1019 951 1006 964 q 1032 921 1032 938 l 1032 871 q 1018 824 1032 853 q 986 782 1004 794 q 927 763 954 761 q 872 775 900 764 q 846 774 857 782 q 836 747 835 765 q 837 668 839 704 q 832 599 835 632 q 840 565 831 585 q 863 532 849 546 q 887 511 875 521 q 912 497 899 501 q 940 493 925 492 q 974 506 956 494 q 1013 525 994 518 q 1032 514 1032 532 l 1032 460 q 1026 437 1032 450 q 1010 411 1019 424 q 990 390 1001 399 q 967 378 978 381 q 899 385 926 367 q 847 426 871 403 q 822 440 833 442 q 808 422 811 438 q 801 340 804 383 q 799 242 799 296 q 810 201 799 221 q 839 174 822 181 q 899 147 867 161 q 972 129 932 133 q 1015 115 996 126 q 1033 83 1033 103 l 1033 42 l 1032 42 z "},"":{"ha":451,"x_min":54,"x_max":422,"o":"m 421 42 q 406 9 419 22 q 375 -4 393 -4 l 100 -4 q 67 12 81 -1 q 54 42 54 25 l 54 921 q 69 953 56 940 q 100 967 82 967 l 375 967 q 408 951 394 964 q 421 921 421 938 l 421 871 q 407 824 421 853 q 375 782 393 794 q 316 763 343 761 q 261 775 289 764 q 235 774 246 782 q 225 747 224 765 q 226 668 228 704 q 221 599 224 632 q 228 565 219 585 q 251 532 238 546 q 276 511 264 521 q 301 497 288 501 q 329 493 314 492 q 363 506 344 494 q 402 525 383 518 q 421 514 421 532 l 421 460 q 415 437 421 450 q 399 411 408 424 q 378 390 390 399 q 356 378 367 381 q 288 385 315 367 q 236 426 260 403 q 211 440 222 442 q 197 422 200 438 q 190 340 193 383 q 188 242 188 296 q 199 201 188 221 q 228 174 211 181 q 288 147 256 161 q 361 129 321 133 q 403 115 385 126 q 422 83 422 103 l 422 42 l 421 42 z "},"":{"ha":451,"x_min":54,"x_max":422,"o":"m 421 42 q 406 9 419 22 q 375 -4 393 -4 l 100 -4 q 67 12 81 -1 q 54 42 54 25 l 54 921 q 69 953 56 940 q 100 967 82 967 l 375 967 q 408 951 394 964 q 421 921 421 938 l 421 871 q 407 824 421 853 q 375 782 393 794 q 316 763 343 761 q 261 775 289 764 q 235 774 246 782 q 225 747 224 765 q 226 668 228 704 q 221 599 224 632 q 228 565 219 585 q 251 532 238 546 q 276 511 264 521 q 301 497 288 501 q 329 493 314 492 q 363 506 344 494 q 402 525 383 518 q 421 514 421 532 l 421 460 q 415 437 421 450 q 399 411 408 424 q 378 390 390 399 q 356 378 367 381 q 288 385 315 367 q 236 426 260 403 q 211 440 222 442 q 197 422 200 438 q 190 340 193 383 q 188 242 188 296 q 199 201 188 221 q 228 174 211 181 q 288 147 256 161 q 361 129 321 133 q 403 115 385 126 q 422 83 422 103 l 422 42 l 421 42 z "},"":{"ha":254,"x_min":51,"x_max":199,"o":"m 199 46 q 184 14 197 26 q 151 0 171 1 l 97 0 q 65 17 78 3 q 51 46 51 32 l 51 925 q 66 957 53 944 q 99 971 79 969 l 153 971 q 185 953 172 968 q 199 925 199 939 l 199 46 l 199 46 z "},"":{"ha":254,"x_min":51,"x_max":199,"o":"m 199 46 q 184 14 197 26 q 151 0 171 1 l 97 0 q 65 17 78 3 q 51 46 51 32 l 51 925 q 66 957 53 944 q 99 971 79 969 l 153 971 q 185 953 172 968 q 199 925 199 939 l 199 46 l 199 46 z "},"":{"ha":633,"x_min":53,"x_max":578,"o":"m 194 79 l 194 83 q 184 33 196 56 q 153 11 172 11 l 99 11 q 66 25 79 13 q 53 56 53 38 l 53 935 q 67 967 54 954 q 99 981 81 981 l 153 981 q 194 965 172 981 q 229 926 217 949 q 299 778 275 849 q 338 643 324 707 q 362 522 353 579 q 383 410 371 464 q 392 393 388 394 q 400 407 397 392 q 415 502 407 453 q 430 610 424 551 q 439 742 436 669 q 438 906 442 814 q 447 956 435 933 q 478 978 458 978 l 532 978 q 565 963 551 976 q 578 932 578 950 l 578 53 q 556 18 575 32 q 509 3 536 4 q 451 15 482 1 q 396 64 421 29 q 350 142 371 93 q 313 247 329 190 q 284 362 296 304 q 264 467 272 419 q 251 546 256 515 q 244 579 246 576 q 235 596 240 594 q 228 582 231 597 q 213 485 221 535 q 199 376 206 436 q 190 244 193 317 q 192 79 188 172 l 194 79 z "},"":{"ha":619,"x_min":43,"x_max":578,"o":"m 281 0 q 185 35 228 10 q 112 93 143 60 q 63 165 81 126 q 43 239 44 203 l 43 726 q 73 821 51 779 q 126 893 94 863 q 198 942 158 924 q 282 964 238 960 l 340 964 q 435 929 392 954 q 509 871 478 904 q 558 799 540 838 q 578 725 576 760 l 578 238 q 548 143 569 185 q 494 71 526 101 q 423 22 463 40 q 339 0 383 4 l 281 0 m 229 724 q 226 626 231 672 q 214 533 221 581 q 199 433 207 485 q 185 317 190 381 q 203 243 182 276 q 257 201 225 210 q 281 194 268 199 q 306 186 293 190 q 365 193 340 175 q 388 243 389 211 q 391 340 386 294 q 403 434 396 386 q 419 534 411 482 q 433 650 428 586 q 415 724 436 690 q 361 765 393 757 q 336 772 349 768 q 311 781 324 776 q 252 774 276 792 q 229 724 228 756 z "},"":{"ha":628,"x_min":44,"x_max":579,"o":"m 336 1 l 282 1 q 187 36 229 11 q 113 94 144 61 q 64 166 82 128 q 44 240 46 204 l 44 924 q 59 956 46 943 q 90 969 72 969 l 144 969 q 182 953 164 969 q 206 914 200 936 q 233 744 229 817 q 228 607 236 672 q 208 474 221 542 q 189 315 196 406 q 208 242 186 275 q 261 200 229 208 q 286 193 274 197 q 311 185 299 189 q 370 192 346 174 q 393 242 394 210 q 400 377 390 314 q 420 513 410 440 q 438 676 431 585 q 439 896 446 767 q 448 946 436 924 q 479 968 460 968 l 533 968 q 566 953 553 967 q 579 922 579 940 l 579 239 q 549 144 571 186 q 496 72 528 103 q 424 24 464 42 q 340 1 385 6 l 336 1 z "},"":{"ha":628,"x_min":44,"x_max":579,"o":"m 336 1 l 282 1 q 187 36 229 11 q 113 94 144 61 q 64 166 82 128 q 44 240 46 204 l 44 924 q 59 956 46 943 q 90 969 72 969 l 144 969 q 182 953 164 969 q 206 914 200 936 q 233 744 229 817 q 228 607 236 672 q 208 474 221 542 q 189 315 196 406 q 208 242 186 275 q 261 200 229 208 q 286 193 274 197 q 311 185 299 189 q 370 192 346 174 q 393 242 394 210 q 400 377 390 314 q 420 513 410 440 q 438 676 431 585 q 439 896 446 767 q 448 946 436 924 q 479 968 460 968 l 533 968 q 566 953 553 967 q 579 922 579 940 l 579 239 q 549 144 571 186 q 496 72 528 103 q 424 24 464 42 q 340 1 385 6 l 336 1 z "},"":{"ha":611,"x_min":1,"x_max":617,"o":"m 219 296 q 190 282 204 297 q 172 243 176 267 q 160 165 165 207 q 150 76 154 124 q 133 26 147 49 q 100 4 119 4 l 42 4 q 12 18 22 6 q 6 50 1 31 q 38 238 17 153 q 85 396 60 322 q 135 534 110 469 q 181 661 161 599 q 210 787 200 724 q 217 919 221 850 q 225 959 214 942 q 256 976 236 976 l 364 976 q 401 954 383 976 q 426 904 419 932 q 449 715 440 797 q 468 564 458 632 q 488 438 478 496 q 515 319 499 379 q 555 194 532 260 q 613 49 578 129 q 606 16 617 29 q 576 3 594 3 l 518 3 q 478 19 499 3 q 446 57 457 35 q 375 236 397 154 q 355 266 369 254 q 325 281 340 278 q 274 287 300 283 q 219 292 249 290 l 219 296 m 347 650 q 340 672 344 669 q 332 658 336 674 q 290 559 314 601 q 243 468 267 517 q 242 442 236 454 q 264 425 249 429 q 290 418 278 422 q 315 411 303 414 q 340 418 331 408 q 350 443 350 428 q 351 542 350 492 q 347 650 353 592 z "},"":{"ha":611,"x_min":1,"x_max":617,"o":"m 219 296 q 190 282 204 297 q 172 243 176 267 q 160 165 165 207 q 150 76 154 124 q 133 26 147 49 q 100 4 119 4 l 42 4 q 12 18 22 6 q 6 50 1 31 q 38 238 17 153 q 85 396 60 322 q 135 534 110 469 q 181 661 161 599 q 210 787 200 724 q 217 919 221 850 q 225 959 214 942 q 256 976 236 976 l 364 976 q 401 954 383 976 q 426 904 419 932 q 449 715 440 797 q 468 564 458 632 q 488 438 478 496 q 515 319 499 379 q 555 194 532 260 q 613 49 578 129 q 606 16 617 29 q 576 3 594 3 l 518 3 q 478 19 499 3 q 446 57 457 35 q 375 236 397 154 q 355 266 369 254 q 325 281 340 278 q 274 287 300 283 q 219 292 249 290 l 219 296 m 347 650 q 340 672 344 669 q 332 658 336 674 q 290 559 314 601 q 243 468 267 517 q 242 442 236 454 q 264 425 249 429 q 290 418 278 422 q 315 411 303 414 q 340 418 331 408 q 350 443 350 428 q 351 542 350 492 q 347 650 353 592 z "},"":{"ha":611,"x_min":1,"x_max":617,"o":"m 219 296 q 190 282 204 297 q 172 243 176 267 q 160 165 165 207 q 150 76 154 124 q 133 26 147 49 q 100 4 119 4 l 42 4 q 12 18 22 6 q 6 50 1 31 q 38 238 17 153 q 85 396 60 322 q 135 534 110 469 q 181 661 161 599 q 210 787 200 724 q 217 919 221 850 q 225 959 214 942 q 256 976 236 976 l 364 976 q 401 954 383 976 q 426 904 419 932 q 449 715 440 797 q 468 564 458 632 q 488 438 478 496 q 515 319 499 379 q 555 194 532 260 q 613 49 578 129 q 606 16 617 29 q 576 3 594 3 l 518 3 q 478 19 499 3 q 446 57 457 35 q 375 236 397 154 q 355 266 369 254 q 325 281 340 278 q 274 287 300 283 q 219 292 249 290 l 219 296 m 347 650 q 340 672 344 669 q 332 658 336 674 q 290 559 314 601 q 243 468 267 517 q 242 442 236 454 q 264 425 249 429 q 290 418 278 422 q 315 411 303 414 q 340 418 331 408 q 350 443 350 428 q 351 542 350 492 q 347 650 353 592 z "},"":{"ha":1065,"x_min":1,"x_max":1035,"o":"m 219 296 q 190 282 204 297 q 172 243 176 267 q 160 165 165 207 q 150 76 154 124 q 133 26 147 49 q 100 4 119 4 l 42 4 q 12 18 22 6 q 6 50 1 31 q 38 238 17 153 q 85 396 60 322 q 135 534 110 469 q 181 661 161 599 q 210 787 200 724 q 217 919 221 850 q 225 959 214 942 q 256 976 236 976 l 364 976 q 401 954 383 976 q 426 904 419 932 q 449 715 440 797 q 468 564 458 632 q 488 438 478 496 q 515 319 499 379 q 555 194 532 260 q 613 49 578 129 q 606 16 617 29 q 576 3 594 3 l 518 3 q 478 19 499 3 q 446 57 457 35 q 375 236 397 154 q 355 266 369 254 q 325 281 340 278 q 274 287 300 283 q 219 292 249 290 l 219 296 m 347 650 q 340 672 344 669 q 332 658 336 674 q 290 559 314 601 q 243 468 267 517 q 242 442 236 454 q 264 425 249 429 q 290 418 278 422 q 315 411 303 414 q 340 418 331 408 q 350 443 350 428 q 351 542 350 492 q 347 650 353 592 m 1033 42 q 1019 9 1032 22 q 988 -4 1006 -4 l 713 -4 q 680 12 693 -1 q 667 42 667 25 l 667 921 q 681 953 668 940 q 713 967 694 967 l 988 967 q 1020 951 1007 964 q 1033 921 1033 938 l 1033 871 q 1019 824 1033 853 q 988 782 1006 794 q 928 763 956 761 q 874 775 901 764 q 847 774 858 782 q 838 747 836 765 q 838 668 840 704 q 833 599 836 632 q 841 565 832 585 q 864 532 850 546 q 888 511 876 521 q 913 497 900 501 q 942 493 926 492 q 975 506 957 494 q 1015 525 996 518 q 1033 514 1033 532 l 1033 460 q 1027 437 1033 450 q 1012 411 1021 424 q 991 390 1003 399 q 968 378 979 381 q 900 385 928 367 q 849 426 872 403 q 824 440 835 442 q 810 422 813 438 q 803 340 806 383 q 800 242 800 296 q 812 201 800 221 q 840 174 824 181 q 901 147 868 161 q 974 129 933 133 q 1016 115 997 126 q 1035 83 1035 103 l 1035 42 l 1033 42 z "},"":{"ha":454,"x_min":56,"x_max":424,"o":"m 422 42 q 408 9 421 22 q 376 -4 394 -4 l 101 -4 q 69 12 82 -1 q 56 42 56 25 l 56 921 q 70 953 57 940 q 101 967 83 967 l 376 967 q 409 951 396 964 q 422 921 422 938 l 422 871 q 408 824 422 853 q 376 782 394 794 q 317 763 344 761 q 263 775 290 764 q 236 774 247 782 q 226 747 225 765 q 227 668 229 704 q 222 599 225 632 q 230 565 221 585 q 253 532 239 546 q 277 511 265 521 q 302 497 289 501 q 331 493 315 492 q 364 506 346 494 q 403 525 385 518 q 422 514 422 532 l 422 460 q 416 437 422 450 q 401 411 410 424 q 380 390 392 399 q 357 378 368 381 q 289 385 317 367 q 238 426 261 403 q 213 440 224 442 q 199 422 201 438 q 192 340 194 383 q 189 242 189 296 q 201 201 189 221 q 229 174 213 181 q 290 147 257 161 q 363 129 322 133 q 405 115 386 126 q 424 83 424 103 l 424 42 l 422 42 z "},"":{"ha":454,"x_min":56,"x_max":424,"o":"m 422 42 q 408 9 421 22 q 376 -4 394 -4 l 101 -4 q 69 12 82 -1 q 56 42 56 25 l 56 921 q 70 953 57 940 q 101 967 83 967 l 376 967 q 409 951 396 964 q 422 921 422 938 l 422 871 q 408 824 422 853 q 376 782 394 794 q 317 763 344 761 q 263 775 290 764 q 236 774 247 782 q 226 747 225 765 q 227 668 229 704 q 222 599 225 632 q 230 565 221 585 q 253 532 239 546 q 277 511 265 521 q 302 497 289 501 q 331 493 315 492 q 364 506 346 494 q 403 525 385 518 q 422 514 422 532 l 422 460 q 416 437 422 450 q 401 411 410 424 q 380 390 392 399 q 357 378 368 381 q 289 385 317 367 q 238 426 261 403 q 213 440 224 442 q 199 422 201 438 q 192 340 194 383 q 189 242 189 296 q 201 201 189 221 q 229 174 213 181 q 290 147 257 161 q 363 129 322 133 q 405 115 386 126 q 424 83 424 103 l 424 42 l 422 42 z "},"":{"ha":633,"x_min":53,"x_max":578,"o":"m 194 79 l 194 83 q 184 33 196 56 q 153 11 172 11 l 99 11 q 66 25 79 13 q 53 56 53 38 l 53 935 q 67 967 54 954 q 99 981 81 981 l 153 981 q 194 965 172 981 q 229 926 217 949 q 299 778 275 849 q 338 643 324 707 q 362 522 353 579 q 383 410 371 464 q 392 393 388 394 q 400 407 397 392 q 415 502 407 453 q 430 610 424 551 q 439 742 436 669 q 438 906 442 814 q 447 956 435 933 q 478 978 458 978 l 532 978 q 565 963 551 976 q 578 932 578 950 l 578 53 q 556 18 575 32 q 509 3 536 4 q 451 15 482 1 q 396 64 421 29 q 350 142 371 93 q 313 247 329 190 q 284 362 296 304 q 264 467 272 419 q 251 546 256 515 q 244 579 246 576 q 235 596 240 594 q 228 582 231 597 q 213 485 221 535 q 199 376 206 436 q 190 244 193 317 q 192 79 188 172 l 194 79 z "},"":{"ha":619,"x_min":43,"x_max":578,"o":"m 281 0 q 185 35 228 10 q 112 93 143 60 q 63 165 81 126 q 43 239 44 203 l 43 726 q 73 821 51 779 q 126 893 94 863 q 198 942 158 924 q 282 964 238 960 l 340 964 q 435 929 392 954 q 509 871 478 904 q 558 799 540 838 q 578 725 576 760 l 578 238 q 548 143 569 185 q 494 71 526 101 q 423 22 463 40 q 339 0 383 4 l 281 0 m 229 724 q 226 626 231 672 q 214 533 221 581 q 199 433 207 485 q 185 317 190 381 q 203 243 182 276 q 257 201 225 210 q 281 194 268 199 q 306 186 293 190 q 365 193 340 175 q 388 243 389 211 q 391 340 386 294 q 403 434 396 386 q 419 534 411 482 q 433 650 428 586 q 415 724 436 690 q 361 765 393 757 q 336 772 349 768 q 311 781 324 776 q 252 774 276 792 q 229 724 228 756 z "},"":{"ha":629,"x_min":44,"x_max":579,"o":"m 336 1 l 282 1 q 187 36 229 11 q 113 94 144 61 q 64 166 82 128 q 44 240 46 204 l 44 924 q 59 956 46 943 q 90 969 72 969 l 144 969 q 182 953 164 969 q 206 914 200 936 q 233 744 229 817 q 228 607 236 672 q 208 474 221 542 q 189 315 196 406 q 208 242 186 275 q 261 200 229 208 q 286 193 274 197 q 311 185 299 189 q 370 192 346 174 q 393 242 394 210 q 400 377 390 314 q 420 513 410 440 q 438 676 431 585 q 439 896 446 767 q 448 946 436 924 q 479 968 460 968 l 533 968 q 566 953 553 967 q 579 922 579 940 l 579 239 q 549 144 571 186 q 496 72 528 103 q 424 24 464 42 q 340 1 385 6 l 336 1 z "},"":{"ha":629,"x_min":44,"x_max":579,"o":"m 336 1 l 282 1 q 187 36 229 11 q 113 94 144 61 q 64 166 82 128 q 44 240 46 204 l 44 924 q 59 956 46 943 q 90 969 72 969 l 144 969 q 182 953 164 969 q 206 914 200 936 q 233 744 229 817 q 228 607 236 672 q 208 474 221 542 q 189 315 196 406 q 208 242 186 275 q 261 200 229 208 q 286 193 274 197 q 311 185 299 189 q 370 192 346 174 q 393 242 394 210 q 400 377 390 314 q 420 513 410 440 q 438 676 431 585 q 439 896 446 767 q 448 946 436 924 q 479 968 460 968 l 533 968 q 566 953 553 967 q 579 922 579 940 l 579 239 q 549 144 571 186 q 496 72 528 103 q 424 24 464 42 q 340 1 385 6 l 336 1 z "},"":{"ha":626,"x_min":-18,"x_max":644,"o":"m 325 649 q 341 626 332 631 q 360 633 350 622 q 419 744 392 675 q 474 908 447 813 q 499 953 481 935 q 536 972 517 972 l 611 972 q 638 960 631 971 q 635 931 644 950 q 577 792 607 863 q 517 660 547 722 q 454 550 486 599 q 392 478 422 501 q 372 451 381 467 q 360 421 363 435 q 346 347 351 385 q 340 267 340 310 q 345 174 339 225 q 368 60 351 122 q 367 17 375 36 q 340 -1 360 -1 l 286 -1 q 250 21 267 -1 q 231 71 233 43 q 221 199 222 142 q 223 303 219 256 q 233 390 226 350 q 249 465 240 429 q 251 501 251 481 q 246 538 251 522 q 212 633 238 585 q 151 729 186 681 q 74 828 115 778 q -7 931 33 878 q -10 959 -18 947 q 15 971 -3 971 l 86 971 q 131 957 106 971 q 171 924 156 943 q 322 650 282 779 l 325 649 z "},"`":{"ha":264,"x_min":32,"x_max":218,"o":"m 135 568 q 105 607 122 590 q 72 638 88 624 q 44 668 56 653 q 32 703 32 683 q 63 773 36 747 q 125 804 89 799 q 161 789 144 800 q 190 763 178 778 q 210 732 203 749 q 218 703 218 715 q 210 647 218 681 q 189 588 201 614 q 162 551 176 561 q 135 567 147 542 l 135 568 z "},"":{"ha":254,"x_min":33,"x_max":219,"o":"m 199 46 q 184 14 197 26 q 151 0 171 1 l 97 0 q 65 17 78 3 q 51 46 51 32 l 51 925 q 66 957 53 944 q 99 971 79 969 l 153 971 q 185 953 172 968 q 199 925 199 939 l 199 46 l 199 46 m 136 568 q 106 607 124 590 q 73 638 89 624 q 45 668 57 653 q 33 703 33 683 q 64 773 38 747 q 126 804 90 799 q 163 789 146 800 q 192 763 179 778 q 212 732 204 749 q 219 703 219 715 q 211 647 219 681 q 190 588 203 614 q 163 551 178 561 q 136 567 149 542 l 136 568 z "},"":{"ha":1157,"x_min":0,"x_max":0,"o":""},"":{"ha":1157,"x_min":0,"x_max":0,"o":""},"":{"ha":1157,"x_min":0,"x_max":0,"o":""}}}
